<svg width="24" height="28" viewBox="0 0 24 28" fill="none" xmlns="http://www.w3.org/2000/svg">
<path fill-rule="evenodd" clip-rule="evenodd" d="M10.3345 0.196138C10.7788 -0.062293 10.7788 -0.062293 11.3826 0.178108C11.4132 0.43654 11.4653 0.722016 11.4837 1.0105C11.5511 2.08329 11.8515 3.12603 11.9036 4.20182C11.925 4.61652 12.0446 5.04623 12.2101 5.43388C12.5809 6.30834 12.9916 7.16477 13.4114 8.01819C13.8282 8.87162 14.5668 9.43656 15.3299 9.97446C16.5926 10.8609 17.9778 11.1344 19.4887 10.7948C19.737 10.7407 19.9576 10.7498 20.0772 11.0112C20.2028 11.2816 20.4388 11.3778 20.7177 11.4079C21.3797 11.477 22.0386 11.5611 22.7036 11.6092C23.1082 11.6392 23.5005 11.6813 23.856 11.8826C23.9295 11.9247 23.9969 12.0329 24 12.111C24 12.1922 23.9326 12.3214 23.8652 12.3424C23.4882 12.4656 23.1051 12.6249 22.7159 12.6549C21.5911 12.7421 20.4633 12.8653 19.3294 12.7361C19.1639 12.718 18.9923 12.679 18.8329 12.703C17.748 12.8533 16.657 12.9885 15.5812 13.1868C14.6342 13.3611 14.0182 14.0432 13.5003 14.7645C13.1571 15.2392 12.9333 15.7982 12.6759 16.3271C12.6085 16.4683 12.5809 16.6396 12.5778 16.7988C12.5349 18.3314 12.4981 19.867 12.4614 21.3995C12.4583 21.5287 12.4644 21.664 12.4859 21.7902C12.7096 23.0252 12.5717 24.2633 12.5441 25.5014C12.5288 26.1174 12.5931 26.7364 12.6177 27.3555C12.6238 27.4847 12.633 27.6169 12.6177 27.7431C12.5962 27.9204 12.3357 28.0466 12.1518 27.9835C11.8637 27.8904 11.7197 27.689 11.6983 27.4005C11.6553 26.7815 11.6002 26.1625 11.5818 25.5434C11.542 24.3024 11.6032 23.0553 11.4684 21.8262C11.3366 20.6302 11.024 19.4523 10.7696 18.2683C10.6042 17.502 10.4295 16.7387 10.0096 16.0536C9.51005 15.2392 8.82969 14.6443 7.8735 14.4129C7.35556 14.2897 6.82843 14.1574 6.3013 14.1424C5.2593 14.1154 4.32763 13.6436 3.31321 13.5234C2.58074 13.0456 1.72263 13.1207 0.907412 12.9945C0.649977 12.9554 0.392541 12.8803 0.156559 12.7751C0.0707467 12.7391 0.00638778 12.5768 0.000258359 12.4686C-0.00587106 12.3995 0.0983291 12.2883 0.178012 12.2553C0.297535 12.2042 0.438512 12.2072 0.570294 12.1892C1.85134 11.9878 3.13852 11.8105 4.4165 11.5791C5.13365 11.4499 5.84159 11.2516 6.54035 11.0412C7.32185 10.8068 7.89188 10.3291 8.42514 9.69199C9.00744 8.99482 9.44876 8.25559 9.8012 7.44724C10.0127 6.95742 10.074 6.44657 10.0586 5.91168C10.0464 5.45792 10.0801 4.99815 10.1444 4.55041C10.3406 3.10199 10.5643 1.65057 10.3345 0.196138Z" fill="#E67803"/>
</svg>
