<svg width="33" height="34" viewBox="0 0 33 34" fill="none" xmlns="http://www.w3.org/2000/svg">
<path fill-rule="evenodd" clip-rule="evenodd" d="M25.4617 28.8455C24.8391 28.5115 24.4412 28.027 24.0249 27.5681C23.0854 26.5329 22.1459 25.4941 21.0849 24.536C21.0075 24.5691 20.9043 24.5838 20.838 24.6425C20.5543 24.8884 20.2043 25.0169 19.8838 25.1968C19.6112 25.351 19.3128 25.3179 19.0254 25.3253C18.5575 25.3363 18.1191 25.4868 17.6438 25.4831C17.6106 25.7401 17.5406 25.953 17.5591 26.1585C17.6143 26.7642 17.4927 27.3552 17.4927 27.9572C17.4927 28.4601 17.4227 28.963 17.3822 29.4659C17.3564 29.7926 17.3638 30.1303 17.2901 30.446C17.2091 30.8058 17.2164 31.1471 17.2459 31.5105C17.2827 31.9914 17.257 32.4833 17.0875 32.9495C16.9696 33.2725 16.8259 33.5882 16.6822 33.9002C16.6343 34.0067 16.4722 34.0287 16.3727 33.9626C16.2401 33.8745 16.1333 33.7644 16.1185 33.5919C16.1148 33.5332 16.1075 33.4744 16.1112 33.4157C16.1848 32.6338 15.9933 31.8703 15.9822 31.0921C15.9822 30.9783 15.9454 30.8645 15.9269 30.747C15.8938 30.5158 15.8496 30.2882 15.8312 30.0569C15.8054 29.7082 15.798 29.3595 15.7833 29.0107C15.7759 28.8749 15.7464 28.7354 15.7648 28.6033C15.8864 27.6892 15.7169 26.7862 15.6764 25.8795C15.6691 25.729 15.6764 25.5749 15.6764 25.395C15.5585 25.3803 15.4664 25.351 15.3743 25.3546C14.8917 25.3766 14.4496 25.2482 14.0332 25.0206C13.8269 24.9105 13.6206 24.7967 13.4327 24.6645C13.1453 24.4626 12.8432 24.2938 12.5043 24.1836C11.9296 24.0001 11.4985 23.6037 11.0748 23.1999C10.979 23.1081 10.8906 23.0053 10.7838 22.8915C10.4411 23.1448 10.1169 23.3907 9.78533 23.6257C9.48322 23.8386 9.17743 24.0441 8.86795 24.2497C8.59532 24.4333 8.32637 24.6315 8.039 24.7856C7.66321 24.9875 7.26531 25.1491 6.88215 25.3363C6.42899 25.5565 5.97951 25.7878 5.52635 26.0154C5.43793 26.0594 4.90372 26.1585 4.81161 26.1292C4.76003 26.1145 4.7195 26.0594 4.67529 26.0227C4.77477 25.6703 4.97372 25.3987 5.2353 25.1491C5.71793 24.6975 6.16741 24.213 6.65373 23.7652C7.47163 23.0163 8.30427 22.2858 9.12953 21.5443C9.27322 21.4159 9.40954 21.28 9.54217 21.1552C9.07795 20.1568 8.77216 19.1436 8.61006 18.0681C8.19742 18.0204 7.79216 17.9727 7.38689 17.9323C7.01847 17.8956 6.64636 17.8956 6.29636 17.7524C6.24478 17.7304 6.18215 17.7194 6.12688 17.7194C5.26846 17.7194 4.42477 17.5101 3.56265 17.5835C3.42634 17.5946 3.28265 17.6056 3.1537 17.5689C2.67107 17.4257 2.18844 17.5211 1.7058 17.5432C1.47369 17.5542 1.2379 17.5725 1.0058 17.5799C0.534214 17.5982 0.221054 17.3633 0 16.8824C0.158422 16.8017 0.316844 16.7172 0.475266 16.6328C0.449477 16.5998 0.420003 16.5667 0.394213 16.5374C0.935796 16.497 1.48106 16.4529 2.02264 16.4126C2.56791 16.3759 3.11318 16.3685 3.65476 16.3061C4.21476 16.24 4.77845 16.2107 5.33846 16.1813C5.88004 16.1519 6.44004 16.1593 6.95952 16.0235C7.49373 15.884 8.05374 16.0565 8.59163 15.8216C8.60637 15.5976 8.62479 15.3884 8.62848 15.1755C8.63953 14.7827 8.75374 14.4193 8.87164 14.0449C9.16638 13.1125 9.64901 12.2682 10.0911 11.4056C10.2127 11.1707 10.4264 10.9835 10.6069 10.7779C10.7064 10.6641 10.8206 10.5576 10.9422 10.4365C10.769 10.2016 10.5959 9.99234 10.4485 9.76843C10.0101 9.10401 9.56427 8.44327 9.15532 7.7605C8.82374 7.20988 8.70585 6.58217 8.58058 5.96181C8.65427 5.91409 8.70585 5.88472 8.79058 5.83333C9.2548 6.13067 9.6048 6.5785 10.0211 6.94191C10.4559 7.32368 10.828 7.78252 11.2222 8.20834C11.6017 8.61947 11.9774 9.03427 12.3717 9.46375C12.5153 9.41236 12.6443 9.37565 12.7622 9.32059C13.0275 9.19945 13.2927 9.07832 13.5469 8.93515C14.3501 8.48365 15.2269 8.3515 16.1259 8.28542C16.1812 8.28175 16.2327 8.2634 16.3138 8.24504C16.3248 8.09087 16.3506 7.9367 16.3433 7.7862C16.3175 7.27963 16.3396 6.7804 16.4133 6.2775C16.4685 5.89574 16.4501 5.50296 16.4943 5.11753C16.5901 4.25122 16.708 3.38858 16.8112 2.52227C16.8333 2.33139 16.8517 2.13317 16.8333 1.94229C16.7743 1.36965 16.918 0.830038 17.0506 0.28309C17.0985 0.0775253 17.2164 -0.00690296 17.4559 0.000438634C17.478 0.0885377 17.5149 0.176637 17.5149 0.264736C17.5149 0.672194 17.5664 1.07231 17.6917 1.46142C17.7212 1.55319 17.7212 1.6523 17.7359 1.74774C17.7801 2.05241 17.8317 2.35709 17.8722 2.66544C17.9275 3.10226 17.9422 3.54276 17.9312 3.98692C17.9238 4.37236 17.9385 4.7688 18.038 5.13955C18.2185 5.80764 18.1743 6.47939 18.1928 7.15115C18.2038 7.55494 18.1449 7.96239 18.237 8.39922C18.4101 8.42124 18.5796 8.45428 18.7528 8.46162C19.4159 8.48732 20.068 8.5901 20.7165 8.72225C20.9043 8.75896 21.0886 8.83237 21.258 8.92414C21.7186 9.17376 22.1607 9.44907 22.5328 9.8345C22.8238 10.1392 23.1665 10.3925 23.5017 10.6751C23.9512 10.3961 24.3454 10.0878 24.7433 9.78311C25.237 9.40502 25.7381 9.03427 26.2354 8.66719C26.3128 8.60845 26.4012 8.56073 26.4896 8.5277C27.0128 8.33314 27.5028 8.04682 28.1033 7.92936C28.1623 8.04315 28.2286 8.17163 28.2986 8.31112C28.1218 8.54238 27.9744 8.76997 27.7939 8.96819C27.4144 9.38299 27.0202 9.78678 26.6333 10.1942C26.1286 10.7302 25.6239 11.2661 25.1191 11.8057C25.0675 11.8608 25.027 11.9269 25.0012 11.9599C25.1228 12.4811 25.237 12.9657 25.3549 13.4539C25.3917 13.6044 25.4175 13.7623 25.4875 13.8981C25.7933 14.4854 25.8707 15.1094 25.8228 15.7592C25.8154 15.8693 25.8339 15.9831 25.8412 16.1299C26.357 16.218 26.8581 16.2731 27.3591 16.3245C27.9007 16.3795 28.4423 16.4309 28.9876 16.4786C29.2602 16.5007 29.5328 16.5337 29.8055 16.5227C30.4907 16.5007 31.1649 16.5667 31.8428 16.6438C32.1118 16.6732 32.3734 16.7503 32.6386 16.82C32.8928 16.8861 33.0439 17.0439 32.9886 17.3596C32.9665 17.3706 32.9223 17.422 32.8744 17.422C32.4286 17.4367 32.0013 17.5946 31.5481 17.5432C31.3786 17.5248 31.1981 17.5542 31.0249 17.5799C30.5681 17.646 30.1149 17.7304 29.6581 17.7965C29.5439 17.8148 29.426 17.7891 29.3081 17.7928C29.076 17.8038 28.8476 17.8111 28.6302 17.9213C28.3097 18.0791 27.9486 18.0608 27.5986 18.0644C27.0165 18.0681 26.4344 18.1011 25.8523 18.2259C25.8154 18.3214 25.7639 18.4058 25.7491 18.4976C25.6349 19.3162 25.2996 20.054 24.9202 20.7771C24.7581 21.0855 24.5296 21.3498 24.2791 21.5994C23.7965 22.0766 23.3286 22.5722 22.8533 23.0604C22.8275 23.0861 22.8165 23.1264 22.7759 23.1999C22.8165 23.2769 22.8717 23.3724 22.9233 23.4715C23.2807 24.1579 23.638 24.8444 23.9954 25.5345C24.2386 26.0007 24.4633 26.4779 24.8023 26.878C25.1707 27.3148 25.3475 27.8581 25.6386 28.339C25.6902 28.4234 25.6717 28.5629 25.6496 28.6693C25.6165 28.7428 25.5281 28.7831 25.4617 28.8455ZM20.1564 12.2719C20.3591 12.2389 20.4328 12.07 20.5101 11.9195C20.6501 11.6515 20.8491 11.457 21.1254 11.3359C21.1807 11.4533 21.2544 11.5634 21.2838 11.6846C21.317 11.8167 21.317 11.9562 21.3354 12.1508C21.6228 11.9489 21.8659 11.7727 22.1054 11.6075C22.0759 11.5304 22.0723 11.4827 22.0465 11.4607C21.6375 11.1083 21.2728 10.7008 20.7791 10.4549C20.7128 10.4218 20.6686 10.3521 20.6133 10.3007C20.5101 10.2566 20.3996 10.2199 20.3001 10.1649C19.7954 9.89323 19.2575 9.75007 18.6938 9.69134C18.5685 9.67666 18.4359 9.70969 18.3291 9.7207C18.2443 9.91159 18.2849 10.0584 18.3254 10.2089C18.4285 10.6127 18.5612 11.0165 18.5022 11.446C18.4949 11.5084 18.5722 11.5818 18.6312 11.6883C18.7012 11.424 18.7417 11.2147 18.8117 11.0165C18.8596 10.8733 18.9443 10.7412 19.0217 10.609C19.1028 10.4732 19.228 10.4695 19.3975 10.5209C19.368 10.6861 19.3385 10.833 19.3238 10.9798C19.3054 11.1413 19.3312 11.2918 19.4933 11.3799H19.4896C19.4601 11.4166 19.4196 11.4533 19.4012 11.4937C19.3717 11.5561 19.3607 11.6295 19.3422 11.6956C19.3422 11.7213 19.3459 11.747 19.3459 11.7727C19.3496 11.7433 19.3533 11.7176 19.357 11.6883C19.5117 11.7066 19.5338 11.5634 19.5891 11.479C19.7622 11.2074 19.9354 10.9284 20.0864 10.6421C20.2043 10.4145 20.3738 10.2933 20.6243 10.3007C20.5507 10.587 20.3775 10.8697 20.5875 11.1743C20.6096 11.2037 20.5801 11.2918 20.547 11.3359C20.3738 11.5598 20.337 11.8314 20.2596 12.0884C20.2375 12.1581 20.1859 12.2168 20.1528 12.2829C20.1712 12.3086 20.1896 12.3306 20.208 12.3563C20.1933 12.36 20.1749 12.36 20.1601 12.3637C20.1528 12.3306 20.1528 12.3013 20.1564 12.2719ZM15.249 21.8564C15.179 21.849 15.0759 21.8123 15.0501 21.8417C14.9469 21.9555 14.8512 22.0803 14.7811 22.2161C14.6706 22.429 14.5159 22.5905 14.3022 22.7227C14.258 22.6492 14.2175 22.5868 14.1696 22.5098C14.1033 22.5318 14.0332 22.5648 13.9596 22.5758C13.8932 22.5868 13.8196 22.5795 13.7164 22.5795C13.768 22.407 13.8232 22.2822 13.8417 22.1537C13.8527 22.0693 13.849 21.9555 13.6722 21.9334C13.4769 22.2968 13.2043 22.5832 12.6885 22.5465C12.7438 22.4253 12.7769 22.3372 12.8211 22.2565C12.8764 22.1537 12.9317 22.0509 13.0017 21.9591C13.1196 21.805 13.2485 21.6581 13.3664 21.5076C13.4143 21.4452 13.4475 21.3791 13.348 21.2984C13.289 21.3278 13.2117 21.3498 13.1601 21.3975C13.0385 21.515 12.9575 21.6214 12.729 21.5994C12.5006 21.5774 12.1322 21.9151 11.948 22.1537C12.1174 22.3886 12.3385 22.6125 12.6075 22.6749C12.9611 22.7557 13.1859 22.9539 13.3885 23.2182C13.4585 23.31 13.5396 23.4054 13.639 23.4568C13.978 23.644 14.328 23.8129 14.6743 23.9891C14.7406 24.0221 14.8106 24.0441 14.9212 24.0919C14.9285 23.8716 14.9396 23.7064 14.9322 23.5376C14.9101 22.9502 15.0169 22.3886 15.2306 21.838C15.2306 21.7646 15.2306 21.6912 15.2306 21.6178C15.2085 21.6214 15.1901 21.6251 15.168 21.6288C15.1975 21.7095 15.2233 21.7829 15.249 21.8564ZM11.7085 11.7947C11.4727 12.1177 11.2701 12.3527 11.1153 12.6206C10.699 13.3438 10.3343 14.0926 10.0653 14.8855C9.97691 15.1461 9.9548 15.4068 10.0027 15.7041C10.4374 15.638 10.828 15.5206 11.189 15.3077C11.1559 15.2379 11.1448 15.1975 11.1227 15.1718C11.0417 15.0691 10.898 14.9993 10.9495 14.8305C11.0122 14.6396 11.1927 14.5919 11.3511 14.5294C11.399 14.5111 11.4653 14.5331 11.5243 14.5405C11.7932 14.5698 12.0585 14.5955 12.3311 14.6249C12.2538 14.3753 12.1801 14.122 11.8817 14.0009C11.7638 13.9531 11.6606 13.8393 11.5832 13.7329C11.5132 13.6338 11.5132 13.509 11.6532 13.4429C12.1727 13.4869 12.5853 13.7769 13.0348 14.0779C13.0643 13.7402 12.928 13.5163 12.7143 13.3364C12.4785 13.1382 12.2796 12.8959 11.9811 12.7711C11.8264 12.7051 11.7638 12.5619 11.7969 12.3857C11.8817 12.3637 11.9664 12.338 12.0917 12.3049C11.9664 12.1398 11.8632 12.0039 11.7085 11.7947ZM22.6801 15.6968C22.6875 15.7371 22.6949 15.7775 22.7023 15.8179C23.0265 15.8362 23.3544 15.8619 23.6786 15.873C24.0175 15.884 24.3528 15.9941 24.7396 15.9611C24.6954 15.8106 24.6623 15.7041 24.6365 15.594C24.5923 15.4068 24.5259 15.2196 24.5186 15.0287C24.5038 14.7424 24.5554 14.445 24.2349 14.2688C24.2054 14.2541 24.2349 14.155 24.2128 14.1073C24.0949 13.832 23.9991 13.5383 23.697 13.3548C23.4944 13.4723 23.3323 13.6117 23.1886 13.7916C23.3433 13.8871 23.4796 13.5714 23.6049 13.8173C23.5607 14.133 23.358 14.3239 23.1075 14.4891C22.6175 14.8048 22.1423 15.1425 21.6007 15.3701C21.5159 15.4068 21.4238 15.4582 21.5086 15.6197C22.1975 15.4839 22.9012 15.3737 23.5496 14.8965C23.5496 15.025 23.5791 15.1241 23.5459 15.1498C23.4023 15.2746 23.2438 15.3921 23.0817 15.4912C22.9565 15.5793 22.8128 15.6307 22.6801 15.6968ZM22.0465 21.9408C22.9454 21.3388 24.2238 19.1767 24.1723 18.3287C23.487 18.281 23.1775 18.3287 22.8644 18.538C23.008 18.7252 23.1407 18.9014 23.4207 18.8904C23.5754 18.883 23.6528 19.0041 23.6417 19.195C23.4096 19.2501 23.1738 19.3088 22.9417 19.3676C22.9528 19.4777 22.9638 19.5731 22.9712 19.6575C22.8496 19.786 22.7354 19.9035 22.588 20.0613C22.728 20.1164 22.8165 20.1421 22.8938 20.1898C22.938 20.2155 22.9823 20.2742 22.9823 20.3183C22.9823 20.3623 22.9344 20.4174 22.8938 20.4504C22.7759 20.5459 22.6323 20.5349 22.5033 20.4871C22.2491 20.3954 22.0022 20.2853 21.748 20.1935C21.6744 20.1678 21.5859 20.1751 21.457 20.1641C21.6486 20.5422 22.0354 20.6413 22.2233 20.968C22.0759 21.1589 21.9286 21.3461 21.7665 21.5553C21.8512 21.6728 21.9396 21.7939 22.0465 21.9408ZM10.6511 20.3256C11.119 19.9732 11.4506 19.6098 11.9222 19.1914C11.609 19.2684 11.4248 19.3272 11.2406 19.3529C11.1374 19.3676 11.0011 19.3786 10.968 19.2207C11.038 18.9014 11.4285 19.0592 11.5464 18.839C11.5353 18.6885 11.5206 18.5526 11.5095 18.4205C11.189 18.4315 11.1927 18.4168 10.8243 18.292C10.5738 18.2076 10.3195 18.0975 10.0359 18.2002C10.0248 18.2663 9.99901 18.325 10.0137 18.3728C10.2201 18.9931 10.3674 19.6319 10.6511 20.3256ZM19.0107 23.0604C18.8522 23.2035 18.7417 23.3063 18.6091 23.4238C18.4912 23.288 18.3843 23.1595 18.2738 23.0273C18.1891 23.1632 18.1117 23.2843 18.0159 23.4385C17.9275 23.299 17.8685 23.2072 17.7727 23.053C17.758 23.5009 17.7359 23.8863 17.7912 24.2644C18.5833 24.3121 19.0659 24.1469 19.4307 23.7101C19.3017 23.5119 19.1691 23.3026 19.0107 23.0604ZM14.6559 11.8167C14.5785 11.3028 14.1806 11.1193 13.989 10.7155C14.129 10.7375 14.2138 10.7265 14.2617 10.7632C14.4569 10.9211 14.6375 11.0973 14.8217 11.2661C14.888 11.3248 14.9248 11.4313 15.0759 11.3799C15.0833 11.2367 15.0906 11.0862 15.1017 10.9357C15.1127 10.7632 15.1201 10.5907 15.1459 10.4182C15.168 10.2787 15.2122 10.1428 15.249 9.99969C14.549 9.97766 14.0332 10.2787 13.5396 10.7228C13.8932 11.0716 14.2359 11.4056 14.6559 11.8167ZM20.1933 23.4018C19.9575 23.1264 19.7807 22.7814 19.4122 22.5538C19.3754 22.8805 19.4675 23.1338 19.5891 23.3724C19.637 23.4678 19.7328 23.5633 19.8286 23.6C19.9649 23.644 20.0864 23.5669 20.1933 23.4018ZM15.6359 24.2093C15.5917 23.8606 15.5585 23.578 15.5217 23.2916C15.518 23.2733 15.5106 23.2513 15.4959 23.2402C15.4848 23.2329 15.4627 23.2366 15.4038 23.2329C15.2048 23.5449 15.1606 23.8716 15.3375 24.2387C15.4296 24.2314 15.5033 24.224 15.6359 24.2093ZM15.8348 10.5833C16.0154 10.2273 16.0817 9.88222 15.9601 9.77577C15.8827 9.78311 15.7759 9.79779 15.6469 9.8088C15.6543 10.1025 15.5327 10.3888 15.8348 10.5833ZM22.2344 19.1179C22.4554 19.3749 22.4554 19.3749 22.6691 19.2391C22.507 19.195 22.3707 19.1583 22.2344 19.1179ZM19.9428 13.1309C19.8654 13.0832 19.8322 13.0501 19.8138 13.0538C19.7843 13.0648 19.7549 13.1015 19.7512 13.1309C19.7475 13.1566 19.777 13.1896 19.788 13.219C19.8359 13.1933 19.8838 13.1639 19.9428 13.1309Z" fill="#E67803"/>
</svg>
