<svg width="31" height="31" viewBox="0 0 31 31" fill="none" xmlns="http://www.w3.org/2000/svg">
<path fill-rule="evenodd" clip-rule="evenodd" d="M16.7021 0C17.0263 0.238266 17.2127 0.376013 17.4401 0.543544C17.4401 0.770641 17.4363 1.00891 17.4401 1.24717C17.4512 2.33426 17.496 3.4139 17.7271 4.49354C17.9805 5.67742 18.111 6.88364 18.3048 8.08242C18.4129 8.73765 18.6813 9.3147 19.1658 9.78751C19.71 10.3199 20.1051 10.3794 20.8021 10.0444C21.7078 9.60881 22.621 9.1844 23.5417 8.7786C23.6609 8.72276 23.9032 8.74882 23.9815 8.83817C24.1045 8.97219 24.2461 9.22907 24.1939 9.36682C24.0188 9.8508 23.8436 10.3683 23.359 10.6512C22.4272 11.1985 21.9836 12.092 21.6407 13.0488C21.4879 13.4769 21.6184 13.7561 22.0246 13.9423C22.3154 14.0763 22.6285 14.1694 22.9378 14.2662C24.8462 14.8655 26.8142 15.1075 28.8009 15.182C29.5203 15.2118 30.1241 15.491 30.7503 15.7479C30.8695 15.7963 30.8994 16.068 31 16.3138C30.6198 16.418 30.3216 16.5483 30.0123 16.5781C28.8493 16.6898 27.6715 16.7047 26.516 16.8759C25.04 17.0918 23.5789 17.4195 22.1141 17.7136C21.883 17.762 21.6631 17.8848 21.4618 17.963C20.8394 19.3144 21.4395 20.327 22.2222 21.3062C22.5465 21.712 22.8707 22.1252 23.1391 22.5682C23.2174 22.6948 23.154 22.9666 23.0646 23.1192C22.949 23.3203 22.6956 23.2942 22.5204 23.1937C22.2483 23.0299 22.006 22.8214 21.7563 22.6241C21.1525 22.1513 20.5635 21.6636 19.9485 21.2019C19.6615 20.986 19.3484 21.0121 19.0465 21.2168C18.2191 21.7753 17.5966 22.4789 17.2649 23.4468C16.758 24.9323 16.7393 26.4661 16.7319 27.9999C16.7281 28.7296 16.7505 29.4593 16.7244 30.1853C16.6983 31.0304 16.5082 31.1346 15.5093 30.874C15.3341 30.3938 15.3938 29.8651 15.3863 29.3514C15.3789 28.7855 15.405 28.2196 15.4385 27.6574C15.5205 26.2651 15.3043 24.9211 14.8719 23.5995C14.6707 22.9852 14.4992 22.356 14.2644 21.7566C14.1079 21.3471 13.8618 20.9711 13.6755 20.6137C13.2357 20.4983 12.889 20.5541 12.5834 20.7887C12.0392 21.2094 11.4987 21.6338 10.9732 22.0694C10.6005 22.3784 10.2725 22.7506 9.87363 23.0187C9.65745 23.1639 9.33317 23.2123 9.06853 23.1862C8.86353 23.1676 8.68089 22.9591 8.41998 22.7953C8.85981 22.2816 9.19153 21.7976 9.63881 21.3881C10.6638 20.4462 11.2378 19.2884 11.2043 17.8588C10.4104 17.3673 9.5419 17.3264 8.71444 17.1961C7.55898 17.0137 6.3886 16.969 5.2145 16.9578C4.01058 16.9466 2.80293 16.7977 1.60647 16.6302C1.10701 16.5595 0.626187 16.3026 0.164001 16.0792C0.0596369 16.0308 0.0596369 15.7628 0 15.5506C1.49838 15.3607 2.89612 15.1597 4.30131 15.007C6.27306 14.7911 8.22616 14.4858 10.142 13.9572C10.2985 13.9125 10.4514 13.8604 10.6005 13.8008C10.9844 13.6407 11.1596 13.3429 11.0589 12.9371C10.9806 12.6244 10.9024 12.293 10.7346 12.025C10.2277 11.2059 9.91836 10.2603 9.18035 9.58647C9.06108 9.47851 8.9679 9.34076 8.8859 9.20301C8.82626 9.10249 8.79271 8.98336 8.7778 8.86795C8.77035 8.79722 8.80017 8.70042 8.8449 8.64458C8.91571 8.5515 9.01262 8.47705 9.14308 8.35791C9.54936 8.50683 9.88854 8.76743 10.2315 9.04293C10.7384 9.445 11.2751 9.80612 11.8081 10.1747C11.9721 10.2901 12.1547 10.3832 12.3411 10.4651C13.2096 10.8374 13.6792 10.7182 14.1936 9.90664C14.5179 9.3966 14.7713 8.84189 15.0099 8.28345C15.349 7.49792 15.4534 6.6491 15.5652 5.80773C15.733 4.52332 15.8485 3.2352 16.0349 1.95452C16.1355 1.32535 16.3778 0.725966 16.7021 0Z" fill="#E67803"/>
</svg>
