<svg width="79" height="74" viewBox="0 0 79 74" fill="none" xmlns="http://www.w3.org/2000/svg">
<path fill-rule="evenodd" clip-rule="evenodd" d="M26.2165 15.2471C26.5811 15.3819 26.8736 15.5202 27.1798 15.5963C28.0055 15.7968 28.7934 16.101 29.5778 16.4295C29.9528 16.585 30.3416 16.7337 30.7372 16.8236C32.1134 17.1382 33.4277 17.5911 34.6009 18.407C34.7144 18.4865 34.8624 18.5211 35 18.5764C34.9656 19.0016 34.742 19.2402 34.3842 19.3716C34.0263 19.4995 33.672 19.6516 33.3038 19.7311C32.0997 19.987 30.9402 20.3845 29.7774 20.7752C29.0342 21.0276 28.2979 21.3042 27.5032 21.5877C27.5307 21.7398 27.5342 21.8781 27.5789 22.0025C27.9057 22.8807 28.2395 23.7519 28.6523 24.5954C29.1512 25.6188 29.6225 26.6663 30.0079 27.7415C30.2521 28.4226 30.3209 29.1659 30.4517 29.885C30.5136 30.2273 30.5308 30.5799 30.5927 30.9256C30.6753 31.3889 30.7716 31.8487 30.6994 32.3224C30.6512 32.6508 30.3554 32.7822 30.1283 32.5575C28.7796 31.2402 27.2073 30.2204 25.666 29.1625C25.4251 28.9965 25.2222 28.7822 24.9985 28.5955C24.4343 28.1322 23.8666 27.6689 23.2989 27.2126C23.237 27.1642 23.1407 27.1573 22.9996 27.1123C22.9136 27.2886 22.8104 27.458 22.7485 27.6378C22.4388 28.5194 22.1705 29.4217 21.823 30.2895C21.4514 31.216 21.0798 32.1391 20.7633 33.0864C20.691 33.3077 20.5913 33.5255 20.4674 33.7191C20.1646 34.1927 19.9376 34.7009 19.7896 35.2368C19.6692 35.6793 19.4731 36.0423 19.0603 36.2774C18.9433 36.3431 18.8745 36.4952 18.7747 36.5955C18.6336 36.7372 18.4857 36.8686 18.3446 37C18.0763 36.8513 17.8664 36.7165 17.7838 36.4434C17.6806 36.108 17.5292 35.7865 17.4501 35.4442C17.1095 34.0164 16.8136 32.5817 16.4524 31.1607C16.2631 30.4209 16.1909 29.6638 16.0636 28.9135C15.9673 28.3362 15.9088 27.7519 15.8262 27.1711C15.809 27.0605 15.7574 26.9567 15.6989 26.7873C15.5131 26.8911 15.3549 26.9533 15.231 27.0535C13.6553 28.3189 12.0864 29.5911 10.5107 30.853C10.3077 31.0155 10.0703 31.1365 9.85009 31.2748C9.50604 31.4926 9.15856 31.7035 8.82139 31.9282C8.43262 32.191 8.04728 32.4295 7.53809 32.3155C7.3179 32.267 7.07707 32.2912 6.84655 32.2774C6.81903 32.274 6.79495 32.2498 6.76742 32.229C6.64701 31.9559 6.7571 31.7035 6.88784 31.4823C7.20436 30.9464 7.32822 30.3414 7.56906 29.7778C7.8787 29.0656 8.04384 28.2981 8.37757 27.5998C8.62872 27.0708 8.90396 26.5557 9.1792 26.0371C9.24801 25.9092 9.33402 25.7847 9.43379 25.6845C10.0531 25.0656 10.3696 24.2774 10.6792 23.4857C10.7412 23.3301 10.7412 23.1503 10.779 22.9463C10.6208 22.8772 10.4969 22.7942 10.3627 22.7666C9.04502 22.5004 7.74108 22.1788 6.44746 21.8124C5.94171 21.6672 5.42564 21.5393 4.90956 21.477C3.37855 21.3007 1.95419 20.8029 0.591762 20.1045C0.412858 20.0112 0.227072 19.9316 0 19.821C0.0756906 19.6827 0.110095 19.5064 0.206429 19.458C1.45532 18.8184 2.69734 18.1546 4.05977 17.7916C4.51047 17.6706 4.97837 17.6084 5.44284 17.5669C6.9016 17.4424 8.3294 17.1382 9.76752 16.872C9.96363 16.834 10.146 16.7406 10.373 16.6576C10.3008 16.4018 10.2629 16.1702 10.1701 15.9627C9.60582 14.7078 9.00718 13.4701 8.46358 12.2047C7.7686 10.5937 7.09427 8.96875 6.44402 7.33694C6.20663 6.74575 6.06213 6.11999 5.88322 5.53918C6.00708 5.2626 6.18598 5.20037 6.39585 5.3352C6.90848 5.67055 7.40391 6.04048 7.92342 6.36891C9.88106 7.61352 11.5944 9.1831 13.4798 10.5211C13.8858 10.808 14.2745 11.1088 14.6048 11.4856C14.6771 11.5686 14.7906 11.6101 14.911 11.6861C15.692 10.3413 16.3457 8.9895 16.7827 7.50634C17.2024 6.08196 17.8182 4.7129 18.5958 3.43026C18.6852 3.2816 18.8229 3.13294 18.8435 2.97045C18.9467 2.24098 19.4181 1.69819 19.7621 1.02749C19.941 1.02403 20.1578 0.965257 20.3264 1.03094C20.4605 1.0828 20.5775 1.26949 20.636 1.42507C20.8734 2.01971 21.1624 2.60053 21.1762 3.26777C21.1796 3.49941 21.2518 3.73104 21.3172 3.95576C21.8023 5.60486 21.8642 7.30928 21.9915 9.00678C22.0122 9.30065 22.0122 9.59451 22.0535 9.88492C22.1188 10.3378 22.2117 10.7907 22.3081 11.3335C22.4698 11.1987 22.5833 11.1226 22.6762 11.0258C23.1269 10.5625 23.6017 10.1338 24.1384 9.76737C24.4274 9.57031 24.6889 9.33176 24.9572 9.10358C25.3391 8.78552 25.6866 8.42942 26.1545 8.22199C26.3369 8.13902 26.4951 7.99381 26.6568 7.87281C27.3381 7.37151 28.0089 6.84601 28.7074 6.37237C29.017 6.16148 29.3783 6.01973 29.7361 5.90219C30.0664 5.79155 30.4207 5.7639 30.7613 5.67747C30.9196 5.63944 31.0744 5.62907 31.1398 5.77773C31.1914 5.89527 31.1639 6.05085 31.157 6.19259C31.1535 6.24791 31.1157 6.30323 31.0916 6.35508C30.5893 7.31619 30.0836 8.27731 29.5812 9.23842C29.5124 9.36633 29.4539 9.50117 29.3955 9.636C29.0824 10.3689 28.6798 11.0431 28.2532 11.7138C27.6236 12.706 27.0456 13.7259 26.4504 14.7389C26.3713 14.8599 26.3265 14.9982 26.2165 15.2471Z" fill="#231F20"/>
<path fill-rule="evenodd" clip-rule="evenodd" d="M48.2165 52.2471C48.5811 52.3819 48.8736 52.5202 49.1798 52.5963C50.0055 52.7968 50.7934 53.101 51.5778 53.4295C51.9528 53.585 52.3416 53.7337 52.7372 53.8236C54.1134 54.1382 55.4277 54.5911 56.6009 55.407C56.7144 55.4865 56.8624 55.5211 57 55.5764C56.9656 56.0016 56.742 56.2402 56.3842 56.3716C56.0263 56.4995 55.672 56.6516 55.3038 56.7311C54.0997 56.987 52.9402 57.3845 51.7774 57.7752C51.0342 58.0276 50.2979 58.3042 49.5032 58.5877C49.5307 58.7398 49.5342 58.8781 49.5789 59.0025C49.9057 59.8807 50.2395 60.7519 50.6523 61.5954C51.1512 62.6188 51.6225 63.6663 52.0079 64.7415C52.2521 65.4226 52.3209 66.1659 52.4517 66.885C52.5136 67.2273 52.5308 67.5799 52.5927 67.9256C52.6753 68.3889 52.7716 68.8487 52.6994 69.3224C52.6512 69.6508 52.3554 69.7822 52.1283 69.5575C50.7796 68.2402 49.2073 67.2204 47.666 66.1625C47.4251 65.9965 47.2222 65.7822 46.9985 65.5955C46.4343 65.1322 45.8666 64.6689 45.2989 64.2126C45.237 64.1642 45.1407 64.1573 44.9996 64.1123C44.9136 64.2886 44.8104 64.458 44.7485 64.6378C44.4388 65.5194 44.1705 66.4217 43.823 67.2895C43.4514 68.216 43.0798 69.1391 42.7633 70.0864C42.691 70.3077 42.5913 70.5255 42.4674 70.7191C42.1646 71.1927 41.9376 71.7009 41.7896 72.2368C41.6692 72.6793 41.4731 73.0423 41.0603 73.2774C40.9433 73.3431 40.8745 73.4952 40.7747 73.5955C40.6336 73.7372 40.4857 73.8686 40.3446 74C40.0763 73.8513 39.8664 73.7165 39.7838 73.4434C39.6806 73.108 39.5292 72.7865 39.4501 72.4442C39.1095 71.0164 38.8136 69.5817 38.4524 68.1607C38.2631 67.4209 38.1909 66.6638 38.0636 65.9135C37.9673 65.3362 37.9088 64.7519 37.8262 64.1711C37.809 64.0605 37.7574 63.9567 37.6989 63.7873C37.5131 63.8911 37.3549 63.9533 37.231 64.0535C35.6553 65.3189 34.0864 66.5911 32.5107 67.853C32.3077 68.0155 32.0703 68.1365 31.8501 68.2748C31.506 68.4926 31.1586 68.7035 30.8214 68.9282C30.4326 69.191 30.0473 69.4295 29.5381 69.3155C29.3179 69.267 29.0771 69.2912 28.8466 69.2774C28.819 69.274 28.7949 69.2498 28.7674 69.229C28.647 68.9559 28.7571 68.7035 28.8878 68.4823C29.2044 67.9464 29.3282 67.3414 29.5691 66.7778C29.8787 66.0656 30.0438 65.2981 30.3776 64.5998C30.6287 64.0708 30.904 63.5557 31.1792 63.0371C31.248 62.9092 31.334 62.7847 31.4338 62.6845C32.0531 62.0656 32.3696 61.2774 32.6792 60.4857C32.7412 60.3301 32.7412 60.1503 32.779 59.9463C32.6208 59.8772 32.4969 59.7942 32.3627 59.7666C31.045 59.5004 29.7411 59.1788 28.4475 58.8124C27.9417 58.6672 27.4256 58.5393 26.9096 58.477C25.3786 58.3007 23.9542 57.8029 22.5918 57.1045C22.4129 57.0112 22.2271 56.9316 22 56.821C22.0757 56.6827 22.1101 56.5064 22.2064 56.458C23.4553 55.8184 24.6973 55.1546 26.0598 54.7916C26.5105 54.6706 26.9784 54.6084 27.4428 54.5669C28.9016 54.4424 30.3294 54.1382 31.7675 53.872C31.9636 53.834 32.146 53.7406 32.373 53.6576C32.3008 53.4018 32.2629 53.1702 32.1701 52.9627C31.6058 51.7078 31.0072 50.4701 30.4636 49.2047C29.7686 47.5937 29.0943 45.9688 28.444 44.3369C28.2066 43.7458 28.0621 43.12 27.8832 42.5392C28.0071 42.2626 28.186 42.2004 28.3959 42.3352C28.9085 42.6706 29.4039 43.0405 29.9234 43.3689C31.8811 44.6135 33.5944 46.1831 35.4798 47.5211C35.8858 47.808 36.2745 48.1088 36.6048 48.4856C36.6771 48.5686 36.7906 48.6101 36.911 48.6861C37.692 47.3413 38.3457 45.9895 38.7827 44.5063C39.2024 43.082 39.8182 41.7129 40.5958 40.4303C40.6852 40.2816 40.8229 40.1329 40.8435 39.9705C40.9467 39.241 41.4181 38.6982 41.7621 38.0275C41.941 38.024 42.1578 37.9653 42.3264 38.0309C42.4605 38.0828 42.5775 38.2695 42.636 38.4251C42.8734 39.0197 43.1624 39.6005 43.1762 40.2678C43.1796 40.4994 43.2518 40.731 43.3172 40.9558C43.8023 42.6049 43.8642 44.3093 43.9915 46.0068C44.0122 46.3006 44.0122 46.5945 44.0535 46.8849C44.1188 47.3378 44.2117 47.7907 44.3081 48.3335C44.4698 48.1987 44.5833 48.1226 44.6762 48.0258C45.1269 47.5625 45.6017 47.1338 46.1384 46.7674C46.4274 46.5703 46.6889 46.3318 46.9572 46.1036C47.3391 45.7855 47.6866 45.4294 48.1545 45.222C48.3369 45.139 48.4951 44.9938 48.6568 44.8728C49.3381 44.3715 50.0089 43.846 50.7074 43.3724C51.017 43.1615 51.3783 43.0197 51.7361 42.9022C52.0664 42.7916 52.4207 42.7639 52.7613 42.6775C52.9196 42.6394 53.0744 42.6291 53.1398 42.7777C53.1914 42.8953 53.1639 43.0508 53.157 43.1926C53.1535 43.2479 53.1157 43.3032 53.0916 43.3551C52.5893 44.3162 52.0836 45.2773 51.5812 46.2384C51.5124 46.3663 51.4539 46.5012 51.3955 46.636C51.0824 47.3689 50.6798 48.0431 50.2532 48.7138C49.6236 49.706 49.0456 50.7259 48.4504 51.7389C48.3713 51.8599 48.3265 51.9982 48.2165 52.2471Z" fill="#231F20"/>
<path fill-rule="evenodd" clip-rule="evenodd" d="M70.2165 14.2471C70.5811 14.3819 70.8736 14.5202 71.1798 14.5963C72.0055 14.7968 72.7934 15.101 73.5778 15.4295C73.9528 15.585 74.3416 15.7337 74.7372 15.8236C76.1134 16.1382 77.4277 16.5911 78.6009 17.407C78.7144 17.4865 78.8624 17.5211 79 17.5764C78.9656 18.0016 78.742 18.2402 78.3842 18.3716C78.0263 18.4995 77.672 18.6516 77.3038 18.7311C76.0997 18.987 74.9402 19.3845 73.7774 19.7752C73.0342 20.0276 72.2979 20.3042 71.5032 20.5877C71.5307 20.7398 71.5342 20.8781 71.5789 21.0025C71.9057 21.8807 72.2395 22.7519 72.6523 23.5954C73.1512 24.6188 73.6225 25.6663 74.0079 26.7415C74.2521 27.4226 74.3209 28.1659 74.4517 28.885C74.5136 29.2273 74.5308 29.5799 74.5927 29.9256C74.6753 30.3889 74.7716 30.8487 74.6994 31.3224C74.6512 31.6508 74.3554 31.7822 74.1283 31.5575C72.7796 30.2402 71.2073 29.2204 69.666 28.1625C69.4251 27.9965 69.2222 27.7822 68.9985 27.5955C68.4343 27.1322 67.8666 26.6689 67.2989 26.2126C67.237 26.1642 67.1407 26.1573 66.9996 26.1123C66.9136 26.2886 66.8104 26.458 66.7485 26.6378C66.4388 27.5194 66.1705 28.4217 65.823 29.2895C65.4514 30.216 65.0798 31.1391 64.7633 32.0864C64.691 32.3077 64.5913 32.5255 64.4674 32.7191C64.1646 33.1927 63.9376 33.7009 63.7896 34.2368C63.6692 34.6793 63.4731 35.0423 63.0603 35.2774C62.9433 35.3431 62.8745 35.4952 62.7747 35.5955C62.6336 35.7372 62.4857 35.8686 62.3446 36C62.0763 35.8513 61.8664 35.7165 61.7838 35.4434C61.6806 35.108 61.5292 34.7865 61.4501 34.4442C61.1095 33.0164 60.8136 31.5817 60.4524 30.1607C60.2631 29.4209 60.1909 28.6638 60.0636 27.9135C59.9673 27.3362 59.9088 26.7519 59.8262 26.1711C59.809 26.0605 59.7574 25.9567 59.6989 25.7873C59.5131 25.8911 59.3549 25.9533 59.231 26.0535C57.6553 27.3189 56.0864 28.5911 54.5107 29.853C54.3077 30.0155 54.0703 30.1365 53.8501 30.2748C53.506 30.4926 53.1586 30.7035 52.8214 30.9282C52.4326 31.191 52.0473 31.4295 51.5381 31.3155C51.3179 31.267 51.0771 31.2912 50.8466 31.2774C50.819 31.274 50.7949 31.2498 50.7674 31.229C50.647 30.9559 50.7571 30.7035 50.8878 30.4823C51.2044 29.9464 51.3282 29.3414 51.5691 28.7778C51.8787 28.0656 52.0438 27.2981 52.3776 26.5998C52.6287 26.0708 52.904 25.5557 53.1792 25.0371C53.248 24.9092 53.334 24.7847 53.4338 24.6845C54.0531 24.0656 54.3696 23.2774 54.6792 22.4857C54.7412 22.3301 54.7412 22.1503 54.779 21.9463C54.6208 21.8772 54.4969 21.7942 54.3627 21.7666C53.045 21.5004 51.7411 21.1788 50.4475 20.8124C49.9417 20.6672 49.4256 20.5393 48.9096 20.477C47.3786 20.3007 45.9542 19.8029 44.5918 19.1045C44.4129 19.0112 44.2271 18.9316 44 18.821C44.0757 18.6827 44.1101 18.5064 44.2064 18.458C45.4553 17.8184 46.6973 17.1546 48.0598 16.7916C48.5105 16.6706 48.9784 16.6084 49.4428 16.5669C50.9016 16.4424 52.3294 16.1382 53.7675 15.872C53.9636 15.834 54.146 15.7406 54.373 15.6576C54.3008 15.4018 54.2629 15.1702 54.1701 14.9627C53.6058 13.7078 53.0072 12.4701 52.4636 11.2047C51.7686 9.59365 51.0943 7.96875 50.444 6.33694C50.2066 5.74575 50.0621 5.11999 49.8832 4.53918C50.0071 4.2626 50.186 4.20037 50.3959 4.3352C50.9085 4.67055 51.4039 5.04048 51.9234 5.36891C53.8811 6.61352 55.5944 8.1831 57.4798 9.52105C57.8858 9.808 58.2745 10.1088 58.6048 10.4856C58.6771 10.5686 58.7906 10.6101 58.911 10.6861C59.692 9.34127 60.3457 7.9895 60.7827 6.50634C61.2024 5.08196 61.8182 3.7129 62.5958 2.43026C62.6852 2.2816 62.8229 2.13294 62.8435 1.97045C62.9467 1.24098 63.4181 0.698191 63.7621 0.0274875C63.941 0.0240303 64.1578 -0.0347427 64.3264 0.0309447C64.4605 0.0828032 64.5775 0.269494 64.636 0.425069C64.8734 1.01971 65.1624 1.60053 65.1762 2.26777C65.1796 2.49941 65.2518 2.73104 65.3172 2.95576C65.8023 4.60486 65.8642 6.30928 65.9915 8.00678C66.0122 8.30065 66.0122 8.59451 66.0535 8.88492C66.1188 9.33782 66.2117 9.79071 66.3081 10.3335C66.4698 10.1987 66.5833 10.1226 66.6762 10.0258C67.1269 9.56254 67.6017 9.13384 68.1384 8.76737C68.4274 8.57031 68.6889 8.33176 68.9572 8.10358C69.3391 7.78552 69.6866 7.42942 70.1545 7.22199C70.3369 7.13902 70.4951 6.99381 70.6568 6.87281C71.3381 6.37151 72.0089 5.84601 72.7074 5.37237C73.017 5.16148 73.3783 5.01973 73.7361 4.90219C74.0664 4.79155 74.4207 4.7639 74.7613 4.67747C74.9196 4.63944 75.0744 4.62907 75.1398 4.77773C75.1914 4.89527 75.1639 5.05085 75.157 5.19259C75.1535 5.24791 75.1157 5.30323 75.0916 5.35508C74.5893 6.31619 74.0836 7.27731 73.5812 8.23842C73.5124 8.36633 73.4539 8.50117 73.3955 8.636C73.0824 9.36893 72.6798 10.0431 72.2532 10.7138C71.6236 11.706 71.0456 12.7259 70.4504 13.7389C70.3713 13.8599 70.3265 13.9982 70.2165 14.2471Z" fill="#231F20"/>
</svg>
