<svg width="89" height="74" viewBox="0 0 89 74" fill="none" xmlns="http://www.w3.org/2000/svg">
<path fill-rule="evenodd" clip-rule="evenodd" d="M73.7244 56.7414C73.9119 56.8444 73.6242 73.2353 73.7535 73.274C74.0186 73.3544 74.7977 73.2741 74.6554 56.7414C74.6748 56.6738 74.7104 56.6094 74.7136 56.5418C74.7459 55.4602 74.8041 54.3818 74.7977 53.3003C74.7912 51.4075 74.9464 49.5308 75.2664 47.6638C75.4054 46.8397 75.5218 46.0092 75.6576 45.1852C75.7545 44.5961 75.9259 44.0296 76.2071 43.4952C76.4043 43.125 76.5854 42.7452 76.747 42.3589C77.4097 40.7977 78.5509 39.6099 79.8213 38.5444C80.6069 37.8845 81.5896 37.5497 82.5368 37.1795C83.9172 36.642 85.3913 36.4681 86.8234 36.143C87.3633 36.0207 87.942 36.0625 88.4721 36.0336C88.8374 35.7696 89.0314 35.467 88.9958 35.0196C88.7728 34.7073 88.4172 34.6494 88.0713 34.6494C86.9851 34.6494 85.8956 34.6494 84.8094 34.7041C84.1694 34.7363 83.5584 34.7234 82.9409 34.511C82.4786 34.3533 81.9905 34.2696 81.5088 34.1666C80.7459 34.0024 80.0509 33.703 79.4011 33.2556C78.1532 32.3993 77.1446 31.3435 76.6371 29.9078C76.1489 28.5269 75.5153 27.1846 75.3343 25.707C75.2632 25.118 75.1759 24.5257 75.1694 23.9366C75.1468 22.0824 75.1597 20.2283 75.1597 18.3742C75.1597 18.2679 75.1436 18.1617 75.1597 18.0587C75.2987 17.0769 75.1403 16.1144 74.9949 15.1584C74.9302 15.1133 74.8817 15.0489 74.817 15.0361C74.3709 14.9331 74.1382 15.0457 74.1608 15.4256C74.2061 16.2432 74.0121 17.0158 73.8537 17.8012C73.7632 18.2422 73.7664 18.7025 73.7438 19.1564C73.6888 20.238 73.6436 21.3228 73.5951 22.4043C73.5821 22.649 73.5466 22.8936 73.5595 23.1383C73.6274 24.59 73.3494 25.9967 72.997 27.3906C72.8968 27.7929 72.7416 28.1985 72.5218 28.5462C72.108 29.1932 71.6393 29.808 71.1673 30.4164C70.9087 30.748 70.5951 31.0055 70.136 31.0795C69.7966 31.1343 69.4604 31.2791 69.1501 31.4368C68.2352 31.9068 67.2395 32.1611 66.2471 32.3349C65.3257 32.4959 64.3559 32.5249 63.4216 32.4444C62.2255 32.3446 61.0488 32.2319 59.8559 32.4669C59.413 32.5538 58.9443 32.4927 58.4885 32.5184C58.1878 32.5345 57.9906 32.7277 58.0003 32.953C58.01 33.2041 58.1911 33.4712 58.4238 33.4873C58.8796 33.5195 59.3128 33.6451 59.7557 33.7288C61.6792 34.0925 63.4249 34.9069 65.1447 35.7793C66.0499 36.2396 66.955 36.6999 67.7826 37.3051C68.788 38.0358 69.6059 38.8985 70.3009 39.9447C71.6393 41.9533 72.4216 44.1969 73.2201 46.4309C73.4852 47.1681 73.4496 48.0147 73.5401 48.813C73.5951 49.2958 73.6339 49.7819 73.6791 50.268C73.7082 50.5802 73.7535 50.8957 73.7535 51.2111C73.747 53.0331 73.7341 54.8454 73.7244 56.7414ZM74.2255 45.9738C74.1252 45.6809 74.0412 45.5296 74.0186 45.3654C73.7987 43.9266 73.2136 42.6229 72.5121 41.361C72.2406 40.8717 71.9108 40.4082 71.691 39.8964C71.3354 39.0723 70.7535 38.4188 70.1587 37.7847C68.885 36.4295 67.5208 35.1677 65.8042 34.3629C65.7104 34.3178 65.6199 34.2567 65.5391 34.1923C65.4227 34.0957 65.316 33.9831 65.135 33.8125C65.843 33.7095 66.4378 33.6451 67.0197 33.526C67.9119 33.3457 68.8139 33.1751 69.6802 32.9079C70.7341 32.586 71.6166 31.9487 72.4604 31.2469C73.1263 30.6965 73.6371 30.0527 73.9571 29.2576C74.122 28.852 74.2933 28.4496 74.4808 27.9957C74.5649 28.1438 74.6328 28.2275 74.6651 28.3241C74.9302 29.116 75.1791 29.9143 75.4539 30.7029C75.6834 31.3628 75.9614 31.9969 76.3752 32.5764C77.1608 33.6805 78.3213 34.3661 79.3203 35.2288C79.4496 35.3415 79.6274 35.3962 79.7858 35.4702C80.0702 35.6054 80.3515 35.7503 80.6457 35.8597C80.9496 35.9724 81.2664 36.0432 81.6963 36.1688C80.7815 36.5357 80.0282 36.8963 79.3558 37.4081C77.9948 38.4414 76.8569 39.7064 76.0358 41.1646C75.2405 42.5778 74.4938 44.065 74.3709 45.7453C74.3742 45.7871 74.3386 45.8129 74.2255 45.9738Z" fill="#AE8C25"/>
<path fill-rule="evenodd" clip-rule="evenodd" d="M15.2756 56.7414C15.0881 56.8444 15.3758 73.2353 15.2465 73.274C14.9814 73.3544 14.2023 73.2741 14.3446 56.7414C14.3252 56.6738 14.2896 56.6094 14.2864 56.5418C14.2541 55.4602 14.1959 54.3818 14.2023 53.3003C14.2088 51.4075 14.0536 49.5308 13.7336 47.6638C13.5946 46.8397 13.4782 46.0092 13.3424 45.1852C13.2455 44.5961 13.0741 44.0296 12.7929 43.4952C12.5957 43.125 12.4146 42.7452 12.253 42.3589C11.5903 40.7977 10.4491 39.6099 9.17867 38.5444C8.39312 37.8845 7.41036 37.5497 6.46317 37.1795C5.08279 36.642 3.60866 36.4681 2.17656 36.143C1.63669 36.0207 1.05803 36.0625 0.527864 36.0336C0.162565 35.7696 -0.0314002 35.467 0.00415993 35.0196C0.227219 34.7073 0.582819 34.6494 0.928722 34.6494C2.01492 34.6494 3.10436 34.6494 4.19056 34.7041C4.83064 34.7363 5.44163 34.7234 6.05908 34.511C6.52136 34.3533 7.0095 34.2696 7.49118 34.1666C8.25411 34.0024 8.94915 33.703 9.59893 33.2556C10.8468 32.3993 11.8554 31.3435 12.3629 29.9078C12.8511 28.5269 13.4847 27.1846 13.6657 25.707C13.7368 25.118 13.8241 24.5257 13.8306 23.9366C13.8532 22.0824 13.8403 20.2283 13.8403 18.3742C13.8403 18.2679 13.8564 18.1617 13.8403 18.0587C13.7013 17.0769 13.8597 16.1144 14.0051 15.1584C14.0698 15.1133 14.1183 15.0489 14.183 15.0361C14.6291 14.9331 14.8618 15.0457 14.8392 15.4256C14.7939 16.2432 14.9879 17.0158 15.1463 17.8012C15.2368 18.2422 15.2336 18.7025 15.2562 19.1564C15.3112 20.238 15.3564 21.3228 15.4049 22.4043C15.4179 22.649 15.4534 22.8936 15.4405 23.1383C15.3726 24.59 15.6506 25.9967 16.003 27.3906C16.1032 27.7929 16.2584 28.1985 16.4782 28.5462C16.892 29.1932 17.3607 29.808 17.8327 30.4164C18.0913 30.748 18.4049 31.0055 18.864 31.0795C19.2034 31.1343 19.5396 31.2791 19.8499 31.4368C20.7648 31.9068 21.7605 32.1611 22.7529 32.3349C23.6743 32.4959 24.6441 32.5249 25.5784 32.4444C26.7745 32.3446 27.9512 32.2319 29.1441 32.4669C29.587 32.5538 30.0557 32.4927 30.5115 32.5184C30.8122 32.5345 31.0094 32.7277 30.9997 32.953C30.99 33.2041 30.8089 33.4712 30.5762 33.4873C30.1204 33.5195 29.6872 33.6451 29.2443 33.7288C27.3208 34.0925 25.5751 34.9069 23.8553 35.7793C22.9501 36.2396 22.045 36.6999 21.2174 37.3051C20.212 38.0358 19.3941 38.8985 18.6991 39.9447C17.3607 41.9533 16.5784 44.1969 15.7799 46.4309C15.5148 47.1681 15.5504 48.0147 15.4599 48.813C15.4049 49.2958 15.3661 49.7819 15.3209 50.268C15.2918 50.5802 15.2465 50.8957 15.2465 51.2111C15.253 53.0331 15.2659 54.8454 15.2756 56.7414ZM14.7745 45.9738C14.8748 45.6809 14.9588 45.5296 14.9814 45.3654C15.2013 43.9266 15.7864 42.6229 16.4879 41.361C16.7594 40.8717 17.0892 40.4082 17.309 39.8964C17.6646 39.0723 18.2465 38.4188 18.8413 37.7847C20.115 36.4295 21.4792 35.1677 23.1958 34.3629C23.2896 34.3178 23.3801 34.2567 23.4609 34.1923C23.5773 34.0957 23.684 33.9831 23.865 33.8125C23.157 33.7095 22.5622 33.6451 21.9803 33.526C21.0881 33.3457 20.1861 33.1751 19.3198 32.9079C18.2659 32.586 17.3834 31.9487 16.5396 31.2469C15.8737 30.6965 15.3629 30.0527 15.0429 29.2576C14.878 28.852 14.7067 28.4496 14.5192 27.9957C14.4351 28.1438 14.3672 28.2275 14.3349 28.3241C14.0698 29.116 13.8209 29.9143 13.5461 30.7029C13.3166 31.3628 13.0386 31.9969 12.6248 32.5764C11.8392 33.6805 10.6787 34.3661 9.67975 35.2288C9.55044 35.3415 9.37264 35.3962 9.21423 35.4702C8.92975 35.6054 8.6485 35.7503 8.35432 35.8597C8.05045 35.9724 7.73364 36.0432 7.30368 36.1688C8.21855 36.5357 8.97178 36.8963 9.64419 37.4081C11.0052 38.4414 12.1431 39.7064 12.9642 41.1646C13.7595 42.5778 14.5062 44.065 14.6291 45.7453C14.6258 45.7871 14.6614 45.8129 14.7745 45.9738Z" fill="#AE8C25"/>
<path fill-rule="evenodd" clip-rule="evenodd" d="M47.2756 41.7414C47.0881 41.8444 47.3758 58.2353 47.2465 58.274C46.9814 58.3544 46.2023 58.2741 46.3446 41.7414C46.3252 41.6738 46.2896 41.6094 46.2864 41.5418C46.2541 40.4602 46.1959 39.3818 46.2023 38.3003C46.2088 36.4075 46.0536 34.5308 45.7336 32.6638C45.5946 31.8397 45.4782 31.0092 45.3424 30.1852C45.2455 29.5961 45.0741 29.0296 44.7929 28.4952C44.5957 28.125 44.4146 27.7452 44.253 27.3589C43.5903 25.7977 42.4491 24.6099 41.1787 23.5444C40.3931 22.8845 39.4104 22.5497 38.4632 22.1795C37.0828 21.642 35.6087 21.4681 34.1766 21.143C33.6367 21.0207 33.058 21.0625 32.5279 21.0336C32.1626 20.7696 31.9686 20.467 32.0042 20.0196C32.2272 19.7073 32.5828 19.6494 32.9287 19.6494C34.0149 19.6494 35.1044 19.6494 36.1906 19.7041C36.8306 19.7363 37.4416 19.7234 38.0591 19.511C38.5214 19.3533 39.0095 19.2696 39.4912 19.1666C40.2541 19.0024 40.9491 18.703 41.5989 18.2556C42.8468 17.3993 43.8554 16.3435 44.3629 14.9078C44.8511 13.5269 45.4847 12.1846 45.6657 10.707C45.7368 10.118 45.8241 9.52566 45.8306 8.93659C45.8532 7.08245 45.8403 5.22831 45.8403 3.37416C45.8403 3.26794 45.8564 3.16171 45.8403 3.0587C45.7013 2.07691 45.8597 1.11443 46.0051 0.158386C46.0698 0.11332 46.1183 0.0489439 46.183 0.036068C46.6291 -0.0669399 46.8618 0.0457224 46.8392 0.425564C46.7939 1.24319 46.9879 2.01575 47.1463 2.80119C47.2368 3.24219 47.2336 3.7025 47.2562 4.15638C47.3112 5.23796 47.3564 6.32276 47.4049 7.40435C47.4179 7.64899 47.4534 7.89363 47.4405 8.13828C47.3726 9.59004 47.6506 10.9967 48.003 12.3906C48.1032 12.7929 48.2584 13.1985 48.4782 13.5462C48.892 14.1932 49.3607 14.808 49.8327 15.4164C50.0913 15.748 50.4049 16.0055 50.864 16.0795C51.2034 16.1343 51.5396 16.2791 51.8499 16.4368C52.7648 16.9068 53.7605 17.1611 54.7529 17.3349C55.6743 17.4959 56.6441 17.5249 57.5784 17.4444C58.7745 17.3446 59.9512 17.2319 61.1441 17.4669C61.587 17.5538 62.0557 17.4927 62.5115 17.5184C62.8122 17.5345 63.0094 17.7277 62.9997 17.953C62.99 18.2041 62.8089 18.4712 62.5762 18.4873C62.1204 18.5195 61.6872 18.6451 61.2443 18.7288C59.3208 19.0925 57.5751 19.9069 55.8553 20.7793C54.9501 21.2396 54.045 21.6999 53.2174 22.3051C52.212 23.0358 51.3941 23.8985 50.6991 24.9447C49.3607 26.9533 48.5784 29.1969 47.7799 31.4309C47.5148 32.1681 47.5504 33.0147 47.4599 33.813C47.4049 34.2958 47.3661 34.7819 47.3209 35.268C47.2918 35.5802 47.2465 35.8957 47.2465 36.2111C47.253 38.0331 47.2659 39.8454 47.2756 41.7414ZM46.7745 30.9738C46.8748 30.6809 46.9588 30.5296 46.9814 30.3654C47.2013 28.9266 47.7864 27.6229 48.4879 26.361C48.7594 25.8717 49.0892 25.4082 49.309 24.8964C49.6646 24.0723 50.2465 23.4188 50.8413 22.7847C52.115 21.4295 53.4792 20.1677 55.1958 19.3629C55.2896 19.3178 55.3801 19.2567 55.4609 19.1923C55.5773 19.0957 55.684 18.9831 55.865 18.8125C55.157 18.7095 54.5622 18.6451 53.9803 18.526C53.0881 18.3457 52.1861 18.1751 51.3198 17.9079C50.2659 17.586 49.3834 16.9487 48.5396 16.2469C47.8737 15.6965 47.3629 15.0527 47.0429 14.2576C46.878 13.852 46.7067 13.4496 46.5192 12.9957C46.4351 13.1438 46.3672 13.2275 46.3349 13.3241C46.0698 14.116 45.8209 14.9143 45.5461 15.7029C45.3166 16.3628 45.0386 16.9969 44.6248 17.5764C43.8392 18.6805 42.6787 19.3661 41.6797 20.2288C41.5504 20.3415 41.3726 20.3962 41.2142 20.4702C40.9298 20.6054 40.6485 20.7503 40.3543 20.8597C40.0504 20.9724 39.7336 21.0432 39.3037 21.1688C40.2185 21.5357 40.9718 21.8963 41.6442 22.4081C43.0052 23.4414 44.1431 24.7064 44.9642 26.1646C45.7595 27.5778 46.5062 29.065 46.6291 30.7453C46.6258 30.7871 46.6614 30.8129 46.7745 30.9738Z" fill="#AE8C25"/>
</svg>
