<svg width="31" height="42" viewBox="0 0 31 42" fill="none" xmlns="http://www.w3.org/2000/svg">
<path fill-rule="evenodd" clip-rule="evenodd" d="M15.7244 0.258475C15.9119 0.155468 16.0283 0.0685547 16.1576 0.0299268C16.4227 -0.0505481 16.5843 0.0331458 16.6554 0.258475C16.6748 0.326074 16.7104 0.390454 16.7136 0.458053C16.7459 1.53964 16.8041 2.618 16.7977 3.69958C16.7912 5.59235 16.9464 7.46902 17.2664 9.33604C17.4054 10.1601 17.5218 10.9906 17.6576 11.8147C17.7545 12.4037 17.9259 12.9703 18.2071 13.5046C18.4043 13.8748 18.5854 14.2547 18.747 14.6409C19.4097 16.2022 20.5509 17.39 21.8213 18.4555C22.6069 19.1153 23.5896 19.4501 24.5368 19.8203C25.9172 20.3579 27.3913 20.5317 28.8234 20.8568C29.3633 20.9791 29.942 20.9373 30.4721 20.9663C30.8374 21.2302 31.0314 21.5328 30.9958 21.9803C30.7728 22.2925 30.4172 22.3504 30.0713 22.3504C28.9851 22.3504 27.8956 22.3504 26.8094 22.2957C26.1694 22.2635 25.5584 22.2764 24.9409 22.4889C24.4786 22.6466 23.9905 22.7303 23.5088 22.8333C22.7459 22.9975 22.0509 23.2968 21.4011 23.7443C20.1532 24.6005 19.1446 25.6563 18.6371 27.092C18.1489 28.473 17.5153 29.8153 17.3343 31.2928C17.2632 31.8819 17.1759 32.4742 17.1694 33.0633C17.1468 34.9174 17.1597 36.7715 17.1597 38.6257C17.1597 38.7319 17.1436 38.8381 17.1597 38.9411C17.2987 39.9229 17.1403 40.8854 16.9949 41.8415C16.9302 41.8865 16.8817 41.9509 16.8171 41.9638C16.3709 42.0668 16.1382 41.9541 16.1608 41.5743C16.2061 40.7567 16.0121 39.9841 15.8537 39.1987C15.7632 38.7577 15.7664 38.2973 15.7438 37.8435C15.6888 36.7619 15.6436 35.6771 15.5951 34.5955C15.5821 34.3508 15.5466 34.1062 15.5595 33.8616C15.6274 32.4098 15.3494 31.0031 14.997 29.6093C14.8968 29.2069 14.7416 28.8013 14.5218 28.4537C14.108 27.8066 13.6393 27.1918 13.1673 26.5834C12.9087 26.2519 12.5951 25.9943 12.136 25.9203C11.7966 25.8656 11.4604 25.7207 11.1501 25.563C10.2352 25.093 9.23951 24.8387 8.24706 24.6649C7.32573 24.5039 6.35591 24.475 5.42165 24.5554C4.22553 24.6552 3.04882 24.7679 1.85593 24.5329C1.41305 24.446 0.944302 24.5072 0.488486 24.4814C0.187841 24.4653 -0.00935592 24.2722 0.000342297 24.0468C0.0100405 23.7958 0.191074 23.5286 0.423831 23.5125C0.879647 23.4803 1.31283 23.3548 1.75572 23.2711C3.6792 22.9073 5.42488 22.0929 7.14469 21.2206C8.04986 20.7603 8.95503 20.2999 9.78261 19.6948C10.788 18.9641 11.6059 18.1014 12.3009 17.0552C13.6393 15.0465 14.4216 12.8029 15.2201 10.5689C15.4852 9.83177 15.4496 8.98517 15.5401 8.18686C15.5951 7.70401 15.6339 7.21794 15.6791 6.73187C15.7082 6.41963 15.7535 6.10417 15.7535 5.78871C15.747 3.96676 15.7341 2.15446 15.7244 0.258475ZM16.2255 11.026C16.1252 11.3189 16.0412 11.4702 16.0186 11.6344C15.7987 13.0733 15.2136 14.377 14.5121 15.6388C14.2406 16.1281 13.9108 16.5917 13.691 17.1035C13.3354 17.9275 12.7535 18.581 12.1587 19.2151C10.885 20.5703 9.52076 21.8322 7.80417 22.6369C7.71042 22.682 7.61991 22.7432 7.53909 22.8075C7.42271 22.9041 7.31603 23.0168 7.135 23.1874C7.84297 23.2904 8.43779 23.3548 9.01968 23.4739C9.91192 23.6541 10.8139 23.8247 11.6802 24.0919C12.7341 24.4138 13.6166 25.0512 14.4604 25.7529C15.1263 26.3034 15.6371 26.9472 15.9571 27.7423C16.122 28.1478 16.2933 28.5502 16.4808 29.0041C16.5649 28.856 16.6328 28.7723 16.6651 28.6758C16.9302 27.8839 17.1791 27.0856 17.4539 26.2969C17.6834 25.637 17.9614 25.0029 18.3752 24.4235C19.1608 23.3194 20.3213 22.6337 21.3203 21.771C21.4496 21.6584 21.6274 21.6036 21.7858 21.5296C22.0702 21.3944 22.3515 21.2495 22.6457 21.1401C22.9496 21.0274 23.2664 20.9566 23.6963 20.8311C22.7815 20.4641 22.0282 20.1036 21.3558 19.5918C19.9948 18.5585 18.8569 17.2934 18.0358 15.8352C17.2405 14.4221 16.4938 12.9349 16.3709 11.2546C16.3742 11.2127 16.3386 11.187 16.2255 11.026Z" fill="#0067CF"/>
</svg>
