<svg width="871" height="472" viewBox="0 0 871 472" fill="none" xmlns="http://www.w3.org/2000/svg">
<path fill-rule="evenodd" clip-rule="evenodd" d="M869.463 441.84C867.34 437.135 864.306 432.63 860.969 428.526C846.003 410.006 839.126 388.183 831.946 366.059C824.463 343.134 814.553 320.91 805.047 298.686C802.216 292.079 797.969 285.372 792.71 280.467C777.036 266.151 760.553 251.936 736.587 256.942C720.811 260.245 707.058 266.852 695.53 279.366C667.317 309.798 646.991 345.637 622.62 378.773C614.631 389.684 607.654 401.497 600.676 412.108C588.743 414.911 578.53 417.814 568.215 419.717C544.249 423.921 523.721 414.611 511.181 394.189C501.372 378.072 491.26 361.954 481.957 345.537C471.945 327.818 458.698 313.002 445.046 298.086C435.642 287.775 424.72 282.169 411.574 282.769C370.923 284.671 333.709 293.881 311.866 333.023C302.057 350.542 292.349 368.161 281.226 384.779C272.529 397.793 262.619 410.407 251.293 421.318C238.754 433.431 223.383 440.239 204.776 435.433C196.686 433.331 188.293 432.53 180.708 431.329C158.259 392.687 135.304 356.048 115.382 317.807C104.057 296.084 85.3486 282.669 68.6631 266.852C65.8317 264.149 61.18 262.447 57.135 262.047C33.7754 260.045 13.1461 264.65 0 285.472C11.1236 310.199 27.4046 294.081 45.1013 291.679C56.8316 305.394 69.371 317.106 78.2699 331.121C95.1576 357.85 109.821 385.88 125.394 413.41C130.045 421.619 135.102 429.727 139.551 438.136C150.068 457.457 167.057 466.667 188.293 469.37C195.675 470.271 203.158 470.371 210.54 470.872C236.731 472.573 258.675 463.464 276.271 444.643C287.799 432.33 298.417 419.216 309.237 406.102C320.664 392.187 330.675 377.571 337.855 360.853C347.664 338.129 366.271 324.614 390.844 319.709C404.293 317.006 416.125 318.808 424.215 331.522C430.383 341.332 437.563 350.442 443.934 360.152C457.282 380.374 470.428 400.696 483.575 421.018C493.889 436.935 509.361 445.945 527.058 451.351C557.092 460.46 586.215 454.254 614.328 443.642C626.058 439.238 635.766 430.428 642.137 418.615C650.631 402.798 660.339 387.682 669.137 372.065C684.407 345.036 706.654 323.713 727.89 301.69C738.205 290.978 750.643 292.78 760.957 304.793C765.002 309.498 768.845 314.804 771.373 320.51C779.665 338.629 787.755 356.949 795.036 375.569C799.991 388.283 802.621 401.897 807.474 414.711C814.553 433.631 823.958 451.351 840.239 464.264C848.126 470.571 856.823 470.471 863.598 464.665C870.171 459.059 873.003 449.448 869.463 441.84Z" fill="#E67803"/>
<path fill-rule="evenodd" clip-rule="evenodd" d="M48.5295 52.3149C55.6082 52.5152 63.3947 52.2148 69.8667 49.7121C79.7768 45.9081 88.7768 39.8015 102.934 41.9038C120.53 58.5216 134.687 76.7412 143.586 98.5647C153.193 121.89 163.609 145.015 171.597 168.84C182.114 200.574 203.856 214.389 236.418 213.789C240.665 213.688 244.912 213.789 249.159 213.889C263.519 213.989 276.362 209.684 287.182 200.274C304.879 184.958 321.261 168.34 331.879 147.217C342.193 126.495 352.205 105.572 362.722 84.95C367.474 75.64 372.227 66.0297 378.497 57.6206C400.137 28.9899 435.025 24.3849 455.452 61.1244C465.16 78.6432 475.576 95.6615 479.419 115.883C482.553 132.701 489.935 148.218 502.778 159.931C521.79 177.249 543.531 190.564 569.419 195.369C576.498 196.67 584.486 197.171 591.262 195.469C625.442 186.659 650.116 166.938 661.037 132.801C664.273 122.791 666.093 112.38 669.329 102.369C677.217 78.7433 689.756 58.4215 712.914 46.3085C732.127 36.1976 752.049 40.8026 762.161 59.6228C768.532 71.5356 772.779 84.8499 775.712 98.0641C781.981 125.994 791.083 152.823 802.51 178.951C805.442 185.558 809.285 192.065 813.734 197.771C820.206 206.18 829.409 206.881 839.218 200.875C846.802 196.27 850.24 187.861 847.105 179.051C844.274 171.143 840.633 163.434 836.791 156.026C823.543 130.499 814.644 103.57 809.588 75.5399C805.442 52.5152 793.712 34.9963 776.723 19.5798C764.79 8.66803 750.33 4.56362 735.768 5.36448C709.577 6.76599 686.015 16.2762 668.52 36.9985C654.06 54.0168 642.329 72.6368 635.655 94.1599C631.61 107.274 627.464 120.388 622.206 133.002C611.082 159.53 580.138 168.74 556.172 153.324C535.947 140.41 520.677 123.992 513.902 100.166C508.138 79.9446 499.947 60.6239 489.025 42.2041C460.812 -5.64735 397.913 -15.7582 356.755 27.1879C346.744 37.6992 339.16 50.9134 332.081 63.8273C319.441 86.9522 308.823 111.178 295.778 134.003C287.485 148.418 279.193 163.434 264.227 173.045C242.789 186.96 219.024 180.653 209.114 157.228C202.137 140.71 195.766 123.992 190.305 106.874C180.395 76.1405 161.182 50.8133 141.867 25.7864C131.856 13.1729 117.597 4.66373 100.103 7.86717C81.2937 11.2708 62.6869 16.3763 48.3273 30.2913C46.1025 32.4936 44.0801 34.9963 42.361 37.499C38.6194 42.9048 42.0576 52.0146 48.5295 52.3149Z" fill="#E67803"/>
</svg>
