<svg width="511" height="539" viewBox="0 0 511 539" fill="none" xmlns="http://www.w3.org/2000/svg">
<path fill-rule="evenodd" clip-rule="evenodd" d="M83.9406 127.269C94.7406 123.169 102.941 119.869 111.341 117.069C120.141 114.169 127.541 116.969 131.441 123.569C135.541 130.669 132.341 136.969 128.341 141.969C110.541 164.969 94.5405 174.969 62.1405 161.169C55.0405 158.169 47.8405 155.469 40.5405 152.969C-1.15945 138.569 -12.4595 86.8691 14.9405 54.6691C51.8405 11.4691 97.6405 -7.13089 154.041 2.46911C176.141 6.26911 196.841 14.5691 215.741 26.2691C231.941 36.2691 244.941 49.7691 253.541 67.2691C260.841 82.1691 269.041 96.5691 278.241 113.669C287.241 98.1691 295.841 85.2691 302.541 71.4691C309.041 57.9691 318.741 47.8691 330.641 39.3691C339.641 32.8691 348.941 26.7691 357.641 19.8691C375.841 5.56911 396.441 3.56911 417.541 9.56911C436.641 15.0691 456.541 20.3691 473.341 30.3691C498.341 45.3691 512.041 68.9691 510.541 99.5691C510.241 105.069 509.341 110.569 508.741 116.069C507.341 130.569 505.841 145.469 494.041 155.469C478.641 168.669 460.641 177.569 439.941 178.269C433.541 178.469 426.441 176.969 420.841 173.869C410.241 168.069 400.441 160.769 390.541 153.769C385.741 150.369 383.141 145.669 385.441 139.469C387.941 132.669 392.641 127.369 399.941 127.969C408.541 128.769 417.141 131.269 425.441 133.769C441.641 138.469 447.641 136.569 456.141 123.369C477.941 89.5691 460.741 56.3691 419.941 53.5691C413.341 53.0691 406.641 53.7691 400.041 53.5691C361.741 52.2691 338.941 75.0691 328.941 107.369C314.241 154.769 300.741 203.269 299.241 253.369C298.041 290.869 301.941 328.569 301.541 366.069C301.141 408.269 307.641 449.769 312.341 491.369C313.641 503.169 309.541 513.069 304.341 522.969C300.741 529.669 298.441 538.069 289.041 538.669C278.741 539.269 264.541 528.369 261.841 518.269C256.641 499.269 253.441 480.869 258.241 460.369C262.341 442.469 262.041 422.569 259.141 404.269C250.141 345.969 250.341 287.269 247.841 228.669C246.241 190.169 237.241 153.769 217.941 120.869C201.641 92.9691 180.741 69.0691 149.641 55.2691C128.241 45.7691 106.741 45.7691 84.6405 48.1691C76.3405 49.0691 70.3406 53.8691 67.0406 61.6691C64.4406 67.7691 62.0405 73.8691 59.4405 79.9691C54.1405 92.9691 57.7406 103.769 67.5406 112.969C72.2406 117.569 77.3406 121.669 83.9406 127.269Z" fill="#E67803"/>
</svg>
