<svg width="541" height="616" viewBox="0 0 541 616" fill="none" xmlns="http://www.w3.org/2000/svg">
<path fill-rule="evenodd" clip-rule="evenodd" d="M389.667 348.457C400.897 345.865 410.4 343.85 419.903 341.547C465.761 330.677 504.924 349.968 525.298 392.365C541.496 425.98 546.031 461.755 534.801 496.089C513.203 562.384 455.539 594.703 387.003 564.687C380.74 561.952 376.061 555.546 369.294 549.643C363.822 557.777 357.991 565.479 353.24 573.829C329.411 615.434 281.465 624.359 244.893 608.883C224.592 600.318 220.92 586.785 234.814 569.294C241.438 561.016 248.277 560.224 259.939 565.983C265.267 568.646 270.666 571.453 276.353 572.893C291.255 576.636 302.702 571.453 310.621 558.281C322.787 538.126 331.138 516.964 332.434 492.922C337.761 393.877 345.464 294.975 346.472 195.785C346.688 177.502 345.32 159.003 342.729 140.864C341.217 130.211 337.186 119.486 332.29 109.768C320.772 87.1662 299.102 76.5131 274.337 80.472C248.853 84.5749 227.975 97.1716 214.801 119.342C202.995 139.136 193.42 160.299 183.773 181.317C181.397 186.5 182.261 193.338 182.333 199.384C182.405 218.963 183.629 238.614 182.837 258.121C181.397 294.759 178.734 331.397 176.718 368.107C175.35 393.805 174.486 419.502 172.758 445.127C171.247 466.433 155.841 475.935 136.979 467.657C128.412 463.914 123.445 457.004 123.517 447.574C123.589 434.114 122.869 420.438 125.028 407.193C134.027 351.336 133.955 295.119 134.171 238.902C134.315 209.534 134.531 180.165 133.739 150.869C133.235 131.29 131.076 111.856 129.636 92.3489C128.7 79.6083 122.941 68.9551 115.238 59.1657C103.719 44.6256 83.6336 37.7154 66.0679 44.2657C59.9486 46.569 54.1894 52.8314 50.6618 58.7338C46.3424 65.9319 45.3345 75.0015 41.519 82.6314C34.2479 97.3875 16.3222 99.475 4.87562 86.9503C1.92399 83.7112 -0.379717 78.1686 0.0522281 73.9218C3.57978 37.4275 29.2085 8.63514 63.4042 1.653C104.799 -6.76876 151.809 17.7767 169.087 57.3662C173.334 67.0836 176.358 77.3049 180.101 87.958C197.523 76.3691 213.937 66.0039 229.703 54.7749C263.035 31.0212 296.295 30.8052 332.65 49.3763C370.157 68.5232 380.884 102.354 388.443 138.777C394.994 170.304 390.963 202.264 390.243 234.007C389.667 259.704 388.083 285.329 387.651 311.027C387.435 323.047 388.875 335.212 389.667 348.457ZM380.956 429.075C379.228 450.597 377.212 476.007 375.269 500.768C382.18 504.943 387.723 507.462 392.331 511.205C398.018 515.74 402.769 521.499 408.241 526.321C419.543 536.327 444.668 540.43 455.97 531.648C471.305 519.699 487.143 505.879 491.318 486.228C497.293 458.155 494.198 429.939 478.144 404.962C473.68 398.051 467.345 391.573 460.434 387.038C441.86 374.586 424.079 378.833 409.896 396.828C402.481 406.185 393.986 414.679 380.956 429.075Z" fill="#E67803"/>
</svg>
