<svg width="826" height="525" viewBox="0 0 826 525" fill="none" xmlns="http://www.w3.org/2000/svg">
<path fill-rule="evenodd" clip-rule="evenodd" d="M118.017 127.506C115.317 116.006 113.517 108.206 111.517 100.506C109.117 91.4059 112.817 83.8059 120.217 80.0059C149.917 64.6059 179.417 48.7059 210.217 35.6059C231.017 26.7059 253.617 22.1059 275.617 16.0059C335.617 -0.594114 396.917 -2.59411 458.617 2.40589C528.417 8.00589 596.117 24.3059 661.317 49.1059C691.117 60.4059 720.117 75.8059 746.217 94.0059C763.117 105.806 776.217 124.706 787.217 142.706C799.717 163.106 808.717 185.806 817.817 208.106C845.417 276.106 792.117 348.406 731.517 358.806C677.817 368.006 601.617 339.706 588.117 265.906C582.017 232.606 578.817 200.506 594.617 167.906C604.517 147.306 616.617 131.806 637.817 123.406C648.917 119.006 659.717 113.806 673.017 107.906C665.717 103.106 660.117 97.6059 653.317 95.3059C626.717 86.1059 600.317 75.4059 572.917 70.0059C496.817 55.0059 420.417 38.9059 342.317 55.1059C299.217 64.1059 255.617 70.6059 215.917 92.8059C193.017 105.606 166.717 112.306 135.117 124.406C150.517 129.506 158.617 132.906 167.017 134.906C228.817 149.106 268.517 185.506 281.817 248.706C282.917 253.906 284.417 259.206 286.817 263.906C292.317 274.706 291.017 285.306 284.117 294.206C271.017 311.106 258.617 329.206 242.717 343.106C218.817 363.906 188.617 366.406 159.117 358.406C140.017 353.206 122.117 343.406 103.817 335.506C96.5166 332.306 89.6166 328.206 82.3166 325.006C80.2166 324.106 77.3166 325.106 72.4166 325.406C78.7166 355.506 91.5166 378.806 119.817 394.106C208.217 442.006 302.717 469.206 402.317 478.806C422.017 480.706 442.517 478.406 462.317 475.806C524.717 467.406 587.117 458.706 641.317 422.306C660.017 409.706 682.217 403.006 697.117 384.006C704.917 374.006 721.917 378.906 727.517 390.206C735.517 406.406 734.017 415.906 720.417 429.306C687.217 461.906 646.717 483.006 603.017 496.206C547.917 512.806 491.117 521.606 433.317 524.306C391.417 526.206 350.617 518.706 309.417 514.406C292.617 512.606 276.517 504.006 260.117 498.606C220.717 485.706 180.417 474.906 141.917 459.706C102.017 443.906 65.5166 421.106 35.5166 389.706C5.91656 358.406 -3.68344 320.706 1.21656 278.806C3.41656 260.406 5.51656 241.906 7.91656 223.606C8.41656 219.706 8.71656 215.206 10.9166 212.306C25.2166 192.906 38.9166 173.006 54.9166 155.106C70.7166 137.506 93.7166 132.406 118.017 127.506ZM739.717 151.006C730.517 159.306 722.817 166.406 710.217 162.706C701.317 160.106 691.617 158.906 682.417 159.306C649.317 160.906 630.617 179.606 629.117 212.506C628.517 225.806 630.217 239.206 630.117 252.606C630.017 273.506 640.417 287.506 657.217 298.706C674.717 310.306 693.617 315.506 714.217 314.206C760.317 311.406 794.617 262.306 779.217 219.006C770.817 195.406 761.617 171.206 739.717 151.006ZM66.9166 234.206C83.6166 251.706 101.017 271.906 120.417 289.806C134.617 302.906 153.017 307.706 172.617 304.706C183.117 303.106 193.717 301.306 203.917 298.406C236.117 289.206 250.017 251.806 230.117 225.106C221.517 213.606 210.217 201.506 197.417 196.306C140.417 173.006 97.5166 161.706 67.4166 227.106C66.9166 228.206 67.2166 229.606 66.9166 234.206Z" fill="#E67803"/>
</svg>
