<svg width="713" height="672" viewBox="0 0 713 672" fill="none" xmlns="http://www.w3.org/2000/svg">
<path fill-rule="evenodd" clip-rule="evenodd" d="M585.848 212.199C590.748 276.899 574.548 331.299 548.148 383.899C529.648 420.699 514.848 459.399 498.248 497.199C488.848 518.599 487.248 540.899 490.948 563.499C494.848 587.399 507.348 605.199 531.848 612.599C534.248 613.299 536.548 614.199 538.948 614.999C583.548 630.499 609.748 622.799 636.448 584.399C650.048 564.799 659.948 542.999 664.748 519.299C666.448 510.699 667.548 501.999 669.748 493.499C672.248 483.599 680.348 479.999 689.448 478.899C697.848 477.899 704.748 482.099 707.448 489.599C710.248 497.499 713.548 507.099 711.648 514.699C699.548 562.299 684.948 608.499 642.148 639.699C612.148 661.599 581.248 671.799 543.848 661.499C450.148 635.499 430.148 582.099 452.548 492.799C457.648 472.499 469.648 453.999 478.348 434.599C492.248 403.799 506.048 372.899 519.948 342.099C533.548 312.099 542.348 280.999 541.648 247.699C541.148 225.199 540.348 202.599 540.848 179.999C542.348 122.299 509.648 88.199 463.148 61.499C411.048 31.599 357.548 34.799 303.248 51.199C269.948 61.299 250.348 87.699 233.448 116.199C228.948 123.699 226.648 132.499 222.148 139.899C192.148 189.799 194.348 242.099 208.348 295.999C218.148 333.799 233.348 369.399 248.248 405.199C255.448 422.499 262.348 439.999 268.848 457.599C292.048 520.899 278.948 577.999 238.648 630.199C236.348 633.199 234.048 636.399 230.948 638.299C190.148 662.999 146.748 680.399 98.9477 665.799C61.8477 654.499 33.5477 628.499 16.1477 593.599C7.94772 576.999 4.74772 557.799 0.947718 539.399C-0.752282 531.099 -0.0522823 521.599 2.14772 513.399C13.8477 470.899 37.7477 435.899 74.2477 411.499C110.948 387.099 169.848 401.199 194.448 437.799C201.448 448.199 208.248 458.699 214.248 469.699C218.348 477.199 215.048 484.399 209.948 490.399C204.448 496.999 196.848 498.499 189.748 494.599C183.448 491.099 177.348 486.299 172.948 480.799C165.248 470.999 159.748 459.399 151.748 449.899C134.448 428.999 108.648 427.499 89.4477 446.699C71.5477 464.499 58.1477 485.899 48.6477 509.199C45.9477 515.799 43.9477 524.499 45.7477 530.999C51.5477 551.299 56.9477 572.399 66.8477 590.799C80.8477 616.799 104.148 629.899 135.048 628.899C189.248 627.099 218.248 601.699 232.548 551.999C235.648 541.299 236.248 529.799 237.648 518.599C239.448 504.699 236.848 491.899 231.048 478.699C212.948 437.499 195.248 395.999 179.648 353.799C167.048 319.899 157.348 284.999 153.048 248.499C150.548 226.799 150.048 205.599 156.948 185.399C169.448 148.899 178.848 111.199 202.648 79.199C221.948 53.199 246.348 34.699 274.848 20.699C316.948 0.199036 362.248 -1.90096 407.048 1.09904C456.048 4.29904 497.848 27.299 533.748 60.599C542.848 69.099 551.348 78.499 559.448 87.999C578.448 110.099 582.848 137.599 585.448 165.099C587.248 182.399 585.848 200.099 585.848 212.199Z" fill="#E67803"/>
</svg>
