<svg width="854" height="515" viewBox="0 0 854 515" fill="none" xmlns="http://www.w3.org/2000/svg">
<path fill-rule="evenodd" clip-rule="evenodd" d="M11.4876 376.414C18.3876 378.714 25.6876 380.414 32.8876 381.614C41.1876 382.914 49.6876 383.014 58.0876 384.214C107.188 391.614 156.488 397.214 206.288 395.314C228.388 394.414 250.588 394.114 272.688 392.414C280.888 391.814 289.088 388.714 296.788 385.514C303.888 382.514 306.488 373.314 302.188 366.614C298.888 361.514 294.888 355.414 289.688 353.114C268.788 344.114 257.488 327.014 246.688 308.414C217.888 258.714 214.788 207.014 231.988 152.914C243.188 117.714 269.188 94.8143 295.888 72.4143C305.488 64.3143 315.988 56.7143 327.188 51.2143C366.588 32.0143 407.488 27.7143 450.288 39.8143C476.088 47.1143 499.588 58.8142 521.788 73.1143C563.888 100.314 585.488 139.614 586.488 189.714C586.888 211.914 585.188 234.114 584.288 256.214C583.188 282.414 574.488 305.914 557.388 325.814C549.888 334.514 540.388 341.614 531.688 349.214C523.088 356.714 513.988 363.814 511.088 375.014C523.588 387.714 527.588 391.514 535.288 388.614C551.088 382.614 566.588 387.514 582.188 387.214C642.288 386.014 702.388 384.114 762.188 393.314C774.588 395.214 787.488 394.614 800.088 394.714C805.288 394.714 810.688 393.914 815.688 392.314C823.388 389.914 830.988 379.814 830.788 373.514C830.588 367.014 822.488 358.414 813.688 357.014C806.488 355.814 798.988 356.414 791.688 355.914C781.188 355.314 770.688 354.514 760.188 353.714C745.488 352.514 730.788 350.414 716.088 350.214C686.488 349.814 656.988 350.714 627.388 350.814C614.988 350.814 602.488 350.114 584.788 349.614C590.788 340.214 593.188 335.514 596.488 331.714C608.488 317.614 615.288 301.114 618.888 283.414C621.188 272.114 622.488 260.514 623.188 249.014C624.588 223.814 627.088 198.414 625.888 173.214C623.088 119.814 590.988 71.0143 544.388 45.4143C536.088 40.8143 527.988 35.8143 519.888 30.9143C488.488 12.2143 455.288 -0.485746 418.088 0.0142538C407.488 0.214254 396.988 1.11425 386.388 1.01425C347.488 0.914254 314.388 16.5143 285.088 40.3143C265.488 56.3143 248.088 74.9142 229.088 91.7142C215.988 103.314 208.488 118.114 201.688 133.614C171.188 203.114 179.788 269.314 218.188 333.014C222.388 340.014 226.488 347.014 231.988 356.114C223.688 357.514 217.788 359.114 211.788 359.314C201.288 359.814 190.588 358.614 180.188 359.714C163.188 361.314 146.688 360.714 129.788 358.014C99.5876 353.314 69.1876 349.614 38.6876 346.414C29.5876 345.514 19.5876 346.414 11.0876 349.314C6.28763 350.914 1.58763 358.014 0.287633 363.514C-1.51237 370.714 5.48763 374.414 11.4876 376.414Z" fill="#E67803"/>
<path fill-rule="evenodd" clip-rule="evenodd" d="M843.387 478.414C837.487 476.414 831.187 474.214 825.187 474.714C747.087 480.214 669.187 476.614 591.187 472.814C545.887 470.614 500.487 470.014 455.087 470.314C404.387 470.614 353.787 472.614 303.087 473.914C303.087 473.114 303.087 472.414 303.087 471.614C212.487 469.814 121.887 468.114 31.1872 466.214C20.9872 465.914 12.7872 469.314 6.08722 477.014C0.587218 483.414 2.18722 492.814 10.4872 494.714C24.7872 498.014 39.3872 501.214 53.9872 502.114C130.887 506.614 207.987 501.314 284.987 507.714C365.087 514.414 445.187 503.814 525.287 505.014C543.187 505.314 561.087 505.814 578.987 506.614C602.187 507.514 625.287 509.214 648.487 509.814C677.987 510.514 707.587 510.214 737.087 511.014C761.287 511.614 785.487 513.914 809.687 514.214C820.087 514.314 830.487 511.414 840.887 509.414C849.587 507.714 852.287 500.414 853.287 492.914C854.187 485.614 849.887 480.514 843.387 478.414Z" fill="#E67803"/>
</svg>
