<svg width="658" height="630" viewBox="0 0 658 630" fill="none" xmlns="http://www.w3.org/2000/svg">
<path fill-rule="evenodd" clip-rule="evenodd" d="M235.312 337.713C202.498 337.138 172.203 336.922 141.835 335.987C108.013 334.908 74.2638 333.397 40.514 331.67C23.2434 330.807 21.3724 329.584 0 313.111C4.6055 304.982 9.42689 296.493 14.1044 288.364C52.8913 293.112 89.5195 300.018 126.364 301.385C162.128 302.68 198.109 298.22 234.305 296.205C240.134 281.314 238.982 268.006 237.04 254.841C230.635 212.11 216.027 171.969 198.109 132.907C193.863 123.699 188.898 114.851 185.084 105.427C173.93 77.947 159.322 52.9127 137.661 32.1228C133.056 27.7346 130.465 21.1883 127.083 15.8649C145.865 -2.62303 156.443 -4.92503 170.691 8.81503C185.156 22.7709 198.828 37.1584 207.536 56.5096C223.727 92.4064 242.509 127.008 256.613 163.912C268.343 194.558 278.201 225.347 278.993 258.582C279.209 268.294 282.303 278.005 284.318 288.796C320.011 287.069 353.4 293.903 387.87 289.947C389.597 284.551 391.756 280.451 391.972 276.279C395.138 212.11 411.977 151.899 444.503 96.3629C458.176 72.9833 472.352 49.9633 486.672 27.0152C490.846 20.397 495.883 14.1384 501.352 8.52728C508.261 1.40547 516.824 -0.105222 526.251 3.49165C533.015 6.0814 537.189 12.8435 534.67 19.6056C532.296 25.8642 528.985 31.7631 525.603 37.59C508.692 66.8686 490.774 95.6436 474.943 125.498C448.677 175.134 435.94 228.44 436.515 286.853C442.056 288.148 448.173 290.882 454.29 290.882C483.578 290.882 512.938 290.091 542.226 289.731C569.283 289.371 596.341 288.58 623.326 289.012C632.034 289.155 641.029 291.529 649.16 294.91C659.882 299.299 661.753 319.153 649.736 325.628C639.517 331.167 630.019 334.404 617.785 332.678C562.663 324.98 507.397 332.39 452.203 332.39C448.029 332.39 443.855 334.548 437.955 336.131C440.761 387.71 445.798 437.634 471.56 483.171C476.526 491.947 481.419 501.011 484.585 510.579C494.876 541.512 511.211 567.553 539.06 585.682C547.551 591.221 555.827 597.336 558.633 611.291C556.834 614.025 554.747 619.42 550.861 622.801C540.787 631.65 533.663 631.866 523.372 626.039C488.759 606.256 466.307 575.898 449.396 540.793C443.568 528.707 438.89 515.974 432.342 504.32C409.026 462.956 400.607 417.852 397.944 371.308C397.225 358.863 398.016 346.418 389.309 334.404C354.696 330.232 319.075 328.937 282.015 330.304C276.402 361.956 270.645 390.515 266.328 419.218C262.082 447.706 250.352 472.884 235.528 497.055C219.049 523.887 202.714 550.792 185.875 577.337C178.032 589.71 169.252 601.508 160.329 613.162C157.739 616.543 153.637 619.492 149.679 620.859C141.907 623.449 134.207 623.017 127.947 616.183C122.046 609.781 120.823 603.306 126.292 594.674C139.604 573.74 153.709 553.31 166.95 532.376C181.342 509.572 195.878 486.696 208.975 463.1C221.784 440.08 224.518 413.751 229.34 388.357C232.218 372.747 233.154 356.921 235.312 337.713Z" fill="#E67803"/>
</svg>
