<svg width="616" height="675" viewBox="0 0 616 675" fill="none" xmlns="http://www.w3.org/2000/svg">
<path fill-rule="evenodd" clip-rule="evenodd" d="M572.785 53.2168C570.585 53.2168 569.385 52.8168 569.085 53.2168C557.585 65.9168 545.885 78.6168 534.685 91.6168C511.485 118.217 488.585 145.117 465.485 171.817C444.085 196.417 422.985 221.317 400.985 245.417C385.785 262.017 367.985 276.217 353.585 293.817C318.585 336.617 282.285 378.317 246.585 420.517C240.285 428.017 234.285 435.817 227.385 444.617C254.285 470.717 280.285 495.817 306.185 521.117C313.885 528.717 321.485 536.417 328.285 544.717C331.785 549.017 331.985 554.717 328.485 560.017C324.685 565.717 319.685 567.117 311.785 565.517C301.385 563.317 294.185 556.417 287.085 549.417C267.085 529.817 247.485 509.817 227.585 490.117C220.585 483.117 213.185 476.517 204.585 468.517C190.085 485.317 176.785 501.017 163.185 516.517C137.485 545.717 111.485 574.717 85.885 603.917C71.585 620.317 57.685 637.017 43.685 653.717C39.585 658.617 36.185 664.017 31.885 668.617C25.285 675.817 17.385 676.417 10.085 670.817C0.0849552 663.317 -3.11504 653.017 3.38496 645.017C18.285 626.717 33.685 608.917 49.185 591.117C80.185 555.717 111.285 520.317 142.685 485.317C154.085 472.617 166.485 460.817 178.285 448.717C175.885 439.617 168.685 436.417 163.185 432.417C143.285 418.217 122.785 404.917 102.685 391.117C95.185 386.017 87.485 381.117 80.885 374.917C76.485 370.817 73.285 365.017 70.685 359.417C68.385 354.317 72.885 348.417 78.285 347.317C87.885 345.417 96.085 348.517 103.885 353.717C134.685 374.417 165.585 395.017 196.585 415.517C197.985 416.417 199.885 416.517 203.485 417.617C212.385 407.517 221.985 396.917 231.385 386.117C253.485 360.917 275.685 335.717 297.585 310.317C313.585 291.817 328.785 272.717 344.985 254.517C357.585 240.217 370.885 226.617 384.285 213.117C411.885 185.517 435.885 154.717 460.585 124.517C480.685 100.017 502.685 77.1168 523.785 53.4168C527.285 49.5168 530.485 45.4168 535.185 39.8168C530.285 38.0168 527.185 36.0168 523.985 35.7168C486.985 33.0168 449.985 31.0168 412.785 35.9168C394.185 38.3168 374.885 35.2168 355.885 34.4168C348.885 34.1168 344.385 29.8168 341.185 23.9168C336.385 14.9168 339.685 7.31684 349.285 5.71684C351.085 5.41684 352.885 4.91684 354.685 5.01684C396.485 8.51684 437.885 -1.58316 479.585 0.216843C514.785 1.71684 550.185 2.61684 584.785 10.7168C589.185 11.7168 593.785 12.5168 597.785 14.4168C604.685 17.7168 609.685 22.8168 609.085 31.3168C608.985 33.1168 608.885 34.9168 608.785 36.7168C606.085 102.917 611.585 168.717 615.885 234.617C616.185 239.017 615.985 243.717 614.685 247.917C610.585 261.417 600.185 263.817 590.185 253.817C582.385 245.917 577.485 237.417 577.385 225.217C576.985 186.317 574.885 147.317 573.985 108.417C573.685 94.0168 574.985 79.5168 575.585 65.1168C575.485 60.6168 575.585 56.2168 572.785 53.2168Z" fill="#E67803"/>
</svg>
