<svg width="806" height="563" viewBox="0 0 806 563" fill="none" xmlns="http://www.w3.org/2000/svg">
<path fill-rule="evenodd" clip-rule="evenodd" d="M725.8 391.221C715.2 389.721 708.4 389.521 702.1 387.621C691 384.321 679.8 380.621 669.3 375.721C661.6 372.221 660.1 362.321 664.7 355.621C665.8 354.021 666.8 352.221 668.3 351.021C689 333.721 701.8 310.621 715.8 288.321C718.9 283.421 721.9 278.121 725.9 274.121C736.5 263.521 749.5 264.621 758.6 276.421C761.6 280.221 764.2 284.421 766.6 288.621C779.5 311.521 792.4 334.421 805.2 357.121C800.2 380.321 785.4 389.921 763 389.421C757.7 407.221 751.9 423.621 748 440.521C738.4 481.921 716.2 515.521 685.4 543.821C667 560.721 645 566.021 620.2 561.021C568 550.521 534 517.021 524.5 463.921C516 416.721 513.7 369.121 515.3 321.221C516.9 272.521 517.9 223.721 520.1 175.121C521.1 151.821 523.7 128.521 526.3 105.221C528.7 83.9206 520.4 67.2206 506 52.6206C484.5 30.8206 439.6 24.7206 413.4 40.7206C407 44.6206 400.4 50.0206 396.5 56.3206C383.8 77.0206 372.3 98.4206 360.5 119.721C359.2 122.121 358.4 125.321 358.6 128.021C361 165.921 353.1 203.621 358.4 241.821C360.9 259.821 357 278.721 356 297.121C354.2 330.221 352.3 363.321 350.8 396.421C350.2 409.021 351.1 421.721 350.8 434.421C350.5 448.221 343.8 455.021 331.5 454.721C320.4 454.521 314.1 448.621 313.3 436.421C312.7 426.721 312.5 416.921 313.4 407.221C320.2 332.421 320.8 257.521 319.2 182.421C318.7 159.021 320.2 135.621 321.5 112.221C322.3 98.2206 319.5 85.1206 315.4 72.0206C308.4 49.2206 291.2 36.6206 270 30.4206C261.4 27.9206 250.9 31.6206 241.4 32.7206C207.7 36.8206 177 76.1206 179.6 113.421C182.2 150.321 179.9 187.521 179 224.521C178.7 237.121 175.6 249.621 174.2 262.121C170.5 295.021 166.5 327.921 163.8 360.921C162.2 380.321 162.7 399.821 162.3 419.321C162.1 427.121 162.6 435.021 161.8 442.621C160.5 454.221 154.5 460.121 145.7 459.821C134.1 459.521 127.2 453.721 126.2 442.521C125.5 434.721 125 426.921 125.6 419.121C127.8 389.021 130.1 358.921 133.2 328.821C136.2 299.821 142.8 270.921 143.5 241.921C144.6 192.321 148.7 142.621 141 93.1206C139.7 84.6206 136 76.4206 133.6 68.0206C126.9 44.9206 110.9 35.8206 87.6 35.2206C71 34.8206 59.3 41.8206 51.4 55.3206C45.5 65.3206 41.7 76.6206 35.9 86.7206C32.7 92.3206 28.3 99.1206 22.8 101.221C13.5 104.921 6.2 98.9206 0 89.3206C4.5 75.6206 11.3 61.8206 17.9 47.8206C27.7 27.0206 45.1 14.4206 65.9 7.52055C84.9 1.32055 104.4 4.72055 122.9 12.3206C138.4 18.7206 152.2 27.6206 163.2 42.8206C168.9 38.4206 173.9 34.4206 179.1 30.8206C184.7 26.9206 190.6 23.5206 196.2 19.6206C217.1 5.02055 241.2 -0.379448 265.5 0.0205523C289.4 0.420552 310.9 10.7206 327.7 28.5206C336.3 37.7206 344.2 47.6206 352.6 57.5206C354.9 55.1206 357.6 53.4206 358.6 50.9206C365.8 33.6206 380.7 25.0206 395.5 15.3206C413.7 3.42055 433.2 0.0205523 454 1.62055C488.2 4.32055 518.3 16.2206 542.6 41.3206C555.5 54.7206 562.1 70.6206 562 88.8206C561.9 109.321 560.3 129.721 559.3 150.221C557.5 188.121 555.6 226.121 554 264.021C553.1 286.421 552 308.821 552.1 331.221C552.3 375.921 550.9 420.921 562.3 464.621C568.9 489.821 584.8 510.221 606.9 523.721C631.1 538.521 652.8 534.221 672.2 512.721C680.6 503.421 688.9 493.221 694.3 482.021C704.1 461.921 712.3 441.021 720.1 420.021C723.4 412.121 723.7 403.121 725.8 391.221Z" fill="#E67803"/>
</svg>
