<svg width="594" height="586" viewBox="0 0 594 586" fill="none" xmlns="http://www.w3.org/2000/svg">
<path fill-rule="evenodd" clip-rule="evenodd" d="M371.084 208.218C390.284 221.818 407.284 233.418 423.884 245.618C448.184 263.418 468.284 286.218 481.184 312.718C493.984 338.918 504.784 367.618 500.984 398.118C497.784 423.618 492.284 448.818 488.084 474.218C485.884 487.718 478.784 498.018 469.284 507.018C443.984 531.018 417.784 553.918 388.384 572.918C378.584 579.218 368.884 585.618 356.584 585.318C323.184 584.618 289.684 584.618 256.184 583.118C217.284 581.318 186.184 558.818 152.784 542.318C151.684 541.718 150.784 540.718 149.984 539.718C111.084 491.918 77.6837 442.918 93.3837 375.318C102.884 334.618 112.584 295.218 143.684 264.618C158.484 250.018 173.684 236.418 192.584 227.318C201.784 222.818 210.184 217.018 218.384 212.118C218.484 200.818 209.284 199.418 203.884 195.318C175.984 174.018 159.184 145.918 149.184 113.018C144.684 98.3178 138.984 84.0178 133.884 69.7178C113.184 60.7178 93.2837 56.8178 72.6837 55.0178C52.1837 53.2178 31.5837 51.6178 11.2837 48.6178C0.0837431 47.0178 -3.71626 32.8178 4.18374 24.4178C13.0837 15.0178 22.2837 6.81781 37.3837 8.71781C51.3837 10.5178 65.6837 10.5178 79.8837 10.1178C109.084 9.31781 135.584 19.9178 161.684 30.6178C169.084 33.6178 175.684 41.9178 179.684 49.3178C185.084 59.4178 187.884 70.9178 191.484 81.9178C193.884 89.2178 195.884 96.7178 197.984 104.118C212.984 155.418 250.784 178.218 300.584 184.418C310.184 185.618 321.684 183.318 330.184 178.718C359.084 163.218 383.284 142.418 392.984 109.218C396.584 96.8178 399.384 84.2178 402.384 71.7178C411.384 34.3178 446.884 4.81781 485.184 2.91781C508.384 2.01781 531.484 0.517813 554.684 0.0178134C562.184 -0.182187 570.084 1.31781 577.284 3.71781C588.584 7.51781 595.284 18.6178 592.984 27.3178C589.684 39.7178 580.384 48.4178 568.884 48.4178C540.484 48.6178 512.184 48.7178 483.884 48.2178C469.084 47.9178 459.284 54.0178 453.884 67.6178C450.984 74.7178 447.984 81.8178 445.784 89.2178C432.184 134.418 411.684 175.418 371.084 208.218ZM291.484 544.618C323.384 545.518 345.384 543.518 365.084 533.018C378.684 525.818 390.684 515.618 403.384 506.818C443.784 478.818 458.284 440.218 449.284 392.418C446.884 379.818 441.984 367.718 439.784 355.118C432.184 312.218 404.084 285.118 370.084 262.018C352.184 249.918 332.784 245.018 311.484 248.018C287.384 251.418 263.284 258.218 239.384 257.618C211.384 256.918 194.184 271.118 176.684 288.918C147.484 318.618 138.884 356.718 136.284 395.118C132.884 444.818 157.584 483.418 195.584 514.118C226.484 539.218 263.684 542.418 291.484 544.618Z" fill="#E67803"/>
</svg>
