<svg width="683" height="596" viewBox="0 0 683 596" fill="none" xmlns="http://www.w3.org/2000/svg">
<path fill-rule="evenodd" clip-rule="evenodd" d="M517.485 517.463C508.585 526.163 501.785 531.763 496.185 538.463C478.185 560.063 455.685 576.063 431.585 589.663C423.485 594.263 412.885 594.963 403.185 595.863C399.085 596.263 394.485 592.563 389.885 590.563C391.485 575.663 401.185 567.263 411.585 563.363C452.085 548.163 473.085 511.763 501.585 483.663C508.785 476.563 509.185 468.063 508.185 458.963C506.785 446.263 505.385 433.463 504.285 420.663C500.585 377.163 503.485 333.763 506.585 290.463C507.685 275.663 506.485 260.763 507.785 246.063C510.185 218.563 513.685 191.163 516.385 163.663C517.885 148.963 518.585 134.163 519.885 119.363C520.985 107.163 517.385 96.0628 513.285 84.7628C506.985 66.9628 492.785 59.2628 473.985 59.4628C445.085 59.6628 419.585 68.9628 401.385 93.0628C392.485 104.863 380.085 115.463 375.485 128.663C371.385 140.763 375.185 155.763 376.385 169.363C381.785 230.563 378.285 291.563 373.285 352.663C371.185 379.063 373.785 405.863 374.085 432.463C374.285 450.163 374.985 467.863 373.785 485.463C372.185 508.063 364.485 511.563 342.685 501.563C341.785 501.163 341.185 500.263 339.185 498.463C338.685 489.763 337.885 479.963 337.785 470.163C337.285 434.663 336.885 399.063 336.585 363.563C336.585 360.563 336.485 357.563 337.085 354.663C345.285 315.663 342.385 275.863 343.785 236.463C344.385 220.663 343.085 204.863 342.085 189.063C341.185 174.263 340.485 159.463 337.985 144.863C335.385 129.363 331.385 114.063 327.085 98.9628C316.585 62.0628 270.685 49.9628 242.485 54.4628C229.085 56.5628 218.985 64.2628 213.585 77.3628C209.485 87.3628 206.185 97.4628 198.685 106.063C195.285 109.963 193.985 116.863 194.085 122.363C194.585 143.063 196.585 163.763 196.985 184.463C198.085 241.563 198.585 298.763 199.385 355.963C199.685 377.663 200.485 399.363 199.985 421.063C199.285 449.563 197.685 478.063 195.985 506.563C195.285 517.963 188.785 524.063 179.685 523.463C168.085 522.763 160.885 516.063 161.385 504.763C162.285 483.063 164.785 461.463 164.885 439.863C165.385 382.563 165.385 325.263 164.685 267.963C164.385 243.363 161.285 218.763 159.885 194.063C159.085 180.263 159.185 166.363 158.885 152.563C158.485 127.563 153.385 103.763 143.285 80.6628C135.485 62.7628 123.585 48.9628 107.385 38.6628C78.985 21.0628 52.485 31.8628 39.085 55.5628C35.285 62.3628 33.385 70.1628 30.185 77.3628C25.685 87.4628 20.485 89.0628 8.585 83.9628C5.985 82.8628 3.785 80.6628 0.084999 77.9628C-0.715001 60.1628 4.085 43.1628 16.485 29.8628C32.185 12.8628 51.785 0.86276 75.885 0.0627598C97.185 -0.63724 116.985 4.46276 133.985 18.1628C150.885 31.7628 166.585 46.5628 178.185 67.6628C199.685 30.7628 231.885 19.0628 269.485 22.2628C307.785 25.4628 338.685 42.9628 358.285 77.4628C359.585 79.7628 361.685 81.7628 364.285 84.7628C376.585 71.2628 387.185 57.1628 402.785 47.6628C432.085 29.8628 463.885 23.6628 496.685 29.8628C537.385 37.5628 555.185 74.6628 555.585 102.463C555.885 122.063 554.485 141.663 553.885 161.263C560.885 168.563 569.085 164.163 576.285 163.363C617.685 158.963 648.885 179.963 656.885 219.463C661.985 244.963 659.985 269.963 652.085 295.263C635.185 349.663 607.985 398.463 575.485 444.663C567.985 454.963 559.985 464.963 553.485 475.863C550.685 480.563 549.385 487.363 550.385 492.663C553.885 511.863 566.385 524.463 584.385 530.263C599.885 535.263 613.385 529.163 624.785 518.163C638.885 504.663 648.385 489.563 646.985 468.763C646.085 455.263 651.585 449.463 662.385 448.963C673.285 448.463 683.185 458.163 682.285 469.863C681.585 478.663 680.185 487.663 677.285 495.963C665.685 528.563 643.285 551.263 610.385 562.163C592.785 567.963 575.185 563.663 558.885 555.763C542.585 547.763 528.785 536.763 517.485 517.463ZM545.085 429.163C555.585 414.863 563.485 405.863 569.185 395.763C582.685 371.763 596.385 347.763 607.885 322.863C621.285 293.863 626.485 262.763 622.485 230.663C619.485 206.563 603.885 193.463 580.385 195.063C552.385 197.063 547.185 202.363 544.885 231.263C544.385 237.163 543.985 243.063 543.685 248.963C542.085 282.363 540.385 315.663 538.885 349.063C537.885 373.563 540.185 397.863 545.085 429.163Z" fill="#E67803"/>
</svg>
