<svg width="65" height="65" viewBox="0 0 65 65" fill="none" xmlns="http://www.w3.org/2000/svg">
<path fill-rule="evenodd" clip-rule="evenodd" d="M47.4879 33.1886C47.3966 33.8141 47.2913 34.5229 47.186 35.2317C47.0526 36.135 46.7438 36.9828 46.4489 37.8376C46.3507 38.1225 46.2384 38.4074 46.098 38.6715C45.7119 39.422 45.2837 40.1447 44.7713 40.8187C44.5607 41.0967 44.2939 41.3329 44.0623 41.597C43.8938 41.7846 43.7183 41.9723 43.5709 42.1807C43.234 42.6533 42.8198 43.0424 42.3916 43.4316C41.6054 44.1404 40.6999 44.6963 39.8084 45.2522C39.4363 45.4885 39.0011 45.6275 38.587 45.8081C38.4676 45.8568 38.3413 45.8846 38.222 45.9332C37.527 46.2668 36.79 46.4683 36.0459 46.6629C35.9827 46.6768 35.9055 46.6698 35.8563 46.7046C35.4211 47.0242 34.8876 46.9964 34.3963 47.1285C34.3331 47.1424 34.2629 47.1424 34.2138 47.1702C34.0172 47.2814 33.8136 47.2675 33.6031 47.2327C33.4416 47.2049 33.2942 47.2049 33.1327 47.2744C33.0345 47.3161 32.9081 47.3161 32.8028 47.2952C32.136 47.1702 31.4621 47.198 30.7882 47.1215C30.0231 47.0312 29.2649 46.9269 28.5209 46.7115C27.5802 46.4475 26.6817 46.0514 25.7551 45.7526C25.6779 45.7248 25.6077 45.69 25.5375 45.6553C24.9338 45.3217 24.295 45.0646 23.7405 44.6546C23.4738 44.4531 23.207 44.2516 22.9473 44.0361C22.6033 43.7512 22.2523 43.4663 21.9365 43.1536C21.6978 42.9173 21.5012 42.6463 21.2907 42.3892C21.1503 42.2155 21.045 42.014 20.8835 41.8611C20.2237 41.2565 19.7744 40.506 19.283 39.7833C19.2199 39.693 19.1848 39.5818 19.1427 39.4775C19.0023 39.1579 18.8478 38.8452 18.7215 38.5186C18.6021 38.2267 18.5109 37.921 18.4126 37.6152C18.0967 36.6145 17.8159 35.6069 17.7247 34.5576C17.7177 34.4603 17.7036 34.363 17.6756 34.2796C17.4439 33.6612 17.4088 33.008 17.3597 32.3548C17.3526 32.2783 17.3456 32.1949 17.3597 32.1185C17.4509 31.3332 17.5352 30.541 17.6405 29.7558C17.6896 29.3597 17.7879 28.9775 17.851 28.5814C17.9704 27.8865 18.2161 27.2333 18.5039 26.594C18.6864 26.184 18.8478 25.774 19.0374 25.3709C19.2339 24.9332 19.5077 24.544 19.8025 24.1618C20.0833 23.8005 20.357 23.4252 20.6097 23.043C20.9958 22.4801 21.431 21.9451 21.9575 21.4934C22.3857 21.132 22.8139 20.7707 23.2491 20.4232C23.937 19.8673 24.7022 19.4364 25.4743 19.0056C25.8604 18.7902 26.2886 18.6304 26.7028 18.4705C27.4469 18.1787 28.1909 17.8799 28.949 17.6158C29.8195 17.31 30.711 17.1433 31.6446 17.1641C32.2202 17.178 32.8028 17.1433 33.3784 17.2405C33.6943 17.2892 34.0102 17.3378 34.3331 17.3795C34.4735 17.4004 34.6209 17.4212 34.7613 17.4282C35.7651 17.4838 36.7198 17.72 37.6674 18.0536C38.4115 18.3176 39.1345 18.6095 39.8295 18.9709C40.2998 19.2141 40.742 19.499 41.1842 19.7839C41.7318 20.1452 42.2302 20.5691 42.7075 21.0208C43.0795 21.3752 43.4586 21.7088 43.8096 22.0771C43.957 22.23 44.1606 22.3551 44.1816 22.6052C44.1886 22.6747 44.2729 22.7303 44.322 22.7928C44.6309 23.2167 44.9467 23.6337 45.2416 24.0645C45.3539 24.2174 45.4311 24.3911 45.5224 24.5649C45.6768 24.8567 45.8172 25.1625 45.9786 25.4543C46.1401 25.7601 46.2945 26.0728 46.3788 26.4133C46.4419 26.6565 46.5472 26.8928 46.6385 27.1291C46.8069 27.546 46.8912 27.9768 46.9544 28.4146C46.9684 28.505 47.0035 28.5953 47.0316 28.6856C47.1298 28.9914 47.2281 29.2902 47.3194 29.589C47.3264 29.6168 47.3404 29.6516 47.3475 29.6794C47.3685 30.1241 47.3896 30.5619 47.4106 31.0066C47.4317 31.4375 47.4668 31.8614 47.4808 32.2922C47.4949 32.5632 47.4879 32.8342 47.4879 33.1886Z" fill="#E67803"/>
<path fill-rule="evenodd" clip-rule="evenodd" d="M14.6004 32.7649C14.0107 32.9108 13.4842 32.9873 12.9367 32.9595C12.4243 32.9317 11.9119 32.9595 11.3994 33.0081C10.6624 33.0776 9.9253 33.0707 9.18824 33.0845C8.56349 33.0984 7.93875 33.1332 7.314 33.2027C6.87177 33.2513 6.41549 33.2652 5.96624 33.2583C5.37659 33.2513 4.77992 33.2027 4.19028 33.1957C3.8042 33.1888 3.41812 33.2166 3.03906 33.2305C2.76529 33.2374 2.50557 33.2583 2.2318 33.1957C1.95804 33.1332 1.66321 33.1123 1.37541 33.1193C1.00337 33.1262 0.64537 33.0498 0.28737 33.0081C0.27333 33.0081 0.252272 33.0012 0.238232 33.0012C0.0767813 32.9525 0.0276439 32.8205 0.111879 32.6607C0.153997 32.5912 0.210154 32.5356 0.266311 32.4661C0.898076 32.3688 1.54388 32.4105 2.18267 32.4174C2.45643 32.4244 2.7302 32.4522 2.99694 32.4244C3.63573 32.3618 4.27451 32.4383 4.9133 32.4383C5.74161 32.4383 6.57694 32.4383 7.40526 32.2924C8.01596 32.1812 8.64773 32.1673 9.26546 32.1256C10.164 32.07 11.0555 32.0352 11.954 31.9866C12.6279 31.9449 13.2947 31.9449 13.9475 32.1812C14.1792 32.2646 14.3828 32.3827 14.5442 32.5634C14.5863 32.5981 14.5793 32.6676 14.6004 32.7649Z" fill="#E67803"/>
<path fill-rule="evenodd" clip-rule="evenodd" d="M32.5559 14.6278C32.3242 14.6 32.3242 14.4541 32.3102 14.329C32.2891 14.0927 32.2821 13.8564 32.2611 13.6202C32.233 13.238 32.233 12.8558 32.1768 12.4805C32.0715 11.7856 32.0786 11.0838 32.0575 10.3889C32.0435 9.83293 32.0154 9.277 31.9592 8.72108C31.875 7.86634 31.8609 7.01161 31.8609 6.14992C31.8609 5.43417 31.8469 4.71842 31.8539 4.00961C31.8609 3.39114 31.882 2.77268 31.889 2.15421C31.889 1.96659 31.889 1.77201 31.8539 1.58439C31.7627 1.07711 31.8118 0.569823 31.875 0.0694907C31.875 0.0416944 31.9101 0.0208472 31.9241 0C32.0785 0.132032 32.2189 0.284912 32.3804 0.403046C32.4997 0.486435 32.5559 0.590671 32.5489 0.722703C32.5348 1.07711 32.605 1.41066 32.6752 1.75116C32.7524 2.11946 32.7244 2.50861 32.7384 2.89081C32.7384 2.9881 32.7103 3.07844 32.7103 3.17572C32.7244 3.85673 32.7524 4.53774 32.7524 5.2257C32.7595 6.22636 32.8226 7.22703 32.8998 8.22769C32.949 8.86006 32.9349 9.49937 32.9349 10.1317C32.942 10.5139 32.963 10.8892 33.0051 11.2714C33.0683 11.8204 33.0964 12.3832 33.0964 12.9322C33.0964 13.2449 33.0824 13.5854 32.963 13.8703C32.8718 14.1274 32.8086 14.4402 32.5559 14.6278Z" fill="#E67803"/>
<path fill-rule="evenodd" clip-rule="evenodd" d="M64.7202 31.9936C64.7413 32.1326 64.7694 32.2577 64.7694 32.3758C64.7624 32.5912 64.6571 32.6816 64.4324 32.6955C64.3833 32.6955 64.3342 32.7094 64.285 32.7024C63.8217 32.626 63.3584 32.7024 62.8951 32.7163C62.5301 32.7233 62.1581 32.7719 61.7931 32.7928C61.5825 32.8067 61.3789 32.7997 61.1683 32.7997C60.8314 32.7997 60.4944 32.7997 60.1575 32.7997C59.982 32.7997 59.8065 32.7997 59.631 32.7928C59.0835 32.7789 58.543 32.7511 57.9955 32.7372C57.3216 32.7233 56.6547 32.7441 55.9808 32.8067C55.2648 32.8761 54.5418 32.8692 53.8188 32.8761C53.5801 32.8761 53.3415 32.8136 53.1028 32.8136C52.5904 32.8067 52.0779 32.8206 51.5655 32.8345C51.376 32.8345 51.1794 32.8622 50.9899 32.8484C50.674 32.8275 50.4073 32.6816 50.2177 32.4175C50.1896 32.3758 50.1756 32.2924 50.1967 32.2438C50.2177 32.1951 50.2949 32.1395 50.3441 32.1465C50.9618 32.1951 51.5514 32.0006 52.1622 31.9936C53.4467 31.9728 54.7313 31.9172 56.0159 31.945C56.8653 31.9589 57.7217 31.938 58.5711 31.9589C59.0484 31.9658 59.5328 32.0353 60.0101 32.0492C60.684 32.0631 61.3579 32.1187 62.0247 32.0423C62.3125 32.0075 62.6003 31.9867 62.8811 31.938C63.4778 31.8338 64.0674 31.8894 64.7202 31.9936Z" fill="#E67803"/>
<path fill-rule="evenodd" clip-rule="evenodd" d="M33.1175 64.3273C32.928 64.2856 32.8227 64.2023 32.7876 64.0424C32.6963 63.6046 32.6051 63.1738 32.5068 62.736C32.4998 62.7082 32.4928 62.6735 32.4998 62.6387C32.584 62.1662 32.5138 61.6936 32.4858 61.2142C32.4647 60.825 32.5489 60.422 32.584 60.0259C32.6121 59.6923 32.6472 59.3587 32.6472 59.0321C32.6542 57.6006 32.6472 56.1761 32.6542 54.7446C32.6542 54.4458 32.6963 54.14 32.6963 53.8412C32.6963 53.2366 32.6823 52.6321 32.6753 52.0344C32.6753 51.6522 32.6893 51.277 32.8508 50.9156C32.942 50.7141 33.0263 50.5126 33.1316 50.318C33.1667 50.2624 33.2579 50.1999 33.3141 50.2068C33.3702 50.2138 33.4264 50.3041 33.4685 50.3667C33.4896 50.4014 33.4966 50.457 33.4966 50.5056C33.4966 51.8399 33.4966 53.1741 33.4896 54.5014C33.4825 55.37 33.4896 56.2456 33.4404 57.1142C33.3843 58.1427 33.3843 59.1781 33.2439 60.1996C33.2018 60.4984 33.2158 60.7972 33.2228 61.103C33.2298 61.5477 33.2509 61.9924 33.1947 62.4372C33.1526 62.729 33.1877 63.0348 33.2018 63.3406C33.2298 63.6672 33.2369 63.9799 33.1175 64.3273Z" fill="#E67803"/>
<path fill-rule="evenodd" clip-rule="evenodd" d="M20.7853 46.8437C20.5747 47.2676 20.3571 47.7123 20.0342 48.0806C19.7674 48.3795 19.5568 48.713 19.3322 49.0466C19.2971 49.0952 19.269 49.1578 19.2269 49.2064C18.7075 49.8527 18.181 50.492 17.6615 51.1382C17.479 51.3606 17.3035 51.5899 17.1491 51.8331C16.8543 52.2918 16.5103 52.7018 16.0891 53.0562C15.7101 53.3758 15.4012 53.758 15.1204 54.168C15.0011 54.3418 14.8818 54.5085 14.7484 54.6684C14.4887 54.988 14.2219 55.3077 13.9692 55.6273C13.892 55.7246 13.8499 55.8567 13.7727 55.9539C13.7095 56.0373 13.6253 56.1207 13.527 56.1763C13.3164 56.2875 13.0918 56.1416 13.0988 55.9053C13.1058 55.8289 13.1199 55.7455 13.1549 55.676C13.3164 55.3841 13.4779 55.0853 13.6674 54.8212C14.0254 54.314 14.4044 53.8206 14.7905 53.3341C15.0502 53.0075 15.338 52.7087 15.6048 52.3891C15.8715 52.0694 16.1313 51.7498 16.384 51.4231C16.763 50.9298 17.1281 50.4294 17.5001 49.9291C17.5352 49.8805 17.5703 49.8249 17.6054 49.7693C18.0897 49.0396 18.5881 48.3169 19.0655 47.5873C19.2129 47.3649 19.3954 47.212 19.6341 47.1008C19.8938 46.9827 20.1465 46.8437 20.4203 46.7603C20.5536 46.7047 20.673 46.6978 20.7853 46.8437Z" fill="#E67803"/>
<path fill-rule="evenodd" clip-rule="evenodd" d="M54.2336 52.2014C54.2476 52.3126 54.2547 52.4516 54.2687 52.5836C54.0511 52.7226 53.8545 52.6948 53.672 52.5627C53.6299 52.535 53.5948 52.5072 53.5597 52.4724C53.0052 51.9929 52.4506 51.5134 51.9031 51.027C51.7838 50.9228 51.6715 50.8046 51.5732 50.6796C51.1169 50.1167 50.5623 49.665 50.0218 49.1925C49.4182 48.6713 48.8285 48.1362 48.2318 47.6011C48.1616 47.5386 48.0985 47.4621 48.0212 47.4065C47.5158 47.0382 47.0806 46.5935 46.6875 46.1071C46.3646 45.711 46.0347 45.3218 45.7609 44.8979C45.6486 44.7312 45.6697 44.474 45.6416 44.2586C45.6416 44.2378 45.7399 44.1752 45.789 44.1822C45.8662 44.1961 45.9434 44.2308 45.9996 44.2795C46.1681 44.4254 46.3436 44.5644 46.498 44.7312C47.3895 45.6693 48.3652 46.5171 49.3409 47.3718C50.2324 48.1501 51.1029 48.9492 51.8329 49.8874C52.0154 50.1236 52.2471 50.3321 52.4647 50.5406C52.8086 50.8741 53.1526 51.2007 53.5036 51.5343C53.7352 51.7567 53.9739 51.9651 54.2336 52.2014Z" fill="#E67803"/>
<path fill-rule="evenodd" clip-rule="evenodd" d="M19.7598 19.7422C19.493 19.4712 19.1701 19.3183 18.9595 19.0334C18.8964 18.95 18.7911 18.8944 18.7068 18.818C18.4612 18.5956 18.1874 18.4011 18.061 18.0675C18.0119 17.9355 17.8504 17.8312 17.7381 17.727C17.338 17.3587 16.9309 16.9973 16.5378 16.629C16.0394 16.1565 15.534 15.6909 15.0566 15.1975C14.481 14.5999 13.9265 13.9814 13.3649 13.3769C13.3228 13.3282 13.2877 13.2657 13.2386 13.2309C12.7051 12.8696 12.3541 12.3206 11.8627 11.9384C11.8276 11.7647 11.9469 11.7091 12.0452 11.6744C12.1575 11.6327 12.2909 11.6327 12.4453 11.6118C12.67 11.8064 12.9086 12.0149 13.1473 12.2303C13.2175 12.2928 13.2807 12.3762 13.3649 12.4179C13.758 12.6264 14.0248 12.9669 14.3196 13.2796C14.7829 13.766 15.2602 14.2316 15.7375 14.6972C16.1798 15.135 16.615 15.5797 17.0642 16.0106C17.6609 16.5873 18.2716 17.1502 18.8753 17.727C19.1631 18.005 19.4579 18.276 19.7177 18.5748C19.8651 18.7416 19.9634 18.9361 20.1599 19.0543C20.2863 19.1377 20.2792 19.3809 20.1599 19.4782C20.0476 19.5685 19.9212 19.638 19.7598 19.7422Z" fill="#E67803"/>
<path fill-rule="evenodd" clip-rule="evenodd" d="M50.8718 8.74902C51.0964 8.83936 51.1736 9.01309 51.2578 9.19376C51.2157 9.55511 50.9841 9.82613 50.7594 10.0902C50.3523 10.5766 49.9241 11.0561 49.4608 11.4939C49.3134 11.6329 49.18 11.7997 49.0607 11.9664C48.6606 12.5224 48.2324 13.0505 47.7761 13.5717C47.3409 14.072 46.9688 14.6349 46.5617 15.17C46.1195 15.7537 45.6702 16.3305 45.221 16.9072C45.1367 17.0184 45.0595 17.1435 44.9753 17.2547C44.7998 17.484 44.6173 17.7064 44.4488 17.9357C44.2874 18.1581 44.0347 18.2206 43.796 18.304C43.7047 18.3387 43.6065 18.3318 43.5433 18.2275C43.4801 18.1303 43.5222 18.0399 43.5784 17.9635C44.0206 17.3589 44.4628 16.7613 44.9051 16.1567C45.2771 15.6425 45.6281 15.1074 46.0072 14.5932C46.2599 14.2457 46.5336 13.9191 46.8004 13.5786C47.1794 13.0852 47.5936 12.6266 47.9516 12.1193C48.2394 11.7024 48.6044 11.341 48.9484 10.9658C49.531 10.3334 50.1417 9.72189 50.6261 9.01309C50.6892 8.90885 50.7945 8.83241 50.8718 8.74902Z" fill="#E67803"/>
<path fill-rule="evenodd" clip-rule="evenodd" d="M22.1953 61.6798C22.3427 61.2629 22.4901 60.846 22.6305 60.429C22.9254 59.5604 23.2132 58.6848 23.508 57.8092C23.5712 57.6285 23.6484 57.4548 23.7045 57.2741C23.859 56.8086 23.9994 56.336 24.1608 55.8704C24.3293 55.3909 24.5188 54.9184 24.6873 54.4389C24.9189 53.7927 25.1506 53.1533 25.3682 52.5071C25.656 51.6454 25.9227 50.7837 26.2035 49.922C26.2456 49.79 26.372 49.7275 26.5054 49.7691C26.6528 49.8178 26.744 49.922 26.7019 50.0471C26.6457 50.2417 26.5615 50.4363 26.4983 50.6308C26.3299 51.159 26.1614 51.6871 25.9929 52.2152C25.9017 52.5001 25.7894 52.785 25.7051 53.0769C25.5156 53.7649 25.2208 54.4181 24.947 55.0782C24.7855 55.4604 24.6732 55.8565 24.5399 56.2457C24.4626 56.468 24.3995 56.6974 24.3152 56.9267C24.1117 57.4965 23.887 58.0594 23.6905 58.6292C23.4027 59.4909 23.0306 60.3178 22.6165 61.1239C22.5112 61.3324 22.3568 61.52 22.2304 61.7146C22.2234 61.7007 22.2094 61.6868 22.1953 61.6798Z" fill="#E67803"/>
<path fill-rule="evenodd" clip-rule="evenodd" d="M45.6194 59.345C45.5351 59.1991 45.4719 59.0392 45.3596 58.9142C44.9174 58.3999 44.6015 57.8162 44.2856 57.2325C43.9136 56.5515 43.5766 55.8496 43.2327 55.1547C42.9028 54.4876 42.5448 53.8274 42.2499 53.1395C41.9411 52.4237 41.548 51.7497 41.204 51.0548C40.9373 50.5127 40.6635 49.9777 40.3827 49.4426C40.2423 49.1785 40.0739 48.9214 39.9264 48.6643C39.8352 48.5114 39.8703 48.3794 40.0107 48.296C40.1019 48.2404 40.2002 48.2404 40.2704 48.3168C40.3406 48.4002 40.4108 48.4906 40.4599 48.5879C40.5793 48.8102 40.6986 49.0395 40.8109 49.2619C41.1689 49.9499 41.5339 50.6378 41.8849 51.3327C42.2148 51.9998 42.5307 52.6809 42.8466 53.348C43.0081 53.6954 43.1625 54.0429 43.331 54.3834C43.8715 55.4674 44.419 56.5445 44.9525 57.6216C45.1912 58.1081 45.4228 58.5945 45.6474 59.0809C45.6755 59.1504 45.6896 59.2199 45.7106 59.2964C45.6825 59.3172 45.6545 59.3311 45.6194 59.345Z" fill="#E67803"/>
<path fill-rule="evenodd" clip-rule="evenodd" d="M5.42578 44.8978C5.65743 44.6962 5.861 44.5364 6.1137 44.4322C6.78759 44.1473 7.46147 43.8485 8.12833 43.5288C8.86539 43.1744 9.58139 42.7853 10.3114 42.4239C10.7537 42.2015 11.2029 41.9792 11.6592 41.7985C12.312 41.5344 12.9438 41.2217 13.5756 40.9021C14.3547 40.499 15.1479 40.1099 15.9412 39.7207C16.1167 39.6304 16.25 39.6582 16.3202 39.7763C16.3904 39.8805 16.3343 40.0612 16.1377 40.1516C15.4708 40.4643 14.811 40.7978 14.1582 41.1244C13.7861 41.3121 13.4141 41.5066 13.0421 41.6804C12.649 41.861 12.2418 42.0209 11.8487 42.1946C11.2099 42.4864 10.5712 42.7922 9.93939 43.098C9.56735 43.2786 9.20233 43.4871 8.82327 43.6608C8.10727 43.9874 7.39127 44.3071 6.66825 44.6059C6.30323 44.7588 5.91013 44.8491 5.53108 44.9603C5.51704 44.9603 5.503 44.9395 5.42578 44.8978Z" fill="#E67803"/>
<path fill-rule="evenodd" clip-rule="evenodd" d="M20.7007 5.89966C20.7428 5.91356 20.7919 5.92051 20.82 5.9483C20.9604 6.10118 21.1078 6.24711 21.2342 6.41389C21.4307 6.66406 21.6132 6.92812 21.7957 7.18524C21.894 7.33117 21.9923 7.47015 22.0835 7.62303C22.5749 8.51251 23.0242 9.42283 23.4594 10.3332C23.7542 10.9516 24.0982 11.5423 24.4211 12.1469C24.5404 12.3692 24.6668 12.5916 24.7791 12.8209C25.1652 13.6062 25.5583 14.3845 25.9373 15.1697C26.0005 15.2948 26.0496 15.4338 26.0777 15.5728C26.0917 15.6422 26.0707 15.7326 26.0286 15.7882C25.9373 15.9133 25.7829 15.9063 25.7197 15.7673C25.5793 15.4685 25.4459 15.1558 25.3055 14.857C25.1932 14.6277 25.0739 14.4053 24.9616 14.176C24.2807 12.8487 23.5506 11.5423 22.8908 10.2011C22.4837 9.37419 22.0625 8.5542 21.6624 7.72726C21.6343 7.67167 21.5992 7.61608 21.5641 7.56743C21.178 7.0949 21.0025 6.50423 20.6866 5.99C20.6656 5.98305 20.6866 5.94135 20.7007 5.89966Z" fill="#E67803"/>
<path fill-rule="evenodd" clip-rule="evenodd" d="M6.21143 21.0349C6.35182 21.0558 6.49222 21.0627 6.62559 21.1044C7.01869 21.2364 7.41178 21.3824 7.79786 21.5213C7.87508 21.5491 7.94528 21.5769 8.01547 21.6117C8.96312 22.0703 9.91779 22.5359 10.8654 22.9807C11.1252 23.1057 11.3989 23.1891 11.6657 23.2934C12.5782 23.6408 13.4908 23.9883 14.3612 24.44C14.5437 24.5372 14.7403 24.6137 14.9298 24.6971C15.021 24.7388 15.1263 24.7457 15.1895 24.8083C15.358 24.9681 15.5756 25.0306 15.7862 25.0932C15.9968 25.1557 16.2144 25.2252 16.432 25.3016C16.5654 25.5935 16.5654 25.5935 16.2986 25.7881C15.6669 25.5379 15.007 25.3364 14.4103 24.9889C13.4767 24.4539 12.4659 24.1064 11.4691 23.7034C10.697 23.3906 9.94587 23.0293 9.19477 22.6818C8.38049 22.3066 7.57324 21.9244 6.773 21.5352C6.54837 21.4241 6.33076 21.292 6.15527 21.1253C6.18335 21.0975 6.19739 21.0627 6.21143 21.0349Z" fill="#E67803"/>
<path fill-rule="evenodd" clip-rule="evenodd" d="M59.161 42.5908C59.1469 42.5978 59.1259 42.6186 59.1188 42.6117C58.1221 42.3059 57.1604 41.9307 56.2127 41.4998C55.8196 41.3191 55.4055 41.1941 55.0194 40.9995C54.0156 40.4992 52.9626 40.11 51.9308 39.6792C51.6781 39.5749 51.4113 39.5124 51.1586 39.4221C50.3724 39.1441 49.5932 38.8592 48.807 38.5812C48.7509 38.5604 48.6877 38.5326 48.6386 38.4909C48.5684 38.4422 48.5473 38.2407 48.6175 38.1851C48.6737 38.1434 48.7719 38.1087 48.8351 38.1295C49.1089 38.2129 49.3897 38.2963 49.6494 38.4144C50.218 38.6716 50.8146 38.8522 51.4113 39.0468C51.8957 39.2066 52.366 39.4151 52.8503 39.5888C53.8612 39.9571 54.7948 40.4783 55.7845 40.8952C56.2829 41.1037 56.7883 41.3122 57.2937 41.5137C57.8904 41.7569 58.459 42.0418 58.9995 42.3893C59.0627 42.431 59.1118 42.4935 59.161 42.5561C59.168 42.563 59.161 42.5839 59.161 42.5908Z" fill="#E67803"/>
<path fill-rule="evenodd" clip-rule="evenodd" d="M42.1176 4.30858C42.0825 4.48925 42.0685 4.68383 42.0123 4.85755C41.7245 5.75398 41.5631 6.67821 41.3525 7.58853C41.3314 7.67887 41.3174 7.77616 41.2753 7.85955C41.0015 8.49191 40.8401 9.15207 40.6224 9.79834C40.3276 10.6878 40.0258 11.5703 39.6397 12.432C39.3379 13.0991 39.0992 13.7871 38.8324 14.4681C38.8044 14.5376 38.7693 14.614 38.7201 14.6766C38.671 14.7461 38.5376 14.76 38.4534 14.7044C38.3832 14.6557 38.3411 14.5862 38.3691 14.5029C38.4323 14.2874 38.4955 14.079 38.5797 13.8705C38.7482 13.4396 38.9307 13.0158 39.1132 12.5919C39.4572 11.7858 39.7661 10.9727 40.0258 10.1388C40.2504 9.40919 40.5242 8.70038 40.7628 7.97768C40.9032 7.53989 41.0226 7.09515 41.1419 6.65041C41.2261 6.34465 41.2893 6.03889 41.3735 5.73313C41.4016 5.6289 41.4437 5.52466 41.4999 5.42737C41.6613 5.13551 41.8088 4.8367 41.9141 4.51705C41.9421 4.43366 42.0123 4.37112 42.0615 4.29468C42.0755 4.29468 42.0966 4.30163 42.1176 4.30858Z" fill="#E67803"/>
<path fill-rule="evenodd" clip-rule="evenodd" d="M49.0665 24.2731C48.8489 24.1202 48.8489 24.1202 48.7998 23.9396C49.5369 23.5574 50.2669 23.1752 51.0812 22.9598C51.2777 22.9111 51.4673 22.7999 51.6498 22.7026C51.9867 22.522 52.3096 22.2996 52.6536 22.1398C53.0467 21.9521 53.4257 21.7506 53.7767 21.5004C53.8048 21.4796 53.8258 21.4588 53.8539 21.4449C54.5699 21.146 55.1877 20.6805 55.8615 20.3191C56.1704 20.1523 56.5003 20.0272 56.8232 19.8744C57.111 19.7354 57.3918 19.5895 57.6866 19.4574C57.7428 19.4296 57.82 19.4574 57.9534 19.4574C57.8762 19.5547 57.8411 19.6103 57.799 19.645C57.4199 19.9717 57.0198 20.2496 56.5565 20.4581C56.2827 20.5832 56.0089 20.7291 55.7492 20.882C55.0824 21.2572 54.4085 21.6255 53.7486 22.0216C53.3345 22.2718 52.9133 22.4803 52.4711 22.6679C52.3517 22.7165 52.2324 22.7721 52.1341 22.8555C51.9025 23.0431 51.6357 23.1404 51.369 23.2516C51.1935 23.3281 51.011 23.3906 50.8285 23.4462C50.2107 23.6408 49.6281 23.9048 49.0665 24.2731Z" fill="#E67803"/>
<path fill-rule="evenodd" clip-rule="evenodd" d="M9.70801 45.7944C10.3047 45.3496 10.8311 44.9466 11.3717 44.5505C11.9894 44.0988 12.6141 43.6471 13.2459 43.2163C14.2637 42.5283 15.2746 41.8125 16.3626 41.2358C16.5451 41.1385 16.7417 41.0551 16.9382 40.9926C17.1769 40.9092 17.2892 41.0204 17.2822 41.3331C16.7346 41.5346 16.2222 41.8403 15.7238 42.1461C15.1412 42.5075 14.5586 42.8758 13.983 43.2579C13.1968 43.7791 12.4316 44.3351 11.6384 44.8493C11.126 45.1828 10.5925 45.4678 10.059 45.7666C9.98879 45.8013 9.8835 45.7805 9.70801 45.7944Z" fill="#E67803"/>
<path fill-rule="evenodd" clip-rule="evenodd" d="M16.9521 54.4459C17.0013 54.3347 17.0364 54.2165 17.0925 54.1054C17.626 53.0908 18.2297 52.1179 18.8545 51.159C19.5354 50.1235 20.2303 49.0951 20.8129 47.9971C20.9463 47.747 21.1078 47.5037 21.2762 47.2744C21.3675 47.1493 21.5009 47.0521 21.6342 46.9617C21.7185 46.8992 21.8799 46.9478 21.9361 47.0243C21.9993 47.1077 22.0063 47.2466 21.908 47.33C21.3464 47.8165 21.1007 48.5044 20.7006 49.0951C20.49 49.3939 20.3216 49.7205 20.118 50.0263C19.3458 51.159 18.5667 52.2847 17.8015 53.4174C17.5558 53.7788 17.3312 54.161 16.9521 54.4459Z" fill="#E67803"/>
<path fill-rule="evenodd" clip-rule="evenodd" d="M9.6582 19.4365C9.80562 19.4643 9.86177 19.4574 9.88985 19.4782C10.2478 19.7701 10.6129 20.0619 10.9568 20.3677C11.6588 21.0001 12.3959 21.5768 13.182 22.1119C13.7085 22.4733 14.221 22.8624 14.7334 23.2446C15.0142 23.4531 15.2879 23.6755 15.5757 23.877C15.7021 23.9673 15.8495 24.0368 15.9969 24.0993C16.2496 24.2036 16.5093 24.287 16.7621 24.3843C16.9024 24.4399 16.9586 24.5302 16.9375 24.6275C16.9095 24.7665 16.7621 24.8707 16.6146 24.8429C16.5515 24.829 16.4953 24.8012 16.4321 24.7873C15.7302 24.6066 15.1405 24.2244 14.579 23.8005C14.4386 23.6963 14.3122 23.5712 14.2139 23.4322C14.0384 23.196 13.7998 23.0361 13.5681 22.8694C12.9644 22.4177 12.3608 21.9799 11.7571 21.5212C11.5044 21.3267 11.2446 21.1321 11.02 20.9097C10.5778 20.458 10.1566 19.9786 9.6582 19.4365Z" fill="#E67803"/>
<path fill-rule="evenodd" clip-rule="evenodd" d="M58.6058 30.2978C58.2619 30.3325 57.9109 30.3811 57.5669 30.4089C56.3525 30.4993 55.1311 30.5062 53.9237 30.673C53.0533 30.7911 52.1829 30.9232 51.3054 31.0483C51.0036 31.09 50.7017 31.1178 50.3999 31.1386C50.2735 31.1455 50.1472 31.1247 50.0208 31.0969C49.9085 31.0761 49.8102 30.9996 49.7822 30.8884C49.7681 30.8189 49.7751 30.7286 49.8102 30.673C49.8383 30.6313 49.9366 30.5896 49.9787 30.6105C50.4561 30.7981 50.9334 30.6383 51.3967 30.5757C52.6392 30.4159 53.8746 30.2352 55.1241 30.1588C55.8612 30.1171 56.5982 30.131 57.3353 30.1171C57.7214 30.1101 58.1004 30.0754 58.4795 30.1588C58.5216 30.1657 58.5637 30.1935 58.6058 30.2074C58.6058 30.2352 58.6058 30.27 58.6058 30.2978Z" fill="#E67803"/>
<path fill-rule="evenodd" clip-rule="evenodd" d="M57.968 38.2546C57.8768 38.2407 57.7855 38.2268 57.6943 38.206C56.887 37.9975 56.0868 37.7682 55.2795 37.5736C54.4372 37.3721 53.5878 37.2053 52.7525 37.0038C51.9522 36.8162 51.138 36.7328 50.3307 36.6146C50.092 36.5799 49.8674 36.4965 49.6358 36.4409C49.4813 36.4062 49.4392 36.288 49.4252 36.156C49.4111 36.0309 49.5094 35.9267 49.6287 35.9545C50.8431 36.3089 52.1207 36.3645 53.3421 36.705C54.5916 37.0524 55.8551 37.3373 57.0836 37.7682C57.3924 37.8863 57.7013 38.0114 57.968 38.2546Z" fill="#E67803"/>
<path fill-rule="evenodd" clip-rule="evenodd" d="M57.8133 37.0036C57.0271 36.8786 56.3041 36.677 55.567 36.5172C54.6896 36.3226 53.8121 36.142 52.9346 35.9613C52.3661 35.8501 51.7975 35.7459 51.2289 35.6486C50.8639 35.586 50.4988 35.5443 50.1338 35.4887C49.8952 35.4471 49.6635 35.3984 49.4319 35.3289C49.2213 35.2664 49.2002 35.1969 49.2213 34.9259C49.2634 34.9189 49.3125 34.8911 49.3546 34.8981C50.1268 35.0232 50.906 35.1482 51.6781 35.2942C52.359 35.4193 53.0259 35.5721 53.6998 35.725C54.1701 35.8293 54.6334 35.9474 55.1037 36.0655C55.7565 36.2323 56.4023 36.406 57.0481 36.6006C57.3009 36.677 57.5325 36.816 57.7782 36.9272C57.7852 36.9133 57.7852 36.9411 57.8133 37.0036Z" fill="#E67803"/>
<path fill-rule="evenodd" clip-rule="evenodd" d="M57.0903 39.6584C56.8306 39.5958 56.5639 39.5472 56.3041 39.4707C55.4337 39.1997 54.5352 39.019 53.6507 38.8106C52.5486 38.5465 51.4185 38.3797 50.3304 38.0462C49.9795 37.935 49.6285 37.8238 49.2775 37.7126C49.088 37.657 48.9757 37.5319 48.9616 37.3374C48.9546 37.2679 49.0037 37.1984 49.0248 37.1358C49.088 37.1358 49.1231 37.1219 49.1441 37.1289C49.7548 37.4208 50.4147 37.5736 51.0605 37.7474C52.1555 38.0531 53.2646 38.2894 54.3667 38.5882C55.1389 38.7967 55.897 39.0607 56.6551 39.304C56.8236 39.3665 56.9921 39.4499 57.0903 39.6584Z" fill="#E67803"/>
<path fill-rule="evenodd" clip-rule="evenodd" d="M52.5976 47.8651C52.4783 47.8164 52.3941 47.7886 52.3169 47.7539C52.2467 47.7192 52.1694 47.6844 52.1063 47.6427C51.3692 47.1354 50.6392 46.6212 49.8951 46.1209C48.9545 45.4885 48.0068 44.8631 47.0592 44.2307C46.7433 44.0153 46.4344 43.786 46.1326 43.5567C45.9852 43.4455 45.8869 43.2996 45.8939 43.1119C45.8939 43.0494 45.9571 42.966 46.0132 42.9313C46.0483 42.9104 46.1466 42.9382 46.1817 42.9729C46.7222 43.5497 47.4242 43.918 48.07 44.3558C48.9194 44.9326 49.7687 45.4955 50.576 46.1209C51.0814 46.51 51.5938 46.8922 52.0992 47.2814C52.2607 47.4064 52.4081 47.5524 52.5555 47.6983C52.5836 47.7261 52.5766 47.7817 52.5976 47.8651Z" fill="#E67803"/>
<path fill-rule="evenodd" clip-rule="evenodd" d="M21.3037 55.8219C21.3458 55.7038 21.3809 55.5857 21.4371 55.4745C22.0899 54.182 22.6374 52.8408 23.2201 51.5135C23.4868 50.902 23.7816 50.2974 24.0554 49.6929C24.1677 49.4496 24.2519 49.1856 24.3643 48.9424C24.4766 48.713 24.5819 48.7061 24.8837 48.8937C24.8556 48.9702 24.8346 49.0605 24.7995 49.1439C24.3853 50.0542 23.9712 50.9715 23.55 51.8818C23.2411 52.5489 22.9323 53.2091 22.6094 53.8623C22.3988 54.2931 22.1812 54.717 21.9495 55.134C21.7951 55.4119 21.5775 55.6413 21.3037 55.8219Z" fill="#E67803"/>
<path fill-rule="evenodd" clip-rule="evenodd" d="M40.6506 47.344C40.7138 47.4065 40.8051 47.4621 40.8261 47.5386C40.9104 47.8374 41.0929 48.0806 41.2684 48.3238C41.7597 48.9909 42.2511 49.6511 42.7425 50.3251C42.911 50.5545 43.0584 50.8046 43.2268 51.0339C43.6621 51.6455 44.1113 52.2431 44.5395 52.8546C44.8624 53.3271 45.1572 53.8205 45.4591 54.3C45.3608 54.3973 45.3187 54.3139 45.2836 54.2792C44.8975 53.7997 44.5114 53.3132 44.1253 52.8268C43.655 52.2292 43.1707 51.6316 42.7214 51.0131C42.1528 50.2279 41.5632 49.4565 40.9595 48.6921C40.7559 48.435 40.5945 48.1362 40.4401 47.8374C40.3488 47.6359 40.419 47.4621 40.6506 47.344Z" fill="#E67803"/>
<path fill-rule="evenodd" clip-rule="evenodd" d="M27.4883 57.4619C27.5093 57.4202 27.5444 57.3785 27.5444 57.3368C27.5374 57.0171 27.6006 56.7044 27.6497 56.3917C27.7831 55.53 27.8884 54.6614 28.0358 53.7997C28.2394 52.5975 28.471 51.3954 28.6957 50.1932C28.7097 50.1167 28.7237 50.0333 28.7518 49.9638C28.7939 49.8735 28.8571 49.7971 28.9694 49.811C29.0888 49.8249 29.1309 49.9083 29.1449 50.0055C29.1519 50.082 29.1519 50.1654 29.1379 50.2418C29.0186 50.9298 28.8922 51.6177 28.7658 52.3057C28.6746 52.806 28.5833 53.3063 28.4851 53.7997C28.2885 54.7934 28.099 55.7941 27.8884 56.7878C27.8393 57.0102 27.7199 57.2256 27.6217 57.441C27.6146 57.4688 27.5374 57.4619 27.4883 57.4619Z" fill="#E67803"/>
<path fill-rule="evenodd" clip-rule="evenodd" d="M28.8851 57.6217C28.8922 56.8782 29.0396 56.1416 29.1238 55.405C29.208 54.7309 29.2853 54.0499 29.3695 53.3758C29.4748 52.4655 29.5801 51.5482 29.6854 50.6379C29.6994 50.5128 29.7345 50.3877 29.7766 50.2696C29.8538 50.0611 30.1487 50.0264 30.282 50.2001C30.3101 50.2418 30.3171 50.3252 30.2961 50.3738C30.1557 50.6796 30.1065 51.0131 30.0574 51.3397C30.0223 51.5413 30.0153 51.7497 29.9942 51.9513C29.8538 53.0353 29.7205 54.1194 29.566 55.2034C29.4958 55.7038 29.3976 56.2041 29.2782 56.6975C29.208 57.0032 29.0676 57.2951 28.9553 57.5939C28.9483 57.6078 28.8992 57.6078 28.8711 57.6148L28.8851 57.6217Z" fill="#E67803"/>
<path fill-rule="evenodd" clip-rule="evenodd" d="M29.987 57.865C29.9168 57.3091 30.0572 56.8366 30.1134 56.3501C30.1344 56.1764 30.1555 56.0027 30.1765 55.8289C30.3169 54.5851 30.4433 53.3412 30.6047 52.0973C30.6679 51.597 30.8083 51.1036 30.8996 50.6102C30.9347 50.4295 31.0048 50.2836 31.1523 50.1446C31.1874 50.1446 31.2365 50.1307 31.2786 50.1446C31.4401 50.1932 31.4822 50.2488 31.4541 50.3739C31.412 50.5407 31.3558 50.7075 31.3137 50.8812C31.0821 51.8263 30.9768 52.7852 30.8434 53.7442C30.717 54.6545 30.5767 55.5649 30.4433 56.4752C30.3731 56.9408 30.1906 57.3716 29.987 57.865Z" fill="#E67803"/>
<path fill-rule="evenodd" clip-rule="evenodd" d="M12.424 17.2476C12.7258 17.5047 13.0347 17.7479 13.3225 18.012C14.2069 18.7972 15.0844 19.5894 15.9618 20.3816C16.3549 20.736 16.7129 21.1182 17.1341 21.4378C17.464 21.688 17.7238 22.0216 18.1098 22.1953C18.2081 22.237 18.2502 22.3412 18.2222 22.4316C18.2011 22.4941 18.1309 22.5566 18.0677 22.5914C17.9414 22.6678 17.808 22.6192 17.7027 22.5497C17.4921 22.4038 17.2956 22.2439 17.106 22.0772C16.8674 21.8687 16.6427 21.6394 16.3971 21.4378C16.1654 21.2433 15.9197 21.0695 15.7583 20.7985C15.5758 20.4928 15.2809 20.2912 15.0212 20.055C14.586 19.6519 14.1367 19.2697 13.7085 18.8597C13.4909 18.6513 13.3154 18.4011 13.1259 18.1718C12.8802 17.8799 12.6275 17.595 12.3818 17.3032C12.3889 17.2893 12.4029 17.2684 12.424 17.2476Z" fill="#E67803"/>
<path fill-rule="evenodd" clip-rule="evenodd" d="M8.59082 25.0999C9.20153 25.0791 9.75608 25.1903 10.2966 25.3223C11.4618 25.6072 12.6271 25.9199 13.7924 26.2257C13.8696 26.2465 13.9538 26.2604 14.017 26.3021C14.4522 26.5592 14.9506 26.6357 15.4139 26.7886C15.5192 26.8233 15.6315 26.865 15.7157 26.9275C15.7789 26.9831 15.821 27.0804 15.8421 27.1638C15.8702 27.268 15.7859 27.3584 15.6806 27.3514C15.6034 27.3445 15.5192 27.3306 15.449 27.3097C15.0489 27.1986 14.6487 27.0874 14.2486 26.9692C13.9608 26.8789 13.673 26.8094 13.4133 26.6148C13.2448 26.4828 13.0062 26.4342 12.7885 26.3716C11.9392 26.1215 11.0828 25.906 10.2474 25.635C9.728 25.4682 9.20153 25.3362 8.67506 25.2042C8.66102 25.2042 8.63996 25.1625 8.59082 25.0999Z" fill="#E67803"/>
<path fill-rule="evenodd" clip-rule="evenodd" d="M48.4216 52.1596C48.3303 52.0553 48.232 51.958 48.1548 51.8468C47.144 50.3945 45.9787 49.0672 44.8486 47.7121C44.4836 47.2744 44.0694 46.8713 43.6693 46.4613C43.5149 46.3015 43.3534 46.1486 43.206 45.9818C43.0516 45.8081 43.0726 45.7317 43.3394 45.5232C43.55 45.7247 43.7676 45.9332 43.9852 46.1417C44.7854 46.9269 45.5014 47.7816 46.1612 48.6781C46.428 49.0394 46.7088 49.3799 46.9685 49.7482C47.2703 50.1791 47.5582 50.6169 47.846 51.0546C48.0355 51.3465 48.225 51.6384 48.4075 51.9372C48.4426 51.9997 48.4567 52.0762 48.4777 52.1457C48.4637 52.1387 48.4426 52.1457 48.4216 52.1596Z" fill="#E67803"/>
<path fill-rule="evenodd" clip-rule="evenodd" d="M18.6855 54.5503C19.0576 53.9388 19.4156 53.355 19.7806 52.7783C20.5808 51.4927 21.3039 50.1654 22.0479 48.852C22.2024 48.5741 22.3849 48.31 22.5604 48.0459C22.6376 47.9278 22.7569 47.8931 22.8973 47.9C23.0377 47.907 23.136 48.0529 23.0798 48.171C23.0517 48.2266 23.0096 48.2822 22.9745 48.3309C22.7218 48.7131 22.4551 49.0953 22.2164 49.4844C21.6759 50.3669 21.1775 51.2773 20.6089 52.1389C20.1316 52.8686 19.6823 53.626 19.0646 54.2654C18.9734 54.3557 18.8891 54.453 18.7979 54.5364C18.7768 54.5572 18.7417 54.5503 18.6855 54.5503Z" fill="#E67803"/>
<path fill-rule="evenodd" clip-rule="evenodd" d="M18.4814 12.0776C18.8816 12.432 19.1483 12.8907 19.408 13.3354C19.9064 14.1832 20.468 14.9962 21.0085 15.8232C21.3525 16.3513 21.6403 16.9211 21.9562 17.4701C22.0193 17.5813 22.1036 17.6716 22.1808 17.7689C22.251 17.8593 22.3282 17.9357 22.3844 18.033C22.4545 18.1372 22.4335 18.2901 22.3633 18.3387C22.265 18.4152 22.0825 18.4221 22.0123 18.3318C21.5982 17.8315 21.1419 17.3589 21.0015 16.6849C20.9734 16.5667 20.9243 16.4416 20.8541 16.3374C20.6786 16.0525 20.4891 15.7745 20.2995 15.5035C19.8362 14.8364 19.4431 14.1276 19.036 13.4258C18.8043 13.0019 18.7131 12.5154 18.4814 12.0776Z" fill="#E67803"/>
<path fill-rule="evenodd" clip-rule="evenodd" d="M49.8816 33.1262C50.6959 33.2096 51.5102 33.2791 52.3174 33.3764C53.5108 33.5293 54.7041 33.703 55.8764 33.981C56.4239 34.106 56.9644 34.2311 57.5119 34.3562C57.6102 34.3771 57.6944 34.4049 57.7787 34.5438C57.5962 34.5299 57.4488 34.5299 57.3084 34.5091C56.2975 34.3562 55.2867 34.1825 54.2689 34.0574C53.0615 33.9115 51.8611 33.6613 50.6327 33.6474C50.4432 33.6474 50.2466 33.6127 50.0641 33.571C49.7904 33.5154 49.7553 33.4181 49.8816 33.1262Z" fill="#E67803"/>
<path fill-rule="evenodd" clip-rule="evenodd" d="M37.3377 56.7045C37.1832 56.3779 37.1481 56.0304 37.0639 55.6969C36.8884 54.9742 36.7199 54.2445 36.5585 53.5149C36.3198 52.4308 36.025 51.3537 35.6881 50.2974C35.6459 50.1585 35.6038 50.0195 35.5757 49.8805C35.5547 49.7902 35.5547 49.6929 35.5547 49.5956C35.5547 49.4844 35.66 49.3732 35.7583 49.3593C35.8495 49.3454 35.9829 49.4358 35.9969 49.5539C36.0952 50.3322 36.4181 51.0479 36.5936 51.8054C36.6778 52.1459 36.748 52.4864 36.8182 52.8269C36.9586 53.5079 37.099 54.1959 37.2254 54.8838C37.3026 55.3077 37.3728 55.7247 37.4359 56.1486C37.4851 56.4126 37.464 56.4752 37.3377 56.7045Z" fill="#E67803"/>
<path fill-rule="evenodd" clip-rule="evenodd" d="M54.5913 42.6118C54.121 42.4172 53.6998 42.1879 53.2927 41.9516C52.0151 41.222 50.7375 40.4923 49.453 39.7696C49.0458 39.5403 48.6246 39.3457 48.2175 39.1303C48.1333 39.0886 48.0631 39.0261 47.9999 38.9566C47.9367 38.8871 47.9718 38.7968 48.021 38.7412C48.0561 38.6995 48.1333 38.6578 48.1754 38.6717C48.3158 38.7134 48.4492 38.762 48.5755 38.8315C49.1371 39.1303 49.6986 39.443 50.2672 39.7488C51.3272 40.3117 52.3521 40.944 53.3699 41.5833C53.6507 41.764 53.9315 41.9516 54.2052 42.1462C54.3526 42.2504 54.5211 42.3755 54.5913 42.6118Z" fill="#E67803"/>
<path fill-rule="evenodd" clip-rule="evenodd" d="M56.8583 25.364C56.7179 25.5516 56.5214 25.6072 56.3178 25.6489C55.9598 25.7254 55.5948 25.7949 55.2368 25.8782C54.6121 26.0242 53.9873 26.1701 53.3696 26.3299C52.5623 26.5384 51.7621 26.7608 50.9619 26.9901C50.6109 27.0874 50.2599 27.2125 49.9089 27.3167C49.7896 27.3514 49.6632 27.3931 49.5369 27.4001C49.4456 27.407 49.3474 27.3653 49.2701 27.3306C49.1859 27.2889 49.1859 27.1291 49.2631 27.0874C49.3333 27.0457 49.4035 27.0179 49.4807 26.9901C50.2318 26.7677 50.9759 26.5106 51.741 26.3299C52.8642 26.0589 53.9943 25.8227 55.1175 25.5864C55.4123 25.5238 55.7141 25.4821 56.016 25.4405C56.2968 25.4057 56.5776 25.3849 56.8583 25.364Z" fill="#E67803"/>
<path fill-rule="evenodd" clip-rule="evenodd" d="M40.0331 55.655C39.991 55.5785 39.9419 55.4951 39.9068 55.4118C39.6471 54.7933 39.4786 54.154 39.3242 53.5008C39.0644 52.4028 38.7415 51.3257 38.3625 50.2625C38.208 49.8317 38.0536 49.3939 37.9062 48.963C37.8851 48.9074 37.8711 48.8379 37.8711 48.7824C37.8781 48.6781 37.9413 48.6017 38.0325 48.5669C38.1378 48.5322 38.2291 48.5808 38.2712 48.6712C38.3625 48.8588 38.4537 49.0395 38.5169 49.241C38.7907 50.1374 39.0574 51.0339 39.3312 51.9303C39.5979 52.8128 39.7874 53.7162 39.9559 54.6196C40.0191 54.9601 40.0331 55.3006 40.0753 55.648C40.0612 55.648 40.0472 55.655 40.0331 55.655Z" fill="#E67803"/>
<path fill-rule="evenodd" clip-rule="evenodd" d="M15.022 37.1706C14.4815 37.1567 13.9971 37.386 13.4917 37.5111C12.6494 37.7196 11.8281 37.9767 10.9857 38.1921C10.3188 38.3658 9.63092 38.4492 8.943 38.5187C8.69731 38.5465 8.44461 38.5118 8.13574 38.5048C8.21998 38.4284 8.24806 38.3867 8.28315 38.3797C8.73241 38.2685 9.18166 38.1435 9.64496 38.067C10.4522 37.935 11.2454 37.7196 12.0176 37.4694C12.2633 37.393 12.516 37.3374 12.7546 37.2609C13.246 37.108 13.7304 36.9413 14.2147 36.7884C14.3551 36.7467 14.4955 36.7189 14.6289 36.6702C14.7903 36.6216 14.9097 36.6841 15.015 36.7953C15.1203 36.9135 15.0992 37.0316 15.022 37.1706Z" fill="#E67803"/>
<path fill-rule="evenodd" clip-rule="evenodd" d="M27.5658 7.49805C27.6711 7.53974 27.6781 7.63008 27.6921 7.69957C27.7763 8.13736 27.8606 8.5682 27.9167 9.00599C28.008 9.74954 28.1343 10.4792 28.3239 11.2088C28.4362 11.6397 28.5064 12.0775 28.6327 12.5083C28.8293 13.1893 29.0539 13.8703 29.2785 14.5791C29.2645 14.6625 29.1732 14.732 29.0609 14.7529C28.9416 14.7807 28.8223 14.7181 28.8012 14.6C28.7731 14.4193 28.731 14.2664 28.5696 14.1483C28.5274 14.1205 28.5274 14.0302 28.5134 13.9746C28.2888 13.0017 28.0571 12.0288 27.8465 11.049C27.7553 10.6321 27.6781 10.2082 27.643 9.77734C27.5868 9.11718 27.5798 8.45007 27.5517 7.78991C27.5447 7.69262 27.5587 7.59533 27.5658 7.49805Z" fill="#E67803"/>
<path fill-rule="evenodd" clip-rule="evenodd" d="M11.7295 46.5589C12.1296 46.135 12.5648 45.7945 13.0141 45.4748C13.9758 44.7869 14.9304 44.0919 15.8851 43.397C16.3273 43.0774 16.7626 42.7577 17.2048 42.445C17.3101 42.3686 17.4224 42.306 17.5417 42.2643C17.6119 42.2365 17.6962 42.2504 17.7734 42.2713C17.8857 42.306 17.9208 42.4659 17.8436 42.5493C17.8225 42.5701 17.8015 42.5979 17.7734 42.6187C17.0714 43.1191 16.3765 43.6333 15.6675 44.1197C14.6426 44.8216 13.6037 45.5165 12.5648 46.2045C12.3542 46.3434 12.1156 46.4477 11.8909 46.5658C11.8488 46.5728 11.7997 46.5589 11.7295 46.5589Z" fill="#E67803"/>
<path fill-rule="evenodd" clip-rule="evenodd" d="M13.2812 16.0593C13.3444 16.0802 13.4006 16.0871 13.4287 16.1149C13.92 16.5388 14.3974 16.9836 14.9098 17.3935C15.7662 18.0885 16.5594 18.8459 17.3737 19.5825C17.8791 20.0411 18.3845 20.5137 18.9742 20.875C19.0303 20.9098 19.0795 20.9515 19.1145 21.0001C19.1847 21.0835 19.1847 21.2433 19.1216 21.3128C19.0514 21.3893 18.904 21.424 18.8127 21.3684C18.7004 21.3059 18.6021 21.2225 18.4968 21.146C17.837 20.6666 17.2824 20.0689 16.6858 19.52C16.3839 19.242 16.0891 18.9432 15.7873 18.6652C15.4573 18.3595 15.1274 18.0607 14.7975 17.7618C14.7483 17.7202 14.6992 17.6785 14.6641 17.6298C14.3131 17.1295 13.8218 16.7681 13.4216 16.3164C13.3585 16.247 13.2883 16.1844 13.2812 16.0593Z" fill="#E67803"/>
<path fill-rule="evenodd" clip-rule="evenodd" d="M8.13574 37.4624C8.1919 37.386 8.21998 37.3165 8.26209 37.3026C8.47268 37.2262 8.68327 37.1567 8.90088 37.1011C10.2557 36.7745 11.6175 36.4618 12.9723 36.1352C13.4566 36.017 13.9269 35.8711 14.4113 35.7391C14.5517 35.7043 14.6921 35.6835 14.8395 35.6765C14.9097 35.6765 15.0009 35.7182 15.0501 35.7669C15.0992 35.8155 15.1343 35.9197 15.1203 35.9753C15.1062 36.0309 15.015 36.1074 14.9518 36.1074C14.5447 36.1282 14.1726 36.2741 13.7865 36.3714C13.0074 36.566 12.2422 36.8023 11.449 36.9204C11.1612 36.9621 10.8874 37.0455 10.6066 37.108C10.0872 37.2123 9.56774 37.3095 9.04829 37.4068C8.93598 37.4277 8.83068 37.4485 8.71837 37.4485C8.52884 37.4694 8.36037 37.4624 8.13574 37.4624Z" fill="#E67803"/>
<path fill-rule="evenodd" clip-rule="evenodd" d="M56.8507 26.6844C56.254 27.0388 55.5942 27.1709 54.9484 27.3515C54.2885 27.5392 53.6147 27.692 52.9548 27.8866C52.1405 28.1298 51.3122 28.3105 50.4839 28.4842C50.3295 28.519 50.168 28.512 50.0066 28.512C49.8943 28.512 49.8311 28.4425 49.789 28.3522C49.7468 28.2758 49.7609 28.1993 49.8381 28.1437C49.8802 28.1159 49.9223 28.0951 49.9715 28.0881C50.2031 28.0395 50.4418 27.9978 50.6805 27.9492C51.0876 27.8727 51.5017 27.8102 51.9089 27.7129C52.7372 27.5253 53.5585 27.3098 54.3798 27.1153C55.0817 26.9554 55.7767 26.747 56.4927 26.6775C56.605 26.6705 56.7243 26.6844 56.8507 26.6844Z" fill="#E67803"/>
<path fill-rule="evenodd" clip-rule="evenodd" d="M38.2916 8.98511C38.3829 9.31171 38.3197 9.62442 38.2986 9.93018C38.2074 11.181 37.9757 12.411 37.6809 13.634C37.6318 13.8495 37.5335 14.0579 37.4914 14.2733C37.4422 14.5374 37.4282 14.8084 37.4001 15.0725C37.3791 15.2254 37.2948 15.3157 37.1614 15.3088C37.0281 15.3018 36.9158 15.2045 36.9298 15.0586C36.9438 14.9127 36.9368 14.7806 36.8947 14.6416C36.8666 14.5583 36.8877 14.454 36.9017 14.3637C37 13.8773 37.1474 13.4117 37.344 12.96C37.4142 12.8001 37.4703 12.6334 37.5054 12.4666C37.6669 11.5771 37.8283 10.6876 37.9757 9.79815C38.0108 9.49934 38.2144 9.27002 38.2916 8.98511Z" fill="#E67803"/>
<path fill-rule="evenodd" clip-rule="evenodd" d="M29.1662 7.41455C29.3066 7.85929 29.3909 8.31098 29.4751 8.75572C29.6787 9.86062 29.8752 10.9725 30.0788 12.0843C30.149 12.4735 30.3034 12.8418 30.3315 13.2448C30.3525 13.495 30.3947 13.7451 30.4227 14.0023C30.4298 14.0648 30.4368 14.1273 30.4298 14.1899C30.4227 14.2941 30.3174 14.3845 30.1981 14.3984C30.0788 14.4123 29.9735 14.3428 29.9594 14.2177C29.9314 14.0301 29.9384 13.8424 29.9103 13.6548C29.791 12.953 29.6716 12.2511 29.5453 11.5492C29.433 10.896 29.2996 10.2359 29.2154 9.57571C29.1382 8.95029 29.1101 8.31793 29.075 7.68556C29.0539 7.59523 29.0609 7.49099 29.1662 7.41455Z" fill="#E67803"/>
<path fill-rule="evenodd" clip-rule="evenodd" d="M53.7002 43.4387C53.5247 43.529 53.4194 43.4248 53.3141 43.3692C53.0614 43.2371 52.8227 43.0704 52.57 42.9314C51.9663 42.5978 51.3627 42.2712 50.759 41.9446C50.5624 41.8404 50.3659 41.7292 50.1693 41.6319C49.6428 41.3609 49.1164 41.0968 48.5969 40.8189C48.3302 40.6799 48.0775 40.5131 47.8177 40.3533C47.6703 40.2629 47.6563 40.1309 47.6984 39.978C47.7265 39.8807 47.8388 39.8321 47.923 39.8877C49.0672 40.659 50.3448 41.1802 51.5381 41.8612C52.1208 42.2017 52.6613 42.5909 53.2229 42.9661C53.3983 43.0912 53.5317 43.2788 53.7002 43.4387Z" fill="#E67803"/>
<path fill-rule="evenodd" clip-rule="evenodd" d="M52.6818 46.3156C52.408 46.1558 52.1272 46.0029 51.8535 45.8431C50.7444 45.2037 49.7125 44.4463 48.6315 43.7583C48.0488 43.39 47.4662 43.0287 46.8906 42.6604C46.8134 42.6117 46.7292 42.5562 46.659 42.4936C46.5116 42.3477 46.5256 42.2226 46.687 41.9863C46.7432 42.0141 46.8064 42.028 46.8485 42.0697C47.0942 42.306 47.403 42.445 47.6838 42.6326C48.1822 42.9522 48.6736 43.2789 49.1579 43.6124C49.7616 44.0294 50.3583 44.4671 50.962 44.8841C51.4183 45.2037 51.8886 45.5095 52.3519 45.8292C52.4712 45.9125 52.5765 46.0029 52.6678 46.1141C52.7029 46.1627 52.6748 46.26 52.6748 46.3295L52.6818 46.3156Z" fill="#E67803"/>
<path fill-rule="evenodd" clip-rule="evenodd" d="M55.7913 24.002C55.707 24.1688 55.5315 24.1688 55.3841 24.2105C55.0051 24.3286 54.619 24.4328 54.2329 24.544C53.2853 24.822 52.3376 25.1208 51.404 25.4613C50.8214 25.6767 50.2387 25.8991 49.6491 26.1145C49.5157 26.1632 49.3683 26.191 49.2279 26.2188C49.1647 26.2327 49.0875 26.2327 49.0454 26.1979C48.9893 26.1562 48.9331 26.0867 48.912 26.0172C48.884 25.9338 48.9471 25.8505 49.0314 25.8435C49.3473 25.8157 49.607 25.6559 49.8878 25.5377C50.8916 25.1208 51.9445 24.822 52.9834 24.5162C53.566 24.3495 54.1627 24.1966 54.7524 24.0715C55.0963 24.002 55.4403 23.9325 55.7983 24.009L55.7913 24.002Z" fill="#E67803"/>
<path fill-rule="evenodd" clip-rule="evenodd" d="M45.4448 52.8684C45.2342 52.5974 45.0166 52.3264 44.806 52.0484C44.1602 51.1798 43.5284 50.2973 42.8756 49.4356C42.5316 48.977 42.1526 48.5461 41.8016 48.0944C41.605 47.8443 41.4296 47.5802 41.24 47.3231C41.1558 47.2119 41.1488 47.0938 41.2119 46.9617C41.2751 46.8227 41.4296 46.7949 41.5138 46.9131C41.6331 47.0799 41.7384 47.2605 41.8648 47.4273C42.1877 47.8651 42.5106 48.3029 42.8475 48.7198C43.4091 49.4147 43.9075 50.1513 44.3989 50.9018C44.6796 51.3257 44.9464 51.7635 45.2131 52.1944C45.3325 52.3959 45.4307 52.6113 45.536 52.8198C45.508 52.8337 45.4729 52.8476 45.4448 52.8684Z" fill="#E67803"/>
<path fill-rule="evenodd" clip-rule="evenodd" d="M38.8253 55.6412C38.5726 55.1826 38.376 54.7239 38.2427 54.2375C38.0461 53.5217 37.8215 52.806 37.6039 52.0972C37.3301 51.2216 37.0493 50.3391 36.7686 49.4635C36.7264 49.3176 36.7054 49.1855 36.8247 49.0674C36.937 48.9562 37.1266 48.984 37.1687 49.1369C37.2248 49.3314 37.2669 49.5399 37.3231 49.7345C37.6179 50.6865 37.9268 51.6385 38.2006 52.5975C38.3901 53.2646 38.5656 53.9456 38.6428 54.6336C38.6498 54.6822 38.6428 54.7309 38.6638 54.7726C38.7411 54.9115 38.8183 55.0505 38.8113 55.2173C38.8183 55.3632 38.8253 55.5022 38.8253 55.6412Z" fill="#E67803"/>
<path fill-rule="evenodd" clip-rule="evenodd" d="M16.8682 12.8696C17.0928 12.9322 17.1911 13.0989 17.2893 13.2588C17.8018 14.044 18.3282 14.8223 18.946 15.5311C19.1636 15.7813 19.3812 16.0384 19.5988 16.2955C20.1182 16.9001 20.5956 17.5325 21.0308 18.1996C21.0729 18.2691 21.115 18.3316 21.1501 18.408C21.1712 18.4497 21.1782 18.4984 21.1782 18.547C21.1852 18.6582 21.1291 18.7346 21.0308 18.7694C20.9325 18.8111 20.8413 18.7763 20.7851 18.679C20.2165 17.6228 19.4093 16.7333 18.6441 15.823C18.244 15.3435 17.8649 14.8571 17.5491 14.322C17.4297 14.1205 17.3525 13.8911 17.2472 13.6827C17.1279 13.3978 16.9945 13.1337 16.8682 12.8696Z" fill="#E67803"/>
<path fill-rule="evenodd" clip-rule="evenodd" d="M36.1085 14.8154C35.9821 14.7876 35.8979 14.7598 35.8066 14.7389C35.561 14.0093 35.6873 13.3352 35.9892 12.6681C36.0664 12.5013 36.0945 12.2998 36.1296 12.1191C36.2629 11.3825 36.3823 10.6459 36.5297 9.91626C36.6069 9.52712 36.7122 9.14492 36.9368 8.80441C36.993 8.71407 37.007 8.59594 37.0491 8.4917C37.0983 8.35967 37.1334 8.22069 37.3088 8.11646C37.2667 8.35967 37.2457 8.58204 37.1825 8.79051C36.9438 9.58271 36.8034 10.3957 36.6771 11.2088C36.5928 11.7578 36.5156 12.3067 36.4384 12.8557C36.4244 12.953 36.4103 13.0433 36.3893 13.1337C36.2629 13.6201 36.0945 14.1065 36.1717 14.6277C36.1717 14.6764 36.1436 14.7181 36.1085 14.8154Z" fill="#E67803"/>
<path fill-rule="evenodd" clip-rule="evenodd" d="M8.52832 30.5482C8.67573 30.5065 8.82314 30.4995 8.97758 30.5065C9.60232 30.5343 10.2271 30.5621 10.8518 30.5829C11.1045 30.5899 11.3713 30.6107 11.617 30.576C12.2768 30.4857 12.9296 30.5551 13.5895 30.5412C13.6526 30.5412 13.7299 30.5273 13.779 30.5551C14.0247 30.6872 14.2704 30.6663 14.5231 30.6177C14.6564 30.5899 14.7407 30.6594 14.7688 30.7914C14.8039 30.9373 14.7477 31.0624 14.6143 31.0972C14.3967 31.1528 14.1791 31.2223 13.9545 31.1875C13.6877 31.1458 13.407 31.1389 13.1472 31.0694C12.8313 30.9929 12.5155 30.979 12.1926 30.986C11.4695 30.9999 10.7465 31.0138 10.0305 30.9165C9.52511 30.847 9.02671 30.7497 8.52832 30.6663C8.52832 30.6177 8.52832 30.5829 8.52832 30.5482Z" fill="#E67803"/>
<path fill-rule="evenodd" clip-rule="evenodd" d="M23.3471 55.106C23.326 54.9809 23.305 54.9462 23.319 54.9184C23.4805 54.4736 23.6489 54.0289 23.8174 53.5841C23.8876 53.3896 23.9859 53.2089 24.0561 53.0143C24.4421 52.0067 24.8212 50.9991 25.2073 49.9915C25.3055 49.7274 25.4179 49.4633 25.5372 49.1993C25.5653 49.1298 25.6144 49.0603 25.6706 49.0047C25.7478 48.9283 25.8882 48.9213 25.9865 48.9769C26.0777 49.0325 26.1128 49.1576 26.0566 49.2688C25.4459 50.4918 25.0318 51.7982 24.4632 53.0352C24.1964 53.6258 23.8876 54.2026 23.5928 54.7794C23.5366 54.8906 23.4524 54.967 23.3471 55.106Z" fill="#E67803"/>
<path fill-rule="evenodd" clip-rule="evenodd" d="M19.7461 11.8899C19.9567 12.1818 20.1743 12.4736 20.3849 12.7655C20.6165 13.0921 20.8341 13.4256 21.0588 13.7453C21.508 14.3846 21.9643 15.01 22.4135 15.6493C22.575 15.8856 22.7294 16.1288 22.8768 16.372C23.0313 16.6292 23.1576 16.9071 23.3823 17.1225C23.4805 17.2129 23.5437 17.338 23.4946 17.47C23.4595 17.5603 23.3612 17.6298 23.2699 17.7341C23.0594 17.4839 22.8277 17.3241 22.6873 17.0392C22.3785 16.4137 22.0415 15.8022 21.6274 15.2324C21.129 14.5514 20.6867 13.8356 20.2234 13.1338C20.2024 13.106 20.1813 13.0851 20.1743 13.0504C20.0901 12.6473 19.8163 12.3207 19.7461 11.8899Z" fill="#E67803"/>
<path fill-rule="evenodd" clip-rule="evenodd" d="M53.0541 44.7937C52.6821 44.5782 52.3171 44.3559 51.945 44.1474C51.4045 43.8416 50.864 43.5359 50.3165 43.2301C49.8953 43.0008 49.4671 42.7784 49.053 42.5422C48.4984 42.2295 47.9439 41.9098 47.3963 41.5832C47.3121 41.5345 47.2349 41.479 47.1717 41.4095C47.0875 41.3191 47.0875 41.2079 47.1436 41.1037C47.1857 41.0203 47.263 41.0064 47.3472 41.0203C47.3753 41.0273 47.4104 41.0412 47.4385 41.0551C48.6809 41.8612 49.9936 42.57 51.2641 43.3274C51.7836 43.6401 52.303 43.9598 52.7663 44.3489C52.8997 44.4601 53.012 44.5852 53.1314 44.7103C53.0963 44.7381 53.0752 44.7659 53.0541 44.7937Z" fill="#E67803"/>
<path fill-rule="evenodd" clip-rule="evenodd" d="M56.5855 35.5516C56.417 35.5516 56.2836 35.5725 56.1643 35.5516C55.1254 35.357 54.0865 35.1555 53.0476 34.947C52.2474 34.7872 51.4471 34.6274 50.6399 34.4745C50.324 34.412 50.0081 34.3633 49.6922 34.3077C49.5729 34.2869 49.4816 34.2174 49.4536 34.0993C49.4395 34.0437 49.4395 33.9603 49.4676 33.9186C49.4957 33.8769 49.5799 33.8491 49.6361 33.863C50.0923 33.9394 50.5486 34.0228 51.0049 34.1201C52.1631 34.3633 53.3284 34.6065 54.4866 34.8567C54.8165 34.9262 55.1465 34.9957 55.4694 35.086C55.7923 35.1764 56.1082 35.2945 56.424 35.4057C56.4802 35.4196 56.5153 35.4821 56.5855 35.5516Z" fill="#E67803"/>
<path fill-rule="evenodd" clip-rule="evenodd" d="M56.886 28.6094C56.6894 28.658 56.4929 28.7345 56.2893 28.7623C55.6856 28.8457 55.0819 28.9152 54.4782 28.9846C53.4885 29.1028 52.5057 29.214 51.516 29.3529C51.0246 29.4224 50.5473 29.5614 50.0489 29.5962C49.9225 29.6031 49.8313 29.5892 49.747 29.4919C49.6347 29.3599 49.6839 29.2001 49.8523 29.1653C50.0278 29.1306 50.2033 29.1097 50.3718 29.0819C51.0386 28.9916 51.7055 28.8874 52.3794 28.8109C53.0182 28.7414 53.657 28.7067 54.2957 28.6511C54.745 28.6094 55.1872 28.5399 55.6365 28.5191C56.0506 28.4982 56.4718 28.5121 56.886 28.5121C56.886 28.5538 56.886 28.5816 56.886 28.6094Z" fill="#E67803"/>
<path fill-rule="evenodd" clip-rule="evenodd" d="M26.2675 8.21387C26.3868 8.60301 26.5131 8.95742 26.6114 9.31877C26.8711 10.2708 27.1941 11.195 27.5661 12.1053C27.8679 12.8419 28.0645 13.6133 28.1838 14.3985C28.1979 14.475 28.1979 14.5584 28.1768 14.6348C28.1487 14.7599 28.0364 14.8016 27.9241 14.8155C27.8328 14.8294 27.7626 14.7599 27.7416 14.6418C27.6924 14.3638 27.6503 14.0789 27.6012 13.794C27.4889 13.1686 27.2362 12.5779 27.0326 11.9803C26.8501 11.4591 26.6816 10.931 26.5061 10.4028C26.4921 10.3542 26.478 10.3125 26.471 10.2638C26.3798 9.62453 26.2885 8.97826 26.1973 8.33895C26.2043 8.31115 26.2324 8.28336 26.2675 8.21387Z" fill="#E67803"/>
<path fill-rule="evenodd" clip-rule="evenodd" d="M41.7669 54.6475C41.6546 54.6753 41.6335 54.5919 41.6054 54.5224C41.3176 53.8831 41.0298 53.2438 40.749 52.6114C40.4542 51.9582 40.1594 51.305 39.8716 50.6518C39.6259 50.0959 39.3872 49.54 39.1626 48.984C39.0994 48.8242 39.0643 48.6505 39.0362 48.4768C39.0152 48.3586 39.1064 48.2613 39.2258 48.2405C39.2679 48.2335 39.3311 48.2335 39.3591 48.2544C39.4925 48.3656 39.6399 48.4907 39.6048 48.6852C39.5838 48.8242 39.6259 48.9354 39.675 49.0466C40.1313 50.1445 40.5806 51.2494 41.0509 52.3474C41.2615 52.8338 41.4019 53.3272 41.5493 53.8345C41.6265 54.1055 41.6897 54.3835 41.7599 54.6614L41.7669 54.6475Z" fill="#E67803"/>
<path fill-rule="evenodd" clip-rule="evenodd" d="M42.3627 46.2251C43.5771 47.1493 46.048 50.3181 46.7359 51.7635C46.6587 51.8399 46.6236 51.7566 46.5885 51.7218C46.4271 51.5411 46.2796 51.3605 46.1252 51.1728C45.5356 50.4432 44.9319 49.7205 44.3563 48.9769C43.7947 48.2612 43.1419 47.6288 42.5382 46.9478C42.454 46.8505 42.3697 46.7532 42.2925 46.6559C42.1662 46.4822 42.1662 46.4683 42.3627 46.2251Z" fill="#E67803"/>
<path fill-rule="evenodd" clip-rule="evenodd" d="M20.7568 54.0567C20.9815 53.6259 21.2061 53.195 21.4377 52.7572C22.1186 51.4786 22.7925 50.2 23.2769 48.831C23.3541 48.6086 23.4664 48.3932 23.5717 48.1778C23.6489 48.018 23.7963 47.9624 23.9718 47.9693C24.0841 47.9763 24.1543 48.0666 24.1192 48.1639C24.0912 48.2403 24.0701 48.3168 24.021 48.3793C23.7051 48.8657 23.5577 49.4217 23.312 49.9359C23.2769 50.0054 23.2628 50.0888 23.2277 50.1583C22.6662 51.3188 22.0555 52.4515 21.3324 53.5216C21.1921 53.7301 21.0025 53.8969 20.8411 54.0845C20.806 54.0845 20.7849 54.0706 20.7568 54.0567Z" fill="#E67803"/>
<path fill-rule="evenodd" clip-rule="evenodd" d="M8.01599 27.1082C8.26168 27.136 8.50737 27.1637 8.76007 27.1915C9.44799 27.2749 10.1289 27.3583 10.8098 27.4417C11.3643 27.5112 11.9259 27.5876 12.4805 27.6432C13.1052 27.7058 13.73 27.7475 14.3477 27.7961C14.3828 27.7961 14.4179 27.7892 14.4389 27.8031C14.6565 27.9351 14.8952 27.9142 15.1409 27.9142C15.3024 27.9073 15.3866 28.0046 15.4006 28.1366C15.4076 28.2617 15.3304 28.3659 15.2181 28.3729C15.1549 28.3798 15.0918 28.3729 15.0286 28.3659C14.1511 28.2547 13.2737 28.1505 12.4033 28.0324C11.5749 27.9212 10.7466 27.8239 9.93235 27.6502C9.37078 27.532 8.79517 27.4556 8.24764 27.2749C8.1634 27.2471 8.07917 27.1985 8.00195 27.1568C8.00897 27.1429 8.00897 27.129 8.01599 27.1082Z" fill="#E67803"/>
<path fill-rule="evenodd" clip-rule="evenodd" d="M12.2136 19.2488C12.9366 19.8256 13.6596 20.4023 14.3756 20.986C14.9442 21.4516 15.4987 21.9311 16.0673 22.3967C16.2288 22.5287 16.4043 22.633 16.5868 22.7442C16.7202 22.8275 16.8676 22.8901 16.9658 23.0221C17.015 23.0916 17.1273 23.1125 17.2115 23.1542C17.2677 23.1819 17.3379 23.1889 17.387 23.2167C17.5134 23.3001 17.5064 23.5155 17.366 23.5711C17.2677 23.6128 17.1413 23.6475 17.0431 23.6197C16.8886 23.585 16.7412 23.5155 16.6078 23.4321C16.3341 23.2653 16.0673 23.0916 15.8848 22.8136C15.8778 22.7998 15.8638 22.7859 15.8567 22.7789C15.5479 22.5774 15.3303 22.2716 15.0565 22.0354C14.5511 21.5976 14.0316 21.1737 13.5262 20.7289C13.3507 20.5761 13.2033 20.3815 13.0419 20.2147C12.7822 19.9506 12.5224 19.7005 12.2627 19.4364C12.2206 19.3947 12.1855 19.3461 12.1504 19.3044C12.1644 19.2835 12.1925 19.2696 12.2136 19.2488Z" fill="#E67803"/>
<path fill-rule="evenodd" clip-rule="evenodd" d="M21.1851 11.313C21.2413 11.3477 21.3045 11.3616 21.3396 11.4103C22.1959 12.397 22.9892 13.4325 23.6701 14.5443C23.8456 14.8292 24.0281 15.1072 24.2036 15.3921C24.4071 15.7187 24.6388 16.0175 24.9266 16.2746C25.095 16.4275 25.0599 16.5456 24.8072 16.7402C24.5194 16.6429 24.3159 16.4136 24.1544 16.1634C23.663 15.3851 23.1998 14.5929 22.7014 13.8147C22.3855 13.3213 22.0415 12.8418 21.6905 12.3692C21.4519 12.0496 21.3185 11.6813 21.1641 11.3199L21.1851 11.313Z" fill="#E67803"/>
<path fill-rule="evenodd" clip-rule="evenodd" d="M8.49316 36.1838C8.9354 35.9545 9.37062 35.8641 9.80583 35.7668C10.957 35.4958 12.1153 35.2318 13.2665 34.9608C13.5964 34.8843 13.9193 34.8148 14.2492 34.7453C14.3896 34.7175 14.5441 34.7036 14.6634 34.8009C14.7196 34.8426 14.7687 34.933 14.7617 34.9955C14.7547 35.058 14.6774 35.1414 14.6143 35.1553C14.3335 35.2179 14.0457 35.2387 13.7649 35.3013C13.1542 35.4333 12.5505 35.5862 11.9328 35.7112C11.0834 35.885 10.234 36.0518 9.38465 36.2116C9.15301 36.2533 8.90732 36.2672 8.66865 36.2811C8.62654 36.2811 8.57038 36.2324 8.49316 36.1838Z" fill="#E67803"/>
<path fill-rule="evenodd" clip-rule="evenodd" d="M53.6435 18.7139C53.6786 18.7973 53.6575 18.8737 53.5803 18.9223C53.3206 19.103 53.0679 19.2976 52.7941 19.4644C52.0009 19.9369 51.2428 20.465 50.4987 21.0279C49.888 21.4935 49.2632 21.9382 48.6525 22.3969C48.5543 22.4664 48.463 22.5081 48.3437 22.4803C48.2384 22.4594 48.1822 22.383 48.1471 22.2926C48.112 22.1884 48.1612 22.0981 48.2524 22.0494C49.165 21.6047 49.909 20.9167 50.7374 20.3469C51.2217 20.0133 51.692 19.652 52.2396 19.4088C52.2536 19.4018 52.2676 19.3949 52.2817 19.3879C52.6607 19.0822 53.124 18.9432 53.5733 18.7764C53.6014 18.7625 53.6224 18.7417 53.6505 18.7208L53.6435 18.7139Z" fill="#E67803"/>
<path fill-rule="evenodd" clip-rule="evenodd" d="M9.4834 39.45C10.9926 39.0261 12.3965 38.6022 13.7583 38.0463C14.1585 37.8865 14.5656 37.7405 14.9727 37.6015C15.1061 37.5529 15.2535 37.5251 15.3939 37.5112C15.5343 37.4904 15.6326 37.5668 15.6887 37.7058C15.7238 37.7961 15.6887 37.9073 15.6045 37.9559C15.5483 37.9837 15.4852 38.0115 15.429 38.0254C14.5165 38.22 13.6671 38.5814 12.7826 38.8663C12.0526 39.1025 11.3085 39.2763 10.5644 39.4639C10.3819 39.5125 10.1854 39.5195 9.98881 39.5195C9.84842 39.5195 9.70803 39.4847 9.4834 39.45Z" fill="#E67803"/>
<path fill-rule="evenodd" clip-rule="evenodd" d="M13.8643 48.5183C14.1029 48.3446 14.3346 48.1848 14.5592 48.0111C15.1137 47.6011 15.6683 47.205 16.2088 46.7811C17.1284 46.0584 18.0269 45.3287 18.9394 44.5991C19.0167 44.5365 19.0939 44.4879 19.1781 44.4392C19.2764 44.3767 19.3606 44.4045 19.4378 44.4809C19.515 44.5643 19.501 44.6547 19.4519 44.745C19.4378 44.7728 19.4168 44.8006 19.3887 44.8145C19.129 45.023 18.8692 45.2384 18.6025 45.4399C18.055 45.8568 17.5074 46.2668 16.9529 46.6768C16.5177 47.0034 16.0895 47.337 15.6402 47.6428C15.2963 47.879 14.9453 48.0944 14.5803 48.296C14.3767 48.4072 14.145 48.4697 13.9204 48.5531C13.9274 48.567 13.9064 48.5461 13.8643 48.5183Z" fill="#E67803"/>
<path fill-rule="evenodd" clip-rule="evenodd" d="M31.3427 56.2667C31.3146 56.1902 31.2725 56.1207 31.2725 56.0512C31.2725 55.94 31.3005 55.8289 31.3146 55.7246C31.3918 55.3007 31.3637 54.8699 31.3988 54.446C31.462 53.5913 31.5392 52.7365 31.6024 51.8818C31.6375 51.4579 31.6656 51.0271 31.7007 50.6032C31.7217 50.3669 31.7709 50.1306 31.9253 49.9152C31.9814 49.9083 32.0446 49.8944 32.1008 49.9013C32.2692 49.9361 32.3745 50.0681 32.3043 50.2001C32.171 50.4503 32.1499 50.7213 32.1148 50.9784C32.0516 51.4509 32.0236 51.9235 31.9744 52.396C31.9323 52.806 31.8691 53.216 31.82 53.626C31.7709 54.0985 31.7147 54.5711 31.6936 55.0436C31.6796 55.4467 31.5532 55.815 31.4269 56.1902C31.4269 56.218 31.3918 56.2319 31.3427 56.2667Z" fill="#E67803"/>
<path fill-rule="evenodd" clip-rule="evenodd" d="M26.7159 55.2521C26.6738 54.4808 26.737 53.7581 26.8844 53.0423C27.102 52 27.3337 50.9646 27.5653 49.9291C27.5934 49.7971 27.6846 49.672 27.7689 49.5608C27.8321 49.4844 27.9514 49.4636 28.0286 49.533C28.0777 49.5817 28.1128 49.679 28.0988 49.7415C27.9093 50.5615 27.7057 51.3746 27.5162 52.1945C27.3477 52.9033 27.2003 53.6191 27.0459 54.3349C26.9897 54.5989 26.9335 54.863 26.8633 55.1201C26.8493 55.1618 26.7791 55.1965 26.7159 55.2521Z" fill="#E67803"/>
<path fill-rule="evenodd" clip-rule="evenodd" d="M13.4639 47.1842C13.5341 47.0521 13.6604 46.9826 13.7727 46.9062C14.0676 46.7116 14.3413 46.4962 14.6151 46.2669C15.0222 45.9264 15.4504 45.6206 15.8646 45.301C16.5034 44.8145 17.1351 44.335 17.7739 43.8556C17.9424 43.7305 18.1179 43.6262 18.3004 43.5289C18.4267 43.4664 18.5531 43.5151 18.6514 43.6123C18.7216 43.6818 18.7216 43.8139 18.6373 43.8625C17.8862 44.2655 17.2545 44.8423 16.5455 45.294C16.1945 45.5164 15.8716 45.7804 15.5347 46.0237C15.1065 46.3294 14.6712 46.6352 14.236 46.927C14.0886 47.0243 13.9412 47.1216 13.7797 47.1842C13.6955 47.2397 13.5762 47.3092 13.4639 47.1842Z" fill="#E67803"/>
<path fill-rule="evenodd" clip-rule="evenodd" d="M51.4324 16.3303C51.2288 16.6778 50.8919 16.8862 50.6041 17.1573C50.5479 17.2129 50.4847 17.2615 50.4216 17.3101C49.8389 17.7132 49.3546 18.2135 48.8492 18.7C48.2314 19.2976 47.6137 19.9021 46.9258 20.4233C46.8345 20.4928 46.7503 20.5623 46.652 20.6179C46.5327 20.6943 46.4063 20.6596 46.3291 20.5345C46.2659 20.4303 46.287 20.326 46.3993 20.2496C47.3961 19.5964 48.1963 18.7208 49.0738 17.9425C49.502 17.5603 49.9372 17.199 50.4567 16.9349C50.8006 16.7612 51.1095 16.5318 51.4324 16.3303Z" fill="#E67803"/>
<path fill-rule="evenodd" clip-rule="evenodd" d="M44.4062 44.6685C44.8344 45.1062 45.2907 45.5301 45.6978 45.9957C46.3296 46.7115 46.9403 47.4481 47.5369 48.1847C47.8388 48.553 48.0985 48.9491 48.3793 49.3382C48.4003 49.366 48.3723 49.4216 48.3652 49.4911C48.1055 49.3452 47.93 49.1367 47.7545 48.9421C46.9824 48.0735 46.2172 47.1979 45.4381 46.3362C45.2134 46.0861 44.9607 45.8706 44.715 45.6344C44.5676 45.4884 44.4132 45.3495 44.2728 45.1966C44.0763 44.9812 44.0973 44.8908 44.4062 44.6685Z" fill="#E67803"/>
<path fill-rule="evenodd" clip-rule="evenodd" d="M8.62012 35.0511C8.67627 34.8704 8.83071 34.8565 8.96408 34.8218C9.31506 34.7245 9.67306 34.6341 10.0311 34.5577C11.077 34.3284 12.1229 34.1129 13.1688 33.8836C13.4215 33.828 13.6602 33.7516 13.9129 33.7099C14.0673 33.6821 14.2288 33.696 14.3902 33.7168C14.4604 33.7238 14.5447 33.7724 14.5868 33.835C14.6289 33.8906 14.6429 33.9809 14.6289 34.0504C14.6219 34.0921 14.5377 34.1477 14.4885 34.1477C13.6532 34.2033 12.8529 34.4326 12.0316 34.5716C10.9436 34.7453 9.86259 34.9816 8.76051 35.0858C8.71839 35.0789 8.67627 35.065 8.62012 35.0511Z" fill="#E67803"/>
<path fill-rule="evenodd" clip-rule="evenodd" d="M52.5276 17.6715C52.3241 17.8383 52.1416 18.012 51.931 18.144C51.1448 18.6444 50.4007 19.1933 49.6777 19.7701C49.3197 20.062 48.9757 20.3816 48.6247 20.6804C48.3931 20.875 48.1544 21.0626 47.9158 21.2503C47.8526 21.2989 47.7894 21.3475 47.7192 21.3892C47.6771 21.4101 47.628 21.424 47.5858 21.4309C47.4805 21.4518 47.3682 21.3823 47.3191 21.2711C47.27 21.1599 47.3331 21.0904 47.4104 21.0348C47.6209 20.8889 47.8456 20.7708 48.0491 20.6109C48.5475 20.2149 49.0459 19.8118 49.5303 19.3949C50.0146 18.9779 50.5411 18.6096 51.0816 18.2761C51.5098 18.005 52.0012 17.8522 52.4645 17.6367C52.4715 17.6228 52.4926 17.6437 52.5276 17.6715Z" fill="#E67803"/>
<path fill-rule="evenodd" clip-rule="evenodd" d="M49.0466 25.1486C48.8781 25.1069 48.8079 24.9888 48.7588 24.8359C48.8149 24.7942 48.8571 24.7386 48.9062 24.7177C49.8679 24.3286 50.8366 23.9394 51.7983 23.5503C52.1703 23.3974 52.5424 23.2515 52.9074 23.0986C53.469 22.8623 54.0516 22.7095 54.6553 22.6052C54.6693 22.6052 54.6833 22.6191 54.7395 22.64C54.557 22.7442 54.4026 22.8554 54.2341 22.9318C53.2864 23.3488 52.3318 23.7588 51.3771 24.1688C50.5979 24.4954 49.8188 24.822 49.0466 25.1486Z" fill="#E67803"/>
<path fill-rule="evenodd" clip-rule="evenodd" d="M44.5392 11.1253C44.3848 11.3546 44.2374 11.5978 44.0689 11.8202C43.3248 12.8139 42.6509 13.8493 42.1174 14.9751C41.8928 15.4476 41.605 15.8854 41.3383 16.3371C41.3102 16.3927 41.261 16.4483 41.2049 16.4691C41.1347 16.49 41.0364 16.49 40.9873 16.4552C40.9381 16.4205 40.9101 16.3232 40.9171 16.2537C40.9241 16.1842 40.9873 16.1147 41.0224 16.0452C41.4506 15.2808 41.8788 14.5164 42.314 13.759C42.686 13.1127 43.0861 12.4873 43.5986 11.9314C43.8794 11.6326 44.1882 11.3685 44.455 11.0627C44.4901 11.0836 44.5181 11.1044 44.5392 11.1253Z" fill="#E67803"/>
<path fill-rule="evenodd" clip-rule="evenodd" d="M14.748 29.756C14.2005 29.7768 13.674 29.7838 13.1546 29.6656C13.0142 29.6378 12.8808 29.6239 12.7685 29.4989C12.7194 29.4363 12.593 29.4294 12.5018 29.4155C12.0104 29.3599 11.519 29.3112 11.0206 29.2487C10.8802 29.2348 10.7328 29.207 10.5994 29.1792C10.3327 29.1167 10.073 29.0541 9.80623 28.9916C9.71498 28.9707 9.63074 28.9499 9.56055 28.8734C9.60266 28.8387 9.62372 28.804 9.64478 28.804C10.0449 28.8248 10.445 28.8456 10.8381 28.8804C11.6173 28.9429 12.4035 29.0194 13.1827 29.0958C13.4845 29.1236 13.7864 29.1167 14.0671 29.2695C14.1795 29.3251 14.3479 29.2834 14.4883 29.2765C14.6217 29.2695 14.748 29.2556 14.8253 29.3877C14.9165 29.5128 14.8604 29.617 14.748 29.756Z" fill="#E67803"/>
<path fill-rule="evenodd" clip-rule="evenodd" d="M10.8594 40.8049C11.1753 40.4922 11.5122 40.2837 11.8632 40.0961C12.3686 39.8251 12.888 39.5749 13.4145 39.3317C14.1586 38.9912 14.9027 38.6646 15.6678 38.3311C15.724 38.3589 15.8012 38.3797 15.8644 38.4283C16.0328 38.5743 16.0048 38.7549 15.8012 38.8383C15.5204 38.9565 15.2326 39.0607 14.9518 39.158C13.7795 39.5888 12.6353 40.0961 11.5262 40.6729C11.3718 40.7563 11.2033 40.8188 11.0419 40.8814C10.9998 40.8883 10.9366 40.8397 10.8594 40.8049Z" fill="#E67803"/>
<path fill-rule="evenodd" clip-rule="evenodd" d="M50.4847 15.6909C50.1057 16.0314 49.7266 16.365 49.3546 16.7055C48.807 17.2128 48.2665 17.734 47.726 18.2482C47.1995 18.7624 46.6731 19.2697 46.0553 19.6797C45.9781 19.7353 45.8939 19.7978 45.8097 19.8117C45.7465 19.8256 45.6412 19.7839 45.6061 19.7283C45.571 19.6797 45.578 19.5616 45.6131 19.5129C45.7044 19.4087 45.8237 19.3184 45.936 19.235C46.5116 18.8319 47.0311 18.3594 47.5295 17.866C47.8945 17.5046 48.2665 17.1572 48.6526 16.8236C48.8772 16.6291 49.1089 16.4484 49.3967 16.3233C49.6424 16.2191 49.8459 16.0175 50.0635 15.8577C50.1759 15.7743 50.2952 15.6979 50.4075 15.6145C50.4426 15.6562 50.4637 15.677 50.4847 15.6909Z" fill="#E67803"/>
<path fill-rule="evenodd" clip-rule="evenodd" d="M15.9688 49.2689C15.9898 49.2202 16.0038 49.1577 16.046 49.116C16.776 48.296 17.5131 47.483 18.3484 46.7672C18.7204 46.4476 19.0784 46.107 19.4505 45.7735C19.5909 45.6484 19.7453 45.5303 19.8997 45.4191C20.0191 45.3357 20.1314 45.3635 20.2437 45.4747C20.3209 45.5511 20.3279 45.6623 20.2577 45.7318C20.2156 45.7735 20.1595 45.8152 20.1103 45.8499C19.5417 46.2113 19.0714 46.6908 18.566 47.1355C18.0044 47.6289 17.4639 48.1501 16.9024 48.6504C16.6286 48.8936 16.3338 49.1021 16.046 49.3314C16.0249 49.3106 15.9968 49.2897 15.9688 49.2689Z" fill="#E67803"/>
<path fill-rule="evenodd" clip-rule="evenodd" d="M35.2376 55.002C34.9919 54.4599 34.8023 53.9874 34.7251 53.4871C34.5988 52.6879 34.5005 51.8888 34.4022 51.0827C34.3601 50.7074 34.3461 50.3252 34.332 49.95C34.332 49.8597 34.3531 49.7624 34.3952 49.679C34.4163 49.6373 34.5005 49.6025 34.5567 49.6025C34.6058 49.6095 34.683 49.6581 34.697 49.6998C34.7321 49.818 34.7462 49.95 34.7602 50.0751C34.8725 51.1939 34.9708 52.3127 35.0972 53.4315C35.1323 53.7581 35.2235 54.0847 35.3007 54.4043C35.3358 54.585 35.3358 54.7448 35.2376 55.002Z" fill="#E67803"/>
<path fill-rule="evenodd" clip-rule="evenodd" d="M45.2058 12.0356C44.4477 13.2517 43.8089 14.5095 43.142 15.7603C42.9665 16.08 42.777 16.3927 42.5804 16.7054C42.5243 16.8027 42.4541 16.8861 42.3769 16.9695C42.3067 17.0459 42.2154 17.0598 42.1101 17.0459C41.9838 17.0251 41.9206 16.9 41.9838 16.7958C42.3558 16.1842 42.7489 15.5866 43.0999 14.9612C43.4017 14.4192 43.6895 13.8702 44.0405 13.356C44.23 13.078 44.4266 12.8139 44.6793 12.5846C44.8057 12.4665 44.9039 12.3206 45.0233 12.1885C45.0864 12.1329 45.1496 12.0843 45.2058 12.0356Z" fill="#E67803"/>
<path fill-rule="evenodd" clip-rule="evenodd" d="M46.0979 12.6892C46.0488 12.849 46.0418 12.9116 46.0137 12.9602C45.6978 13.4189 45.3609 13.8636 45.059 14.3361C44.7291 14.8434 44.4273 15.3646 44.1184 15.8858C43.8095 16.4209 43.5147 16.9698 43.2059 17.5119C43.1637 17.5814 43.1216 17.6508 43.0725 17.7064C42.9391 17.8593 42.8408 17.8524 42.6162 17.6647C42.7355 17.4632 42.8619 17.2617 42.9742 17.0602C43.3322 16.4417 43.6902 15.8232 44.0552 15.2048C44.4413 14.5446 44.9046 13.9331 45.4241 13.3633C45.6136 13.1478 45.8172 12.9602 46.0979 12.6892Z" fill="#E67803"/>
<path fill-rule="evenodd" clip-rule="evenodd" d="M26.709 15.1837C26.6528 14.9821 26.5826 14.7667 26.5264 14.5582C26.2737 13.6549 25.8385 12.814 25.5086 11.9454C25.2489 11.2574 24.9681 10.5625 24.8066 9.82593C24.8488 9.83983 24.8909 9.83983 24.8979 9.86067C25.2348 10.5278 25.5788 11.1879 25.8947 11.862C26.3159 12.7515 26.723 13.6479 26.9968 14.5999C27.0248 14.7042 27.067 14.8084 27.081 14.9196C27.1231 15.1906 27.0599 15.2393 26.709 15.1837Z" fill="#E67803"/>
<path fill-rule="evenodd" clip-rule="evenodd" d="M30.7177 8.99219C30.7879 9.34659 30.8651 9.69404 30.9283 10.0484C31.0476 10.7364 31.167 11.4244 31.2793 12.1123C31.3635 12.6474 31.4407 13.1755 31.5109 13.7106C31.525 13.8009 31.518 13.8982 31.5039 13.9955C31.4899 14.1136 31.3846 14.2109 31.2863 14.2109C31.181 14.2109 31.1108 14.1484 31.0687 14.0511C31.0476 13.9955 31.0266 13.933 31.0196 13.8704C30.9845 13.5577 30.9634 13.2381 30.9213 12.9254C30.8792 12.5293 30.823 12.1401 30.7739 11.744C30.7247 11.3827 30.6545 11.0213 30.6405 10.66C30.6195 10.1874 30.6335 9.70794 30.6335 9.2354C30.6335 9.15897 30.6405 9.07558 30.6475 8.99914C30.6686 9.00609 30.6896 8.99914 30.7177 8.99219Z" fill="#E67803"/>
<path fill-rule="evenodd" clip-rule="evenodd" d="M44.5317 18.9082C45.1354 18.4635 45.718 17.9701 46.2655 17.4281C46.5744 17.1293 46.8762 16.8166 47.1781 16.5108C47.4027 16.2884 47.5922 16.0383 47.8941 15.8854C48.0696 15.7951 48.1959 15.6074 48.3504 15.4615C48.3995 15.4129 48.4627 15.3781 48.5258 15.3364C48.6171 15.4476 48.5469 15.5102 48.4978 15.5657C48.231 15.8854 47.9643 16.2051 47.6905 16.5108C47.0517 17.2196 46.3778 17.9076 45.6759 18.5608C45.4653 18.7554 45.2407 18.936 45.0231 19.1237C45.009 19.1376 45.002 19.1445 44.988 19.1515C44.8897 19.2279 44.7844 19.2487 44.6721 19.2001C44.5387 19.1584 44.5106 19.0542 44.5317 18.9082Z" fill="#E67803"/>
<path fill-rule="evenodd" clip-rule="evenodd" d="M52.9766 20.4512C52.6888 20.8056 52.415 21.0418 52.1342 21.2642C51.348 21.8896 50.5337 22.4734 49.6423 22.9528C49.4176 23.071 49.2 23.21 48.9754 23.335C48.9052 23.3698 48.828 23.3976 48.7508 23.4045C48.6385 23.4184 48.5261 23.3281 48.4981 23.2238C48.47 23.1057 48.5472 23.0432 48.6314 23.0015C48.9263 22.8486 49.2351 22.7096 49.5229 22.5428C50.3653 22.0773 51.1515 21.5352 51.9166 20.9654C52.2185 20.7361 52.5484 20.611 52.9766 20.4512Z" fill="#E67803"/>
<path fill-rule="evenodd" clip-rule="evenodd" d="M41.9214 11.0907C41.8933 11.1463 41.8793 11.2019 41.8442 11.2506C41.3458 11.8829 41.0088 12.5987 40.6368 13.3075C40.342 13.8704 40.0191 14.4193 39.7032 14.9683C39.647 15.0656 39.5768 15.1559 39.5066 15.2393C39.4435 15.3227 39.3522 15.3436 39.2469 15.3158C39.0854 15.281 39.0082 15.1212 39.0995 14.9892C39.2118 14.8154 39.3382 14.6487 39.4575 14.4819C39.8085 14.0024 40.0822 13.4882 40.342 12.96C40.5806 12.4736 40.8755 12.015 41.2124 11.598C41.3879 11.3826 41.6266 11.2089 41.8371 11.0212C41.8722 11.0421 41.9003 11.0629 41.9214 11.0907Z" fill="#E67803"/>
<path fill-rule="evenodd" clip-rule="evenodd" d="M35.6106 9.79137C35.6176 9.86781 35.6387 9.94425 35.6316 10.0137C35.5334 11.1534 35.4561 12.2861 35.2034 13.4049C35.1403 13.6759 35.1754 13.9747 35.1613 14.2596C35.1543 14.3361 35.1613 14.4264 35.1262 14.4889C35.0911 14.5445 35.0069 14.6071 34.9437 14.6071C34.8805 14.6071 34.7682 14.5515 34.7472 14.5028C34.677 14.3152 34.6208 14.1206 34.6699 13.9052C34.7612 13.523 34.8454 13.1339 34.9156 12.7447C35.0069 12.2305 35.0841 11.7163 35.1683 11.1951C35.1683 11.1812 35.1683 11.1603 35.1754 11.1464C35.1894 11.0492 35.1824 10.9519 35.2245 10.8685C35.3789 10.521 35.407 10.1458 35.5053 9.78442C35.5404 9.78442 35.5755 9.78442 35.6106 9.79137Z" fill="#E67803"/>
<path fill-rule="evenodd" clip-rule="evenodd" d="M43.107 11.4937C42.8964 11.8272 42.6858 12.1608 42.4752 12.5013C42.4191 12.5986 42.3629 12.6959 42.3138 12.7932C41.8154 13.7521 41.2328 14.6624 40.594 15.538C40.5659 15.5797 40.5448 15.6214 40.5097 15.6562C40.3623 15.8229 40.257 15.809 40.0254 15.5867C40.1447 15.4268 40.2641 15.267 40.3904 15.1072C41.0011 14.2941 41.5346 13.4255 42.0611 12.5569C42.1594 12.3971 42.2646 12.2511 42.4191 12.1191C42.5875 11.9801 42.6999 11.7786 42.8473 11.6049C42.9034 11.5354 42.9736 11.4798 43.0368 11.4172C43.0649 11.445 43.0859 11.4728 43.107 11.4937Z" fill="#E67803"/>
<path fill-rule="evenodd" clip-rule="evenodd" d="M34.4663 9.77025C34.4031 10.7223 34.354 11.6673 34.2698 12.6124C34.2206 13.1683 34.1364 13.7173 34.0662 14.2663C34.0522 14.3983 33.9539 14.447 33.8346 14.4748C33.7152 14.4956 33.5959 14.4192 33.5889 14.308C33.5889 14.2454 33.5959 14.1829 33.6099 14.1204C33.8346 13.0433 33.9258 11.9523 34.0592 10.8682C34.0873 10.6458 34.1013 10.4304 34.2347 10.2358C34.2908 10.1455 34.2838 10.0204 34.3119 9.91618C34.3259 9.86058 34.354 9.81194 34.3821 9.75635C34.4172 9.75635 34.4382 9.7633 34.4663 9.77025Z" fill="#E67803"/>
<path fill-rule="evenodd" clip-rule="evenodd" d="M21.1775 11.32C21.0231 11.2783 20.995 11.1394 20.9248 11.0073C21.1143 11.0421 21.1845 11.1463 21.1915 11.3061C21.1845 11.3131 21.1775 11.32 21.1775 11.32Z" fill="#E67803"/>
<path fill-rule="evenodd" clip-rule="evenodd" d="M13.2381 47.3647C13.203 47.4134 13.196 47.4342 13.189 47.4342C13.1398 47.4551 13.0907 47.4759 13.0416 47.4898C13.0345 47.4898 13.0205 47.462 13.0205 47.462C13.0556 47.4342 13.0837 47.3995 13.1188 47.3786C13.1328 47.3647 13.1679 47.3717 13.2381 47.3647Z" fill="#E67803"/>
<path fill-rule="evenodd" clip-rule="evenodd" d="M28.8715 57.6077C28.8784 57.6702 28.8854 57.7328 28.8923 57.8439C28.795 57.7258 28.8298 57.6702 28.8854 57.6146C28.8854 57.6216 28.8715 57.6077 28.8715 57.6077Z" fill="#E67803"/>
<path fill-rule="evenodd" clip-rule="evenodd" d="M37.9121 14.19C37.9191 14.19 37.933 14.1761 37.9469 14.1831C37.9608 14.19 37.9608 14.2039 37.9677 14.2109C37.9469 14.2178 37.933 14.2248 37.9121 14.2317C37.9121 14.2178 37.9121 14.2039 37.9121 14.19Z" fill="#E67803"/>
<path fill-rule="evenodd" clip-rule="evenodd" d="M55.8049 24.016C55.8397 23.9951 55.8814 23.9673 55.8258 24.0021C55.8883 24.0021 55.8397 24.0021 55.791 24.0021L55.8049 24.016Z" fill="#E67803"/>
<path fill-rule="evenodd" clip-rule="evenodd" d="M41.7529 54.6544C41.7599 54.6822 41.7738 54.71 41.7807 54.7378C41.7738 54.71 41.7668 54.6753 41.7599 54.6475C41.7668 54.6475 41.7529 54.6544 41.7529 54.6544Z" fill="#E67803"/>
<path fill-rule="evenodd" clip-rule="evenodd" d="M27.4883 57.4619C27.5022 57.4897 27.5091 57.5175 27.523 57.5523C27.53 57.5661 27.53 57.58 27.53 57.6009C27.5161 57.587 27.5022 57.5731 27.5022 57.5592C27.4952 57.5245 27.4883 57.4967 27.4883 57.4619Z" fill="#E67803"/>
<path fill-rule="evenodd" clip-rule="evenodd" d="M53.6506 18.7208C53.6927 18.7069 53.7348 18.693 53.7769 18.686C53.7839 18.686 53.798 18.693 53.812 18.6999C53.798 18.7208 53.7839 18.7555 53.7699 18.7486C53.7278 18.7416 53.6857 18.7277 53.6436 18.7069C53.6436 18.7138 53.6506 18.7208 53.6506 18.7208Z" fill="#E67803"/>
<path fill-rule="evenodd" clip-rule="evenodd" d="M35.6095 9.4646C35.6164 9.4785 35.6234 9.4924 35.6234 9.50629C35.6234 9.52019 35.6095 9.52714 35.6025 9.54104C35.6025 9.51324 35.6025 9.4924 35.6095 9.4646Z" fill="#E67803"/>
<path fill-rule="evenodd" clip-rule="evenodd" d="M52.6748 46.3295C52.7169 46.3156 52.752 46.2948 52.7941 46.2878C52.8012 46.2878 52.8152 46.3017 52.8222 46.3087C52.8012 46.3226 52.7871 46.3504 52.7661 46.3504C52.738 46.3504 52.7099 46.3295 52.6818 46.3226C52.6818 46.3156 52.6748 46.3295 52.6748 46.3295Z" fill="#E67803"/>
</svg>
