<svg width="238" height="16" viewBox="0 0 238 16" fill="none" xmlns="http://www.w3.org/2000/svg">
<path d="M0.792893 7.29289C0.402369 7.68342 0.402369 8.31658 0.792893 8.70711L7.15685 15.0711C7.54738 15.4616 8.18054 15.4616 8.57107 15.0711C8.96159 14.6805 8.96159 14.0474 8.57107 13.6569L2.91421 8L8.57107 2.34315C8.96159 1.95262 8.96159 1.31946 8.57107 0.928932C8.18054 0.538408 7.54738 0.538408 7.15685 0.928932L0.792893 7.29289ZM237.207 8.70711C237.598 8.31658 237.598 7.68342 237.207 7.29289L230.843 0.928932C230.453 0.538408 229.819 0.538408 229.429 0.928932C229.038 1.31946 229.038 1.95262 229.429 2.34315L235.086 8L229.429 13.6569C229.038 14.0474 229.038 14.6805 229.429 15.0711C229.819 15.4616 230.453 15.4616 230.843 15.0711L237.207 8.70711ZM1.5 8V9H3.00641V8V7H1.5V8ZM6.01923 8V9H9.03205V8V7H6.01923V8ZM12.0449 8V9H15.0577V8V7H12.0449V8ZM18.0705 8V9H21.0833V8V7H18.0705V8ZM24.0962 8V9H27.109V8V7H24.0962V8ZM30.1218 8V9H33.1346V8V7H30.1218V8ZM36.1474 8V9H39.1603V8V7H36.1474V8ZM42.1731 8V9H45.1859V8V7H42.1731V8ZM48.1987 8V9H51.2115V8V7H48.1987V8ZM54.2244 8V9H57.2372V8V7H54.2244V8ZM60.25 8V9H63.2628V8V7H60.25V8ZM66.2756 8V9H69.2885V8V7H66.2756V8ZM72.3013 8V9H75.3141V8V7H72.3013V8ZM78.3269 8V9H81.3397V8V7H78.3269V8ZM84.3526 8V9H87.3654V8V7H84.3526V8ZM90.3782 8V9H93.391V8V7H90.3782V8ZM96.4038 8V9H99.4166V8V7H96.4038V8ZM102.429 8V9H105.442V8V7H102.429V8ZM108.455 8V9H111.468V8V7H108.455V8ZM114.481 8V9H117.494V8V7H114.481V8ZM120.506 8V9H123.519V8V7H120.506V8ZM126.532 8V9H129.545V8V7H126.532V8ZM132.558 8V9H135.57V8V7H132.558V8ZM138.583 8V9H141.596V8V7H138.583V8ZM144.609 8V9H147.622V8V7H144.609V8ZM150.635 8V9H153.647V8V7H150.635V8ZM156.66 8V9H159.673V8V7H156.66V8ZM162.686 8V9H165.699V8V7H162.686V8ZM168.711 8V9H171.724V8V7H168.711V8ZM174.737 8V9H177.75V8V7H174.737V8ZM180.763 8V9H183.776V8V7H180.763V8ZM186.788 8V9H189.801V8V7H186.788V8ZM192.814 8V9H195.827V8V7H192.814V8ZM198.84 8V9H201.852V8V7H198.84V8ZM204.865 8V9H207.878V8V7H204.865V8ZM210.891 8V9H213.904V8V7H210.891V8ZM216.917 8V9H219.929V8V7H216.917V8ZM222.942 8V9H225.955V8V7H222.942V8ZM228.968 8V9H231.981V8V7H228.968V8ZM234.993 8V9H236.5V8V7H234.993V8Z" fill="#231F20"/>
</svg>
