<svg width="45" height="50" viewBox="0 0 45 50" fill="none" xmlns="http://www.w3.org/2000/svg">
<path fill-rule="evenodd" clip-rule="evenodd" d="M15.9964 28.6982C15.1495 28.9503 14.289 29.1511 13.4602 29.464C11.2682 30.2858 8.97197 30.4819 6.68937 30.7854C6.57614 30.7994 6.45386 30.692 6.17306 30.5753C7.33248 29.9075 8.53719 29.9029 9.60603 29.4686C10.6341 29.053 11.712 28.7589 12.7356 28.0865C12.3642 27.7363 12.02 27.8297 11.7165 27.8857C10.7519 28.0725 9.79172 28.2779 8.8361 28.5021C8.50549 28.5768 8.21563 28.6795 7.85331 28.5114C7.63139 28.4087 7.2736 28.5207 7.01092 28.6188C6.12324 28.955 5.21292 29.0857 4.18031 29.0063C4.35694 28.6235 4.7102 28.5581 4.96835 28.5161C6.49009 28.2639 7.83067 27.4654 9.27541 26.9985C9.54715 26.9098 9.78266 26.7183 10.077 26.5502C9.3207 26.3028 8.72288 26.2094 7.95748 26.3495C6.68031 26.5876 5.42125 26.5502 4.14408 26.3635C2.93031 26.186 1.70296 26.0833 0.484665 25.9479C0.231042 25.9199 -0.0044647 25.8638 6.42769e-05 25.4903C1.40405 25.2195 2.82162 25.3222 4.23919 25.3269C5.15857 25.3269 5.15857 25.3455 5.95114 24.7899C6.26364 24.8833 6.3814 25.5977 6.88411 25.1121C6.866 25.0233 6.87505 24.8739 6.82976 24.8552C5.65223 24.365 4.44752 23.9681 3.16582 23.8887C2.54535 23.8513 1.89318 23.884 1.25459 23.249C3.44662 23.1696 5.4756 23.2163 7.69027 23.4918C6.84788 22.8894 5.95567 22.7447 5.1948 22.0396C6.68031 22.3384 8.01636 22.5999 9.38864 22.8754C9.3524 22.3058 8.67759 22.4038 8.61871 21.8808C8.5553 21.3532 7.86237 21.4606 7.63139 21.0637C7.57705 20.9703 7.6631 20.7882 7.68121 20.6481L7.67668 20.6434C9.56074 21.6567 11.6441 21.9789 13.6731 22.5159C12.6903 21.6614 11.6894 20.8769 10.5209 20.3353C9.08972 19.6769 7.68121 18.9625 6.2727 18.2527C5.96926 18.0986 5.71111 17.8465 5.17216 17.4496C5.71111 17.5897 5.96473 17.6317 6.20024 17.7204C7.76273 18.3134 9.32523 18.9204 10.8923 19.5041C11.1096 19.5835 11.3633 19.5461 11.6033 19.5601C11.6531 19.6629 11.6712 19.8683 11.8207 19.6302C11.7392 19.6208 11.6577 19.6068 11.5807 19.5975C11.8252 19.4387 12.0381 19.2286 12.3778 19.4387C13.0526 19.8543 13.741 20.2512 14.4339 20.6294C14.6241 20.7322 14.8642 20.7368 15.2718 20.8349C14.4973 19.5134 13.356 18.6636 13.1205 17.0433C13.9765 18.0332 14.6785 18.9158 15.4575 19.7189C16.2138 20.4987 17.0517 21.1944 17.962 22.0256C17.8125 21.3298 17.8125 21.3345 17.2917 20.6201C16.9973 20.2139 16.7075 19.8029 16.4086 19.4014C16.0825 18.9578 15.7473 18.5189 15.4122 18.0799C15.1087 17.6784 14.8098 17.2768 14.5019 16.8799C14.1939 16.483 13.8859 16.0908 13.5689 15.6985C13.2654 15.325 12.9665 14.9468 12.9529 14.3771C13.4647 14.8767 13.9765 15.3764 14.5471 15.9273C14.76 15.423 14.3207 15.2876 14.1984 15.0261C14.0263 14.6619 13.8316 14.3071 13.6278 13.9569C13.4511 13.6533 13.2428 13.3638 13.0707 13.0603C12.8986 12.7521 12.7537 12.43 12.5952 12.1171C12.414 11.7576 12.2147 11.4027 12.0517 11.0385C11.9113 10.7303 11.8162 10.4034 11.7799 10.0439C13.6595 12.3599 14.991 15.0682 17.02 17.5336C16.8207 16.1468 16.6758 14.9981 16.481 13.8588C16.3995 13.3872 16.4403 12.9389 16.6033 12.5187C16.6758 12.3272 16.9067 12.1965 17.1105 11.9957C16.9611 11.2813 16.4448 10.6089 16.4855 9.65166C17.3144 10.9171 17.9394 12.1498 18.4919 13.4432C19.0172 14.6759 19.6739 15.848 20.3307 17.1741C20.5888 16.0067 20.2854 15.0868 19.8642 14.181C19.4384 13.2705 19.0489 12.3412 18.6459 11.4167L18.6142 11.4541C18.7727 11.5474 18.9538 11.6128 19.0807 11.7389C19.3886 12.0517 19.6785 12.3926 20.068 12.8269C20.145 12.3506 20.1948 12.0191 20.2582 11.6268C20.4801 11.6268 20.7066 11.6268 21.0009 11.6268C20.8062 9.79174 20.1721 8.03605 20.5345 6.20097C20.9557 6.257 20.9149 6.61188 20.9602 6.88737C21.1096 7.7839 21.2274 8.68976 21.3859 9.58629C21.4357 9.87112 21.5625 10.1466 21.7256 10.6322C22.2056 9.47889 22.2917 8.45629 22.414 7.4477C22.4864 6.85002 22.4864 6.243 22.5589 5.64998C22.7627 3.99234 22.9846 2.3347 23.202 0.681733C23.2247 0.508965 23.2654 0.340867 23.3334 0C23.7953 1.37747 23.8633 2.72693 23.6549 4.1511C23.5417 4.90288 23.4828 5.65932 23.4239 6.41576C23.4013 6.70994 23.4511 7.00878 23.4647 7.29361C24.2392 7.40568 23.8723 6.45779 24.366 6.30837C24.6649 7.42436 24.6875 8.52167 24.4565 10.5248C24.4701 10.6322 24.4837 10.7443 24.4973 10.8517C24.4837 10.7396 24.4747 10.6276 24.4656 10.5155C24.6105 10.4128 24.8325 10.3427 24.8823 10.2073C25.2446 9.23142 25.5707 8.23683 25.9013 7.27026C26.1821 7.20022 26.2908 7.31696 26.2681 7.56444C26.1006 9.51158 25.7971 11.4354 25.2446 13.3078C25.1495 13.6347 25.1857 14.0035 25.1631 14.3538C25.0227 14.6152 24.8868 14.8767 24.7464 15.1382C24.7826 15.1662 24.8279 15.1942 24.8415 15.2316C24.8551 15.2596 24.8279 15.3016 24.8189 15.339C24.8053 15.2643 24.7917 15.1942 24.7736 15.1242C25.2084 14.9841 25.2084 14.9841 25.1178 14.3211C25.6431 14.3304 25.5344 13.8401 25.6477 13.56C26.3814 11.6875 27.0879 9.80108 27.8125 7.91931C27.8578 7.79791 27.962 7.69518 28.0843 7.5084C28.3152 8.15745 28.1431 8.67576 27.971 9.19406C27.3415 11.1132 26.7075 13.0323 26.096 14.9561C25.8877 15.6098 25.6341 16.2635 25.5435 17.2955C27.491 14.6619 28.8904 11.9817 31.2047 10.0439C30.1993 11.6408 29.1486 13.2144 28.1975 14.844C27.2419 16.483 26.3814 18.1827 25.4212 19.9664C26.1957 19.8917 26.2953 19.2706 26.6395 18.9298C26.9928 18.5796 27.3415 18.2247 27.645 17.8325C27.9801 17.4029 28.2564 16.9313 28.6368 16.3569C28.9312 17.1601 28.0888 17.627 28.3832 18.3928C28.6776 18.1266 28.9448 17.9305 29.1576 17.6877C30.8062 15.7966 32.6087 14.0783 34.5788 12.556C35.0453 12.1965 35.5797 11.935 36.0824 11.6268L36.0507 11.5941C36.0009 11.7669 36.0054 11.9957 35.8968 12.1031C35.1495 12.8362 34.4022 13.5693 33.6096 14.251C31.3406 16.1935 29.6377 18.6449 27.577 21.1617C27.9801 21.0077 28.116 20.975 28.2292 20.9049C29.2527 20.3072 30.2446 19.6535 31.2953 19.1119C32.8805 18.2901 34.289 17.1834 35.7881 16.2262C36.164 15.988 36.49 15.9087 36.8795 16.0954C36.7074 16.1748 36.5036 16.2168 36.3723 16.3383C33.5507 19.0138 30.394 21.1944 27.0245 23.0575C26.8977 23.1276 26.798 23.249 26.4719 23.5385C26.9248 23.4077 27.1377 23.375 27.3234 23.2863C28.6957 22.6233 30.0453 21.9135 31.4357 21.2925C32.1875 20.9563 32.9982 20.7648 33.7817 20.5034L33.7545 20.4707C33.5009 21.0684 32.817 21.1477 32.3913 21.6754C33.0661 21.8295 33.664 21.526 34.1486 21.2972C35.6341 20.5827 37.2283 20.2419 38.7636 19.7189C40.3895 19.1679 42.0698 18.7944 43.7636 18.3321C43.8496 18.7477 43.5688 18.8504 43.4103 18.9111C42.2056 19.35 40.9873 19.7422 39.7781 20.1718C38.2881 20.6948 36.7935 21.2084 35.3216 21.7734C33.8949 22.3244 32.4864 22.9361 31.0779 23.5338C30.8696 23.6225 30.693 23.7906 30.2219 24.1081C34.452 23.814 38.3243 23.277 42.4819 22.8988C41.0553 23.6552 39.289 24.0241 34.5652 24.7198C35.5254 24.7525 36.49 24.7525 37.4502 24.8319C38.4103 24.9066 39.3659 25.0607 40.6522 25.2195C40.0272 25.3689 39.7192 25.4389 39.4339 25.509C39.3705 25.8545 39.5833 25.8872 39.7645 25.9199C40.394 26.0319 41.0281 26.1347 41.6621 26.2281C42.0018 26.2794 42.3596 26.2607 42.6857 26.3541C43.3786 26.5596 44.058 26.8211 45 27.1479C44.3886 27.1853 44.0489 27.232 43.7138 27.218C41.3044 27.0919 38.8904 27.0219 36.5263 26.4522C36.0507 26.3354 35.5525 26.2841 35.0634 26.2841C33.8497 26.2794 32.6314 26.3261 31.4131 26.4242C33.9221 27.1059 36.5308 27.246 38.99 28.1098C39.0172 28.1192 39.0217 28.2032 39.0716 28.3573C36.6123 28.2733 34.2029 28.0538 31.7935 27.7176C32.4683 28.362 33.3515 28.1238 34.1214 28.3433C34.8732 28.5581 35.6522 28.6561 36.4855 28.8149C35.5435 29.3005 35.5435 29.3005 30.1268 28.7262C30.1902 29.1511 30.5797 28.9877 30.8017 29.1184C31.01 29.2351 31.2591 29.2959 31.4991 29.3285C33.2564 29.5527 35.0181 29.7488 36.7754 29.9729C37.8035 30.1037 38.8225 30.2531 39.846 30.4118C40.0227 30.4399 40.1857 30.5706 40.6114 30.7761C37.7219 30.8881 35.1223 30.5379 32.5136 30.5519C32.5136 30.8834 32.5136 31.1216 32.5136 31.4625C31.558 31.229 30.8922 30.5099 30.0589 30.1457C30.0136 30.2858 29.9321 30.4212 29.9593 30.4539C30.5027 31.0282 31.0598 31.5932 31.8026 32.3543C31.3814 32.2376 31.1685 32.2329 31.0145 32.1302C30.1042 31.5325 29.212 30.9115 28.3152 30.2998C27.9892 30.6126 28.2518 30.8694 28.3922 31.0982C29.1531 32.345 29.9321 33.573 30.702 34.8104C30.8288 35.0159 30.9375 35.2353 31.0417 35.4268C30.8288 35.7116 30.6477 35.5809 30.4937 35.4781C29.8823 35.0859 29.2799 34.6797 28.4964 34.1614C28.5689 34.6797 28.6142 34.9832 28.6776 35.4408C27.8714 34.8244 27.3868 34.0727 26.6169 33.5077C26.4584 34.4275 27.2102 34.9925 27.1513 35.8517C26.3814 35.268 26.2817 34.3108 25.5435 33.601C25.6205 34.3995 25.6794 35.0345 25.7518 35.7957C25.0046 35.3381 24.9276 34.633 24.7238 33.9886C24.5879 35.8797 25.2265 37.6541 25.3895 39.6666C25.0181 39.237 24.7464 38.9195 24.4611 38.5926C24.4203 38.6253 24.3116 38.6627 24.3026 38.7234C24.1305 39.718 23.9674 40.7126 23.7998 41.7118C23.7681 41.9032 23.7274 42.09 23.5281 42.3001C23.4783 42.0013 23.4149 41.6978 23.3832 41.399C23.347 41.0441 23.3469 40.6892 23.3017 40.3343C23.2564 39.9888 23.1703 39.6526 23.0209 39.3071C22.6812 40.4604 22.9756 41.7071 22.5272 43.0006C22.2962 42.6644 22.1694 42.4776 22.0064 42.2441C21.5037 42.6504 21.8977 43.206 21.7754 43.6543C21.6441 44.1352 21.6848 44.6582 21.6214 45.1625C21.5535 45.7182 21.4584 46.2645 21.3633 46.8155C21.2772 47.3151 21.1685 47.8101 21.0779 48.3097C20.9919 48.7953 20.9013 49.2762 20.5345 50C20.462 49.4724 20.3986 49.2529 20.4122 49.0381C20.4846 47.7727 20.5979 46.5073 20.6522 45.2419C20.693 44.3313 20.6613 43.4208 20.6613 42.5103C20.6613 42.2114 20.6613 41.9126 20.6749 41.6137C20.6975 41.2168 20.7292 40.8246 20.693 40.4184C20.1042 41.6091 20.1903 43.0239 19.4973 44.1446C18.7093 43.4628 18.6187 42.5943 18.6821 41.6511C18.7953 39.9841 18.8814 38.3125 18.9493 36.6455C18.981 35.8891 18.9538 35.1326 18.9538 34.2734C18.4194 34.4415 18.4647 34.9412 18.2473 35.226C18.0073 35.5435 17.7763 35.8704 17.5091 36.1692C17.2962 36.4074 16.8886 36.2393 16.6894 36.6175C16.5127 36.9443 16.1866 37.1871 15.7745 37.3879C15.9194 36.9443 16.0644 36.4961 16.2048 36.0525C14.8234 37.0798 14.1214 38.672 12.8805 39.858C12.8125 39.1016 13.2111 38.658 13.5327 38.1584C14.6513 36.3933 15.7428 34.605 16.9837 32.5925C16.1595 32.8633 15.7654 33.3255 15.2944 33.6384C14.7962 33.9653 14.3433 34.3575 13.8633 34.7124C13.3923 35.0626 12.9167 35.4034 12.3959 35.7817C12.3144 35.5108 12.2736 35.3241 12.1966 35.1606C12.1377 35.0299 12.029 34.9178 11.9022 34.745C12.2011 34.2501 12.5091 33.7411 12.8307 33.2041C12.6857 33.0781 12.5182 32.9333 12.3189 32.7606C12.8624 32.2376 13.3923 31.7193 13.9221 31.2056C14.0082 31.1403 14.0942 31.0796 14.1803 31.0189C14.1395 31.0142 14.0761 30.9955 14.0671 31.0142C14.0218 31.0889 13.9946 31.173 13.9584 31.2523C13.5281 31.1823 13.2156 31.4484 12.876 31.6399C11.8886 32.2049 10.9058 32.7746 9.914 33.3209C9.61961 33.4843 9.29806 33.5824 9.0082 33.6991C8.72288 33.4003 8.98103 33.2882 9.10784 33.1901C9.85965 32.6298 10.6024 32.0461 11.3995 31.5558C12.7899 30.7013 14.2165 29.9122 15.6296 29.0997C15.7971 29.0017 15.9919 28.9503 15.9602 28.6888C16.0462 28.6982 16.1413 28.7309 16.2183 28.7122C16.2591 28.7028 16.2772 28.6001 16.3044 28.5441C16.2591 28.5441 16.2048 28.5207 16.173 28.5441C16.1142 28.5674 16.0553 28.6375 15.9964 28.6982ZM20.5888 33.7411C20.3216 33.7785 20.1268 33.8672 20.3171 34.2314C20.4076 34.04 20.4846 33.8719 20.5526 33.6944C20.6205 33.4936 20.847 33.2975 20.4756 32.9473C20.5254 33.3069 20.5571 33.5217 20.5888 33.7411ZM14.8596 32.6952C14.4294 32.7092 14.1803 32.9894 13.9674 33.3489C14.5834 33.1341 14.5834 33.1341 14.8325 32.6578C14.9185 32.6625 15.0363 32.7092 15.077 32.6672C15.1586 32.5925 15.1993 32.4664 15.2582 32.3637C15.1404 32.387 15.0136 32.3917 14.914 32.4477C14.8642 32.4804 14.8732 32.6111 14.8596 32.6952ZM17.2057 12.9716C17.2781 13.5086 17.2691 13.7654 17.3506 13.9895C17.8714 15.3437 18.2473 16.7398 18.6232 18.1406C18.8587 19.0185 19.5018 19.915 20.1903 20.508C19.8732 18.757 18.8678 17.3795 18.5281 15.7546C18.3877 15.0775 18.0345 14.4425 17.7582 13.7981C17.6721 13.5833 17.5046 13.4105 17.2057 12.9716ZM17.3506 23.4217C16.8162 22.9174 16.8162 22.9174 15.9466 22.7867C16.5942 23.4031 16.5942 23.4077 17.3506 23.4217ZM24.1123 18.7056C24.0354 19.1399 23.9674 19.5181 23.8768 20.0177C24.3252 19.6956 24.5335 19.4107 24.5517 18.9811C24.4158 18.8971 24.3026 18.8224 24.1123 18.7056ZM15.7292 27.3907C15.6024 27.344 15.5526 27.3254 15.5028 27.3067C15.5073 27.3347 15.5028 27.3861 15.5118 27.3907C15.5526 27.3954 15.5979 27.3907 15.7292 27.3907ZM23.5009 17.1461L23.587 17.1554L23.5508 17.0387L23.5009 17.1461ZM20.0544 38.135L20.0136 38.037L19.9819 38.1397L20.0544 38.135Z" fill="#3730A3"/>
</svg>
