<svg width="356" height="116" viewBox="0 0 356 116" fill="none" xmlns="http://www.w3.org/2000/svg">
<rect x="0.5" y="0.5" width="355" height="115" fill="#FCF6E5" stroke="#DBD3BC"/>
<mask id="mask0_1348_20954" style="mask-type:alpha" maskUnits="userSpaceOnUse" x="0" y="0" width="356" height="116">
<rect x="0.5" y="0.5" width="355" height="115" fill="#FCF6E5" stroke="#DBD3BC"/>
</mask>
<g mask="url(#mask0_1348_20954)">
<path d="M177.5 -160L179.234 24.9094L200.287 -158.806L182.684 25.272L222.825 -155.236L186.076 25.9931L244.866 -149.33L189.375 27.0649L266.169 -141.153L192.543 28.4756L286.5 -130.794L195.547 30.2098L305.637 -118.366L198.353 32.2485L323.37 -104.006L200.931 34.5693L339.506 -87.8705L203.252 37.1468L353.866 -70.1372L205.29 39.9528L366.294 -51L207.024 42.9566L376.653 -30.6686L208.435 46.1251L384.83 -9.36571L209.507 49.4238L390.736 12.6752L210.228 52.8164L394.306 35.2128L210.591 56.2658L395.5 58L210.591 59.7342L394.306 80.7872L210.228 63.1836L390.736 103.325L209.507 66.5762L384.83 125.366L208.435 69.8749L376.653 146.669L207.024 73.0434L366.294 167L205.29 76.0472L353.866 186.137L203.252 78.8532L339.506 203.87L200.931 81.4307L323.37 220.006L198.353 83.7515L305.637 234.366L195.547 85.7902L286.5 246.794L192.543 87.5244L266.169 257.153L189.375 88.9351L244.866 265.33L186.076 90.0069L222.825 271.236L182.684 90.728L200.287 274.806L179.234 91.0906L177.5 276L175.766 91.0906L154.713 274.806L172.316 90.728L132.175 271.236L168.924 90.0069L110.134 265.33L165.625 88.9351L88.8314 257.153L162.457 87.5244L68.5 246.794L159.453 85.7902L49.3628 234.366L156.647 83.7515L31.6295 220.006L154.069 81.4307L15.4944 203.87L151.748 78.8532L1.13429 186.137L149.71 76.0472L-11.2935 167L147.976 73.0434L-21.6529 146.669L146.565 69.8749L-29.8303 125.366L145.493 66.5762L-35.7362 103.325L144.772 63.1836L-39.3058 80.7872L144.409 59.7342L-40.5 58L144.409 56.2658L-39.3058 35.2128L144.772 52.8164L-35.7362 12.6752L145.493 49.4238L-29.8303 -9.36571L146.565 46.1251L-21.6529 -30.6686L147.976 42.9566L-11.2935 -51L149.71 39.9528L1.13429 -70.1372L151.748 37.1468L15.4944 -87.8705L154.069 34.5693L31.6295 -104.006L156.647 32.2485L49.3628 -118.366L159.453 30.2098L68.5 -130.794L162.457 28.4756L88.8314 -141.153L165.625 27.0649L110.134 -149.33L168.924 25.9931L132.175 -155.236L172.316 25.272L154.713 -158.806L175.766 24.9094L177.5 -160Z" fill="#B18500" fill-opacity="0.35"/>
<path d="M175 34C110.833 34 98 84.2295 98 84.2295H252C252 84.2295 239.167 34 175 34Z" stroke="#231F20"/>
<path d="M175 42C110.833 42 98 84 98 84H252C252 84 239.167 42 175 42Z" stroke="#231F20"/>
<path d="M175 51C110.833 51 98 84 98 84H252C252 84 239.167 51 175 51Z" stroke="#231F20"/>
<path d="M175 60C110.833 60 98 84 98 84H252C252 84 239.167 60 175 60Z" stroke="#231F20"/>
<path d="M175 69C110.833 69 98 84 98 84H252C252 84 239.167 69 175 69Z" stroke="#231F20"/>
<path d="M175 77C110.833 77 98 84 98 84H252C252 84 239.167 77 175 77Z" stroke="#231F20"/>
<circle cx="143" cy="71" r="4" fill="#231F20"/>
<circle cx="200" cy="53" r="4" fill="#231F20"/>
<circle cx="129" cy="46" r="4" fill="#231F20"/>
<circle cx="225" cy="78" r="4" fill="#231F20"/>
<circle cx="177" cy="60" r="4" fill="#231F20"/>
<circle cx="161" cy="42" r="4" fill="#231F20"/>
</g>
</svg>
